<?xml version="1.0" encoding="UTF-8" standalone="no"?>
<!-- Created with Inkscape (http://www.inkscape.org/) -->

<svg
   xmlns:dc="http://purl.org/dc/elements/1.1/"
   xmlns:cc="http://creativecommons.org/ns#"
   xmlns:rdf="http://www.w3.org/1999/02/22-rdf-syntax-ns#"
   xmlns:svg="http://www.w3.org/2000/svg"
   xmlns="http://www.w3.org/2000/svg"
   xmlns:sodipodi="http://sodipodi.sourceforge.net/DTD/sodipodi-0.dtd"
   xmlns:inkscape="http://www.inkscape.org/namespaces/inkscape"
   viewBox="0 0 17.440458 17.436041"
   version="1.1"
   id="svg26"
   inkscape:version="0.92.1 r15371"
   sodipodi:docname="bomber.svg">
  <defs
     id="defs20" />
  <sodipodi:namedview
     id="base"
     pagecolor="#ffffff"
     bordercolor="#666666"
     borderopacity="1.0"
     inkscape:pageopacity="0.0"
     inkscape:pageshadow="2"
     inkscape:zoom="0.35"
     inkscape:cx="-18.470223"
     inkscape:cy="-29.907144"
     inkscape:document-units="mm"
     inkscape:current-layer="layer1"
     showgrid="false"
     fit-margin-top="0"
     fit-margin-left="0"
     fit-margin-right="0"
     fit-margin-bottom="0"
     inkscape:window-width="1920"
     inkscape:window-height="1018"
     inkscape:window-x="-8"
     inkscape:window-y="-8"
     inkscape:window-maximized="1" />
  <metadata
     id="metadata23">
    <rdf:RDF>
      <cc:Work
         rdf:about="">
        <dc:format>image/svg+xml</dc:format>
        <dc:type
           rdf:resource="http://purl.org/dc/dcmitype/StillImage" />
        <dc:title></dc:title>
      </cc:Work>
    </rdf:RDF>
  </metadata>
  <g
     inkscape:label="Layer 1"
     inkscape:groupmode="layer"
     id="layer1"
     transform="translate(-110.72025,-123.48436)">
    <g
       id="g30"
       transform="matrix(0.26458333,0,0,0.26458333,106.22887,-133.00272)">
      <path
         id="path28"
         d="m 50,969.4 c -2.4,0 -4.7,0.4 -6,1 0.1,2.7 1,4.6 2.1,5.6 1.2,1.1 2.7,1.5 4.1,1.5 1.2,0 2.7,-0.4 3.8,-1.5 1.1,-1 1.9,-2.8 2,-5.6 -1.3,-0.7 -3.6,-1 -6,-1 z m -7.9,2.5 c -5.2,1.5 -11.2,2.5 -15.2,4.5 -9.1,15.9 -10.4,35.8 -9.8,53.8 h 7.8 c 0.3,-11.2 1.9,-24.5 5.9,-34.2 0,12.5 0,22.4 0.1,31.2 h 18 v -47.8 c -1.5,-0.2 -3,-0.8 -4.3,-2 -1.2,-1.1 -2.2,-2.7 -2.5,-5.5 z m 15.8,0 c -0.3,2.7 -1.3,4.3 -2.6,5.5 -1.3,1.2 -2.9,1.8 -4.3,2 v 47.8 h 18 c -0.1,-11.6 0,-22.5 0.1,-31.2 4,9.8 5.6,23 5.9,34.2 h 7.8 c 0.5,-18 -0.8,-37.9 -9.9,-53.8 -4.1,-2.1 -10.1,-3.4 -15,-4.5 z M 57,983.6 h 6 v 2 H 57 Z M 37,1013 h 2 v 9.1 h -2 z m 24,0 h 2 v 9.1 h -2 z m -30,16.3 c 0,2 1,3 3,3 5,-0.1 10,-0.1 15,-0.1 v -2.9 z m 20,0 v 2.9 c 5,0 10,0.1 15,0.1 2,0 3,-1 3,-3 z m -33.8,3 c 0,1 0.1,2 0.1,3 h 7.6 c 0,-1 0,-2 0,-3 z m 57.9,0 c 0,1 0,2.1 0,3 h 7.6 c 0,-1 0.1,-2 0.1,-3 z"
         inkscape:connector-curvature="0" />
    </g>
  </g>
</svg>
