<?xml version="1.0" encoding="UTF-8" standalone="no"?>
<!-- Created with Inkscape (http://www.inkscape.org/) -->

<svg
   xmlns:dc="http://purl.org/dc/elements/1.1/"
   xmlns:cc="http://creativecommons.org/ns#"
   xmlns:rdf="http://www.w3.org/1999/02/22-rdf-syntax-ns#"
   xmlns:svg="http://www.w3.org/2000/svg"
   xmlns="http://www.w3.org/2000/svg"
   xmlns:sodipodi="http://sodipodi.sourceforge.net/DTD/sodipodi-0.dtd"
   xmlns:inkscape="http://www.inkscape.org/namespaces/inkscape"
   width="23.815321mm"
   height="22.900576mm"
   viewBox="0 0 23.815321 22.900576"
   version="1.1"
   id="svg47"
   inkscape:version="0.92.1 r15371"
   sodipodi:docname="cap.svg">
  <defs
     id="defs41" />
  <sodipodi:namedview
     id="base"
     pagecolor="#ffffff"
     bordercolor="#666666"
     borderopacity="1.0"
     inkscape:pageopacity="0.0"
     inkscape:pageshadow="2"
     inkscape:zoom="0.35"
     inkscape:cx="105.00541"
     inkscape:cy="66.134161"
     inkscape:document-units="mm"
     inkscape:current-layer="layer1"
     showgrid="false"
     fit-margin-top="0"
     fit-margin-left="0"
     fit-margin-right="0"
     fit-margin-bottom="0"
     inkscape:window-width="1920"
     inkscape:window-height="1018"
     inkscape:window-x="-8"
     inkscape:window-y="-8"
     inkscape:window-maximized="1" />
  <metadata
     id="metadata44">
    <rdf:RDF>
      <cc:Work
         rdf:about="">
        <dc:format>image/svg+xml</dc:format>
        <dc:type
           rdf:resource="http://purl.org/dc/dcmitype/StillImage" />
        <dc:title></dc:title>
      </cc:Work>
    </rdf:RDF>
  </metadata>
  <g
     inkscape:label="Layer 1"
     inkscape:groupmode="layer"
     id="layer1"
     transform="translate(-78.050653,-143.43075)">
    <path
       id="path49"
       d="m 101.17527,153.52541 c 0.1852,-0.21167 0.37041,-0.52917 0.37041,-1.00542 -0.0265,-1.03188 0.60854,-2.72521 0.15875,-3.43958 -0.29104,-0.4498 -0.82021,-1.5875 -1.5875,-2.61938 -0.0265,0.15875 -0.0529,0.3175 -0.0794,0.47625 -0.0265,0.10583 -0.105836,0.18521 -0.211669,0.18521 h -0.02646 c -0.105834,-0.0265 -0.185209,-0.13229 -0.15875,-0.23813 0.05292,-0.29104 0.07937,-0.55562 0.105833,-0.8202 0,-0.0265 0,-0.0265 0.02646,-0.0529 -0.132291,-0.15875 -0.264583,-0.29104 -0.396875,-0.42333 -0.02646,0.0265 -0.07938,0.0265 -0.132291,0.0265 -0.02646,0 -0.05292,0 -0.05292,0 -0.26458,-0.0794 -0.529164,-0.15875 -0.793747,-0.21166 -0.105833,-0.0265 -0.185208,-0.13229 -0.15875,-0.26459 0.02646,-0.10583 0.132292,-0.1852 0.264583,-0.15875 0.105834,0.0265 0.211667,0.0529 0.3175,0.0794 -0.05292,-0.0529 -0.105833,-0.0794 -0.15875,-0.13229 -1.5875,-1.16417 -6.6675,-1.98438 -8.202083,-1.16417 -1.613958,0.79375 -9.551458,1.05833 -12.408958,9.49854 0,0 3.624792,3.38667 8.519583,5.87375 4.894792,2.48709 7.037917,6.77334 10.31875,7.19667 0,0 0.661458,-0.9525 0.608542,-3.09563 -0.05292,-2.14312 0.635,-2.91041 1.640416,-5.92666 0,0 0.3175,-0.50271 1.217086,-0.34396 0.55562,0.10583 0.84666,-0.39688 0.74083,-0.84667 -0.50271,-0.50271 -0.89958,-0.58208 -1.402291,-0.71437 -0.396875,-0.10584 -0.846666,-0.21167 -1.455208,-0.55563 -1.481667,-0.87312 -3.33375,-1.00541 -3.33375,-1.00541 -0.132292,0 -0.238125,-0.1323 -0.211667,-0.26459 0,-0.13229 0.132292,-0.23812 0.264584,-0.21166 0.07937,0 1.984375,0.15875 3.545416,1.05833 0.529167,0.3175 0.9525,0.42333 1.322917,0.50271 0.396879,0.10583 0.767289,0.18521 1.190629,0.47625 0.29104,-0.10584 0.58208,-0.34396 0.52916,-0.84667 0,0 -0.0265,-0.42333 -0.84666,-0.76729 0,0 0.0265,0 0.0794,-0.0265 -1.296457,-0.87312 -2.910416,-1.77271 -4.180416,-1.98437 -0.132291,-0.0265 -0.211666,-0.15875 -0.185208,-0.26459 0.02646,-0.13229 0.15875,-0.21166 0.264583,-0.18521 0.3175,0.0529 0.661459,0.15875 1.005417,0.29105 0,0 0,0 0,-0.0265 l 0.02646,-0.0265 c 0.05292,-0.10583 0.185209,-0.13229 0.291042,-0.0529 0.07937,0.0529 0.105833,0.15875 0.07937,0.26459 1.058333,0.44979 2.169582,1.11125 3.095622,1.74625 z m -2.063754,-4.7625 c 0.105833,-0.26459 0.185208,-0.52917 0.264583,-0.79375 0.02646,-0.10584 0.15875,-0.18521 0.264584,-0.1323 0.105833,0.0265 0.185208,0.15875 0.132291,0.26459 -0.07937,0.26458 -0.15875,0.55562 -0.264583,0.82021 -0.02646,0.0794 -0.105833,0.13229 -0.211667,0.13229 -0.02646,0 -0.05292,0 -0.07937,0 -0.07937,-0.0529 -0.15875,-0.18521 -0.105833,-0.29104 z m -0.820208,1.82562 c 0.132291,-0.23812 0.264583,-0.50271 0.370416,-0.74083 0.05292,-0.10584 0.185209,-0.15875 0.291042,-0.10584 0.105833,0.0529 0.15875,0.18521 0.105833,0.29105 -0.105833,0.26458 -0.238125,0.5027 -0.370416,0.76729 -0.02646,0.0794 -0.105834,0.10583 -0.185209,0.10583 -0.02646,0 -0.07937,0 -0.105833,-0.0265 -0.105833,-0.0529 -0.15875,-0.18521 -0.105833,-0.29104 z m -4.974167,-5.08 c -0.47625,0.15875 -0.740833,0.3175 -0.740833,0.3175 -0.02646,0.0265 -0.07938,0.0265 -0.105834,0.0265 -0.07938,0 -0.132291,-0.0265 -0.185208,-0.10583 -0.05292,-0.10584 -0.02646,-0.23813 0.07938,-0.29105 0,0 0.291042,-0.15875 0.820208,-0.34395 0.105834,-0.0265 0.238125,0.0265 0.264584,0.13229 0.05292,0.10583 0,0.23812 -0.132292,0.26458 z m 1.931458,-0.39687 c -0.264583,0.0265 -0.555625,0.0529 -0.820208,0.10583 h -0.02646 c -0.105834,0 -0.185209,-0.0794 -0.211667,-0.18521 -0.02646,-0.10583 0.05292,-0.21167 0.15875,-0.23812 0.291042,-0.0529 0.555625,-0.0794 0.846667,-0.10584 0.105833,0 0.211666,0.0794 0.238125,0.18521 0.02646,0.13229 -0.05292,0.23813 -0.185209,0.23813 z m 2.010834,0.0529 c 0,0 -0.02646,0 0,0 -0.291042,-0.0265 -0.582084,-0.0529 -0.846667,-0.0794 -0.105833,0 -0.211667,-0.10584 -0.211667,-0.21167 0,-0.10583 0.105834,-0.21167 0.211667,-0.21167 0.291042,0 0.582083,0.0265 0.846667,0.0794 0.105833,0.0265 0.185208,0.13229 0.185208,0.23812 0,0.10584 -0.07938,0.18521 -0.185208,0.18521 z"
       inkscape:connector-curvature="0"
       style="stroke-width:0.26458332" />
  </g>
</svg>
