<?xml version="1.0" encoding="UTF-8" standalone="no"?>
<!-- Created with Inkscape (http://www.inkscape.org/) -->

<svg
   xmlns:dc="http://purl.org/dc/elements/1.1/"
   xmlns:cc="http://creativecommons.org/ns#"
   xmlns:rdf="http://www.w3.org/1999/02/22-rdf-syntax-ns#"
   xmlns:svg="http://www.w3.org/2000/svg"
   xmlns="http://www.w3.org/2000/svg"
   xmlns:sodipodi="http://sodipodi.sourceforge.net/DTD/sodipodi-0.dtd"
   xmlns:inkscape="http://www.inkscape.org/namespaces/inkscape"
   viewBox="0 0 23.865416 15.822083"
   version="1.1"
   id="svg8"
   inkscape:version="0.92.1 r15371"
   sodipodi:docname="car.svg">
  <defs
     id="defs2" />
  <sodipodi:namedview
     id="base"
     pagecolor="#ffffff"
     bordercolor="#666666"
     borderopacity="1.0"
     inkscape:pageopacity="0.0"
     inkscape:pageshadow="2"
     inkscape:zoom="0.35"
     inkscape:cx="170.81429"
     inkscape:cy="61.328579"
     inkscape:document-units="mm"
     inkscape:current-layer="layer1"
     showgrid="false"
     fit-margin-top="0"
     fit-margin-left="0"
     fit-margin-right="0"
     fit-margin-bottom="0"
     inkscape:window-width="1920"
     inkscape:window-height="1018"
     inkscape:window-x="-8"
     inkscape:window-y="-8"
     inkscape:window-maximized="1" />
  <metadata
     id="metadata5">
    <rdf:RDF>
      <cc:Work
         rdf:about="">
        <dc:format>image/svg+xml</dc:format>
        <dc:type
           rdf:resource="http://purl.org/dc/dcmitype/StillImage" />
        <dc:title></dc:title>
      </cc:Work>
    </rdf:RDF>
  </metadata>
  <g
     inkscape:label="Layer 1"
     inkscape:groupmode="layer"
     id="layer1"
     transform="translate(-60.63872,-149.23777)">
    <g
       id="g20"
       transform="matrix(0.26458333,0,0,0.26458333,60.559345,144.15777)">
      <g
         id="g18">
        <path
           id="path10"
           d="M 90.2,49.2 78.6,30.5 c -0.4,-0.6 -1.1,-1 -1.8,-1 H 60.4 c -0.2,-1.7 -0.9,-4.7 -3.1,-7.1 -2,-2.1 -4.9,-3.2 -8.4,-3.2 H 17.8 c -1.2,0 -2.1,0.9 -2.1,2.1 v 5.2 H 9.5 c -1.2,0 -2.1,0.9 -2.1,2.1 0,1.2 0.9,2.1 2.1,2.1 h 21.8 c 1.2,0 2.1,-0.9 2.1,-2.1 0,-1.2 -0.9,-2.1 -2.1,-2.1 H 19.9 v -3.1 h 29 c 2.3,0 4.1,0.6 5.4,1.9 2.1,2.1 2,5.4 2,5.5 v 34.3 c 0,0 -15.4,0 -15.6,0.1 -1.5,-3.8 -5.1,-6.5 -9.5,-6.5 -4.3,0 -8,2.7 -9.4,6.5 h -1.9 v -9 C 19.9,55 19,54.1 17.8,54.1 H 4.6 c -1.2,0 -2.1,0.9 -2.1,2.1 0,1.2 0.9,2.1 2.1,2.1 h 11.2 v 9 c 0,1.2 0.9,2.1 2.1,2.1 h 3.3 c 0.3,5.3 4.7,9.6 10.1,9.6 5.4,0 9.8,-4.3 10.1,-9.6 h 20.3 c 0.3,5.3 4.7,9.6 10.1,9.6 5.4,0 9.8,-4.3 10.1,-9.6 h 6.5 c 1.2,0 2.1,-0.9 2.1,-2.1 V 50.4 c 0,-0.4 -0.1,-0.8 -0.3,-1.2 z m -59,25.5 c -3.3,0 -5.9,-2.7 -5.9,-5.9 0,-3.2 2.7,-5.9 5.9,-5.9 3.3,0 6,2.7 6,5.9 0,3.2 -2.7,5.9 -6,5.9 z m 40.6,0 c -3.3,0 -5.9,-2.7 -5.9,-5.9 0,-3.2 2.7,-5.9 5.9,-5.9 3.3,0 5.9,2.7 5.9,5.9 0,3.2 -2.6,5.9 -5.9,5.9 z m 9.5,-9.6 c -1.5,-3.8 -5.1,-6.5 -9.4,-6.5 -4.3,0 -8,2.7 -9.4,6.5 H 60.6 V 33.7 h 15.1 l 8.4,13.6 H 69 v -6.1 h 3.5 c 1.2,0 2.1,-0.9 2.1,-2.1 0,-1.2 -1,-2.1 -2.2,-2.1 h -5.6 c -1.2,0 -2.1,0.9 -2.1,2.1 v 10.3 c 0,1.2 0.9,2.1 2.1,2.1 h 19.5 v 13.6 z"
           inkscape:connector-curvature="0" />
        <path
           id="path12"
           d="m 17.8,33.8 c -1.2,0 -2.1,0.9 -2.1,2.1 v 8.8 H 8 c -1.2,0 -2.1,0.9 -2.1,2.1 0,1.2 0.9,2.1 2.1,2.1 h 17.1 c 1.2,0 2.1,-0.9 2.1,-2.1 0,-1.2 -0.9,-2.1 -2.1,-2.1 h -5.2 v -8.8 c 0,-1.1 -0.9,-2.1 -2.1,-2.1 z"
           inkscape:connector-curvature="0" />
        <path
           id="path14"
           d="m 4.6,38 h 6.2 c 1.2,0 2.1,-0.9 2.1,-2.1 0,-1.2 -0.9,-2.1 -2.1,-2.1 H 4.6 c -1.2,0 -2.1,0.9 -2.1,2.1 0,1.2 0.9,2.1 2.1,2.1 z"
           inkscape:connector-curvature="0" />
        <path
           id="path16"
           d="M 4.6,46.8 C 4.6,45.6 3.7,44.7 2.5,44.7 H 2.4 c -1.2,0 -2.1,0.9 -2.1,2.1 0,1.2 0.9,2.1 2.1,2.1 h 0.1 c 1.2,0 2.1,-0.9 2.1,-2.1 z"
           inkscape:connector-curvature="0" />
      </g>
    </g>
  </g>
</svg>
