<svg xmlns="http://www.w3.org/2000/svg" viewBox="0 0 23.865416 15.822083"><path d="M23.786 7.937l-3.07-4.947a.591.591 0 0 0-.475-.265H15.9c-.052-.45-.238-1.243-.82-1.878C14.552.29 13.785 0 12.86 0H4.63a.543.543 0 0 0-.555.556V1.93h-1.64a.543.543 0 0 0-.556.556c0 .318.238.556.555.556h5.768a.543.543 0 0 0 .556-.556.543.543 0 0 0-.556-.556H5.186v-.82h7.673c.608 0 1.085.159 1.428.503.556.556.53 1.429.53 1.455v9.075s-4.075 0-4.128.027a2.684 2.684 0 0 0-2.513-1.72 2.649 2.649 0 0 0-2.487 1.72h-.503V9.79a.543.543 0 0 0-.556-.556H1.138a.543.543 0 0 0-.556.556c0 .317.238.555.556.555H4.1v2.381c0 .318.238.556.556.556h.873c.08 1.402 1.243 2.54 2.672 2.54s2.593-1.138 2.672-2.54h5.371c.08 1.402 1.244 2.54 2.673 2.54 1.428 0 2.593-1.138 2.672-2.54h1.72a.543.543 0 0 0 .555-.556V8.255a.704.704 0 0 0-.079-.318zm-15.61 6.747a1.564 1.564 0 0 1-1.561-1.56c0-.847.714-1.562 1.56-1.562.874 0 1.588.715 1.588 1.561 0 .847-.714 1.561-1.587 1.561zm10.742 0a1.564 1.564 0 0 1-1.561-1.56c0-.847.714-1.562 1.56-1.562.874 0 1.562.715 1.562 1.561 0 .847-.688 1.561-1.561 1.561zm2.513-2.54c-.397-1.005-1.35-1.72-2.487-1.72a2.649 2.649 0 0 0-2.487 1.72h-.503V3.836h3.996l2.222 3.599h-3.995V5.82h.926a.543.543 0 0 0 .556-.556c0-.317-.265-.555-.583-.555h-1.481a.543.543 0 0 0-.556.555V7.99c0 .318.238.556.556.556h5.16v3.598z"/><path d="M4.63 3.863a.543.543 0 0 0-.555.556v2.328H2.037a.543.543 0 0 0-.555.555c0 .318.238.556.555.556h4.525a.543.543 0 0 0 .555-.556.543.543 0 0 0-.555-.555H5.186V4.419a.559.559 0 0 0-.556-.556zM1.138 4.974h1.64a.543.543 0 0 0 .556-.555.543.543 0 0 0-.556-.556h-1.64a.543.543 0 0 0-.556.556c0 .317.238.555.556.555zm0 2.328a.543.543 0 0 0-.556-.555H.556A.543.543 0 0 0 0 7.302c0 .318.238.556.556.556h.026a.543.543 0 0 0 .556-.556z"/></svg>