<?xml version="1.0" encoding="UTF-8" standalone="no"?>
<!-- Created with Inkscape (http://www.inkscape.org/) -->

<svg
   xmlns:dc="http://purl.org/dc/elements/1.1/"
   xmlns:cc="http://creativecommons.org/ns#"
   xmlns:rdf="http://www.w3.org/1999/02/22-rdf-syntax-ns#"
   xmlns:svg="http://www.w3.org/2000/svg"
   xmlns="http://www.w3.org/2000/svg"
   xmlns:sodipodi="http://sodipodi.sourceforge.net/DTD/sodipodi-0.dtd"
   xmlns:inkscape="http://www.inkscape.org/namespaces/inkscape"
   viewBox="0 0 19.049999 19.049999"
   version="1.1"
   id="svg8"
   inkscape:version="0.92.1 r15371"
   sodipodi:docname="clip.svg">
  <defs
     id="defs2" />
  <sodipodi:namedview
     id="base"
     pagecolor="#ffffff"
     bordercolor="#666666"
     borderopacity="1.0"
     inkscape:pageopacity="0.0"
     inkscape:pageshadow="2"
     inkscape:zoom="0.35"
     inkscape:cx="150.28571"
     inkscape:cy="390.28571"
     inkscape:document-units="mm"
     inkscape:current-layer="layer1"
     showgrid="false"
     fit-margin-top="0"
     fit-margin-left="0"
     fit-margin-right="0"
     fit-margin-bottom="0"
     inkscape:window-width="1920"
     inkscape:window-height="1018"
     inkscape:window-x="-8"
     inkscape:window-y="-8"
     inkscape:window-maximized="1" />
  <metadata
     id="metadata5">
    <rdf:RDF>
      <cc:Work
         rdf:about="">
        <dc:format>image/svg+xml</dc:format>
        <dc:type
           rdf:resource="http://purl.org/dc/dcmitype/StillImage" />
        <dc:title></dc:title>
      </cc:Work>
    </rdf:RDF>
  </metadata>
  <g
     inkscape:label="Layer 1"
     inkscape:groupmode="layer"
     id="layer1"
     transform="translate(-66.070239,-233.04643)">
    <g
       id="g12"
       transform="matrix(0.26458333,0,0,0.26458333,62.366072,229.34226)">
      <path
         id="path10"
         d="m 76.8,43.8 c 1.1,1.1 3,1.1 4.1,0 6.8,-6.8 6.8,-17.9 0,-24.7 -6.8,-6.8 -17.9,-6.8 -24.7,0 L 19.1,56.2 c -6.8,6.8 -6.8,17.9 0,24.7 3.4,3.4 7.9,5.1 12.4,5.1 4.5,0 8.9,-1.7 12.4,-5.1 L 69,55.8 v 0 0 c 3.6,-4 3.5,-10.2 -0.3,-14.1 -4,-4 -10.4,-4 -14.4,0 L 33.5,62.4 c -1.1,1.1 -1.1,3 0,4.1 1.1,1.1 3,1.1 4.1,0 L 58.2,45.9 c 1.7,-1.7 4.5,-1.7 6.2,0 1.7,1.7 1.7,4.5 0,6.2 v 0 L 39.7,76.8 c -4.5,4.5 -11.9,4.5 -16.5,0 -4.5,-4.5 -4.5,-11.9 0,-16.5 L 60.3,23.2 c 4.5,-4.5 11.9,-4.5 16.5,0 4.6,4.5 4.5,11.9 0,16.5 -1.2,1.1 -1.2,3 0,4.1 z"
         inkscape:connector-curvature="0" />
    </g>
  </g>
</svg>
