<?xml version="1.0" encoding="UTF-8" standalone="no"?>
<!-- Created with Inkscape (http://www.inkscape.org/) -->

<svg
   xmlns:dc="http://purl.org/dc/elements/1.1/"
   xmlns:cc="http://creativecommons.org/ns#"
   xmlns:rdf="http://www.w3.org/1999/02/22-rdf-syntax-ns#"
   xmlns:svg="http://www.w3.org/2000/svg"
   xmlns="http://www.w3.org/2000/svg"
   xmlns:sodipodi="http://sodipodi.sourceforge.net/DTD/sodipodi-0.dtd"
   xmlns:inkscape="http://www.inkscape.org/namespaces/inkscape"
   viewBox="0 0 6.4293747 6.8527083"
   version="1.1"
   id="svg34"
   inkscape:version="0.92.1 r15371"
   sodipodi:docname="cube.svg">
  <defs
     id="defs28" />
  <sodipodi:namedview
     id="base"
     pagecolor="#ffffff"
     bordercolor="#666666"
     borderopacity="1.0"
     inkscape:pageopacity="0.0"
     inkscape:pageshadow="2"
     inkscape:zoom="2.8"
     inkscape:cx="30.504551"
     inkscape:cy="-84.554414"
     inkscape:document-units="mm"
     inkscape:current-layer="layer1"
     showgrid="false"
     fit-margin-top="0"
     fit-margin-left="0"
     fit-margin-right="0"
     fit-margin-bottom="0"
     inkscape:window-width="1920"
     inkscape:window-height="1018"
     inkscape:window-x="-8"
     inkscape:window-y="-8"
     inkscape:window-maximized="1" />
  <metadata
     id="metadata31">
    <rdf:RDF>
      <cc:Work
         rdf:about="">
        <dc:format>image/svg+xml</dc:format>
        <dc:type
           rdf:resource="http://purl.org/dc/dcmitype/StillImage" />
        <dc:title></dc:title>
      </cc:Work>
    </rdf:RDF>
  </metadata>
  <g
     inkscape:label="Layer 1"
     inkscape:groupmode="layer"
     id="layer1"
     transform="translate(-53.481741,-33.526027)">
    <g
       id="g61"
       transform="matrix(0.26458333,0,0,0.26458333,52.423407,-237.2221)">
      <g
         id="g59"
         transform="translate(-2.7640848e-5,-3.9608678)">
        <g
           id="g57"
           transform="translate(-193.99997,107.96089)">
          <path
             id="path55"
             d="m 210.2,919.4 c 0,0 0,0 0,0 0,0 0,0 0,0 -0.1,0 -0.1,0 -0.2,0 l -11.6,4.9 c -0.2,0 -0.4,0.3 -0.4,0.5 v 15 c 0,0.1 0,0.1 0,0.2 0,0 0,0 0,0 0,0 0,0 0,0 0.1,0.1 0.1,0.2 0.3,0.2 l 11.6,4.9 c 0.1,0.1 0.2,0.1 0.3,0.1 0.1,0 0.2,0 0.2,-0.1 l 11.6,-5 c 0.2,-0.1 0.3,-0.2 0.3,-0.4 0,0 0,0 0,0 0,0 0,0 0,0 0,0 0,0 0,0 0,0 0,0 0,0 v -15 c 0,-0.2 -0.2,-0.5 -0.4,-0.5 l -11.6,-4.9 c 0,0 0,0 0,0 0,0 0,0 0,0 0,0 0,0 0,0 0,0 0,0 0,0 0,0.1 0,0.1 -0.1,0.1 0.1,0 0.1,0 0,0 0.1,0 0,0 0,0 0,0 0,0 0,0 z m 0,1 2.5,1 -10.4,4.4 c 0,0 0,0 0,0 l -2.5,-1 z m 3.7,1.6 3,1.3 -10.6,4.5 c -0.2,0.1 -0.3,0.3 -0.3,0.5 0,0 0,0 0,0.1 v 5.3 l -1.1,-1.6 c -0.1,-0.2 -0.4,-0.3 -0.6,-0.2 l -1.3,0.6 v -5.9 z m 4.3,1.8 2.5,1 -10.4,4.5 -2.5,-1 10.4,-4.5 c -0.1,0 0,0 0,0 z m -19.2,1.8 3,1.3 v 6.5 c 0,0.3 0.2,0.5 0.5,0.5 0.1,0 0.2,0 0.2,-0.1 l 1.6,-0.8 1.7,2.6 c 0.1,0.1 0.1,0.2 0.3,0.2 0,0 0,0 0,0 0,0 0,0 0,0 0,0 0.1,0 0.1,0 0,0 0,0 0.1,0 0,0 0,0 0,0 0,0 0,0 0.1,0 0,0 0,0 0,0 0,0 0,0 0,0 0.2,-0.1 0.4,-0.3 0.3,-0.5 V 929 l 2.7,1.1 V 944 l -10.7,-4.6 v -13.8 z m 22.4,0 v 13.9 l -10.7,4.6 v -13.9 z m -6.3,11.5 c 0,0 0,0 0,0 -0.1,0 -0.1,0 -0.2,0 l -2.9,1.2 c -0.3,0.1 -0.4,0.4 -0.3,0.7 0.1,0.3 0.4,0.4 0.7,0.3 l 2.9,-1.2 c 0.3,-0.1 0.4,-0.4 0.3,-0.6 -0.1,-0.3 -0.3,-0.4 -0.5,-0.4 z m 2.9,0.8 c -0.1,0 -0.1,0 -0.2,0 l -2.9,1.2 -2.9,1.2 c -0.3,0.1 -0.4,0.4 -0.3,0.7 0.1,0.3 0.4,0.4 0.7,0.3 l 2.9,-1.2 2.9,-1.2 c 0.3,-0.1 0.4,-0.4 0.3,-0.7 -0.1,-0.2 -0.3,-0.3 -0.5,-0.3 z"
             inkscape:connector-curvature="0" />
        </g>
      </g>
    </g>
  </g>
</svg>
