<svg xmlns="http://www.w3.org/2000/svg" viewBox="0 0 6.4293747 6.8527083"><path d="M3.228.026h-.053L.105 1.323c-.052 0-.105.08-.105.132v4.022c.026.026.026.053.08.053l3.069 1.296c.026.027.052.027.079.027.026 0 .053 0 .053-.027L6.35 5.503c.053-.026.08-.053.08-.105v-3.97c0-.052-.054-.132-.106-.132L3.254 0c0 .026 0 .026-.026.026.026 0 .026 0 0 0 .026 0 0 0 0 0zm0 .265l.661.265L1.138 1.72l-.662-.265zm.979.423L5 1.058 2.196 2.25a.146.146 0 0 0-.08.132V3.81l-.29-.423c-.027-.053-.106-.08-.16-.053l-.343.159V1.93zm1.138.477l.661.264-2.752 1.19-.661-.264 2.752-1.19c-.027 0 0 0 0 0zm-5.08.476l.793.344v1.72c0 .079.053.132.133.132.026 0 .053 0 .053-.027l.423-.211.45.688c.026.026.026.053.079.053h.079c.053-.027.106-.08.08-.133V2.566l.714.292v3.677L.24 5.318V1.667zm5.926 0v3.678l-2.83 1.217V2.884zM4.524 4.71h-.053l-.767.317c-.08.027-.106.106-.08.185.027.08.107.106.186.08l.767-.318c.08-.026.106-.106.08-.159-.027-.079-.08-.105-.133-.105zm.768.211h-.053l-.768.318-.767.317c-.08.027-.106.106-.08.185.027.08.107.106.186.08l.767-.318.768-.317c.079-.027.105-.106.079-.185a.146.146 0 0 0-.132-.08z"/></svg>