<?xml version="1.0" encoding="UTF-8" standalone="no"?>
<!-- Created with Inkscape (http://www.inkscape.org/) -->

<svg
   xmlns:dc="http://purl.org/dc/elements/1.1/"
   xmlns:cc="http://creativecommons.org/ns#"
   xmlns:rdf="http://www.w3.org/1999/02/22-rdf-syntax-ns#"
   xmlns:svg="http://www.w3.org/2000/svg"
   xmlns="http://www.w3.org/2000/svg"
   xmlns:sodipodi="http://sodipodi.sourceforge.net/DTD/sodipodi-0.dtd"
   xmlns:inkscape="http://www.inkscape.org/namespaces/inkscape"
   viewBox="0 0 23.779427 16.950346"
   version="1.1"
   id="svg29"
   inkscape:version="0.92.1 r15371"
   sodipodi:docname="cup-check.svg">
  <defs
     id="defs23" />
  <sodipodi:namedview
     id="base"
     pagecolor="#ffffff"
     bordercolor="#666666"
     borderopacity="1.0"
     inkscape:pageopacity="0.0"
     inkscape:pageshadow="2"
     inkscape:zoom="2.8"
     inkscape:cx="31.016237"
     inkscape:cy="19.871377"
     inkscape:document-units="mm"
     inkscape:current-layer="g76"
     showgrid="false"
     fit-margin-top="0"
     fit-margin-left="0"
     fit-margin-right="0"
     fit-margin-bottom="0"
     inkscape:window-width="1920"
     inkscape:window-height="1018"
     inkscape:window-x="-8"
     inkscape:window-y="-8"
     inkscape:window-maximized="1" />
  <metadata
     id="metadata26">
    <rdf:RDF>
      <cc:Work
         rdf:about="">
        <dc:format>image/svg+xml</dc:format>
        <dc:type
           rdf:resource="http://purl.org/dc/dcmitype/StillImage" />
        <dc:title></dc:title>
      </cc:Work>
    </rdf:RDF>
  </metadata>
  <g
     inkscape:label="Layer 1"
     inkscape:groupmode="layer"
     id="layer1"
     transform="translate(-125.69361,-110.12006)">
    <g
       id="g53"
       transform="matrix(0.26458333,0,0,0.26458333,124.34424,105.32449)">
      <g
         id="g51">
        <path
           id="path33"
           d="m 78.1,53.8 c 0.1,0 0.1,0 0.1,0 0,0.1 0,0.1 -0.1,0 0,0.1 0,0.1 0,0 -0.2,-0.1 -0.4,-0.1 -0.5,-0.1 v 0 c 0.1,0 0.2,0.1 0.5,0.1 z"
           class="st0"
           inkscape:connector-curvature="0"
           style="fill:none" />
        <path
           id="path35"
           d="m 46.7,22 c 0,0 0,0 0,0 -0.1,0 -0.1,0 -0.1,0 0,0 -0.1,0 -0.1,0 v 0 c -0.1,0 -0.1,0 -0.2,0 0.1,-0.1 0.2,0 0.4,0 z"
           class="st0"
           inkscape:connector-curvature="0"
           style="fill:none" />
        <polygon
           id="polygon37"
           points=""
           class="st0"
           style="fill:none" />
        <path
           id="path39"
           d="m 78.6,54 c 0.1,0 0.1,0 0,0 0,0 -0.1,0 -0.4,-0.1 0.2,0.1 0.4,0.1 0.4,0.1 z"
           class="st0"
           inkscape:connector-curvature="0"
           style="fill:none" />
        <path
           id="path41"
           d="m 23.9,29 c -0.5,0.8 -0.8,1.7 -0.9,2.6 -0.1,1 -0.3,2.1 -0.4,3.1 -0.2,2.3 -0.4,4.6 -0.5,6.9 -0.2,4.6 -0.3,9.1 -0.3,13.7 1.5,0.5 2.9,0.9 4.4,1.4 5.2,1.5 10.6,2.6 16,3.1 4.9,0.4 9.8,0.3 14.6,-0.9 2.5,-0.6 5,-1.5 7.3,-2.7 2.2,-1.1 4.2,-2.6 5.8,-4.5 -0.6,-2.5 -1.3,-4.9 -2,-7.4 -0.7,-2.6 -1.5,-5.2 -2.3,-7.8 -0.3,-1 -0.6,-2 -1,-3.1 -0.3,-0.9 -0.6,-1.9 -0.9,-2.8 -0.5,-1.1 -1.4,-2 -2.3,-2.8 -2,-1.7 -4.6,-2.8 -7,-3.7 -2.5,-0.9 -5.1,-1.6 -7.8,-2.1 -0.1,0 -0.2,0 -0.3,-0.1 -0.1,0 -0.1,0 -0.1,0 0,0 -0.1,0 -0.1,0 0,0 -0.1,0 -0.1,0 -1.5,-0.3 -3.1,-0.5 -4.6,-0.7 2.3,1.1 4.4,2.6 6.5,4.1 0.3,0.2 0,0.6 -0.3,0.5 C 44.2,24 40.8,22.1 37.1,21 c -1.2,0.2 -2.3,0.5 -3.4,0.8 -1.9,0.9 -3.8,1.9 -5.5,3.1 -1.6,1 -3.2,2.4 -4.3,4.1 z"
           class="st0"
           inkscape:connector-curvature="0"
           style="fill:none" />
        <path
           id="path43"
           d="m 90.3,63.4 c -1.5,1.1 -3.1,2 -4.7,2.9 -1.9,1 -3.9,2 -5.9,2.8 -4.2,1.8 -8.6,3.4 -13.1,4.6 -5,1.4 -10,2.8 -15.2,3.5 -4.3,0.6 -9.1,0.8 -12.9,-1.7 0.3,0.3 0.5,0.5 0.8,0.8 0.6,0.6 1.3,1 2,1.4 1.8,1 4,1.4 6.1,1.5 2.7,0.1 5.5,-0.2 8.2,-0.7 2.7,-0.5 5.4,-1.1 8.1,-1.8 2.7,-0.7 5.3,-1.4 8,-2.3 2.6,-0.9 5.2,-1.8 7.8,-2.9 2.5,-1 5,-2.2 7.4,-3.4 1.2,-0.6 2.4,-1.3 3.5,-2 0.5,-0.3 1,-0.6 1.4,-1 0.3,-0.2 0.4,-0.6 0.5,-0.9 0,0 0,0 0,0 0,0 0,0 0,0 0.1,-0.3 0.1,-0.4 0.1,-0.4 0,0 0,0.1 -0.1,0.4 0,0 0,0 0,-0.1 0,-0.1 0.1,-0.1 0.1,-0.2 0,0.1 -0.1,0.1 -0.1,0.2 0.3,-0.8 0.4,-2 0.4,-3 -0.7,1 -1.5,1.7 -2.4,2.3 z"
           class="st0"
           inkscape:connector-curvature="0"
           style="fill:none" />
        <path
           id="path45"
           d="m 21.5,32 c 0.1,-1.1 0.3,-2.1 0.8,-3.1 1.1,-2.2 3,-3.9 5,-5.3 -2.1,0.7 -4.2,1.5 -6.4,2.2 -1,0.4 -2.1,0.9 -3,1.6 -0.8,0.6 -1.5,1.1 -2.2,1.8 -0.9,0.8 -1.6,1.8 -2.3,2.7 -1.6,2.2 -2.7,4.7 -3.6,7.3 -0.9,2.6 -1.6,5.3 -1.9,8 0.1,0.6 0.6,1.1 1.1,1.6 0.6,0.6 1.3,1.1 2,1.6 0,0 0,0 0,0 0,0 0,0 0,0 0,0 0,0 0,0 0,0 0,0 0,0 0,0 0,0 0,0 0,0 0,0 0,0 0,0 0,0 0,0 0,0 0,0 0,0 0,0 0,0 0,0 0,0 0,0 0,0 1.4,1 2.9,1.8 4.4,2.5 1.6,0.7 3.2,1.3 4.8,1.8 0,-1.8 0,-3.6 0.1,-5.4 0.1,-4.7 0.2,-9.5 0.7,-14.2 0.2,-1 0.3,-2 0.5,-3.1 z"
           class="st0"
           inkscape:connector-curvature="0"
           style="fill:none" />
        <path
           id="path47"
           d="m 42.2,75.7 c 1.9,0.5 3.9,0.6 5.9,0.5 2.3,-0.1 4.5,-0.5 6.8,-1 2.6,-0.5 5.1,-1.2 7.6,-1.8 2.5,-0.7 5.1,-1.4 7.6,-2.2 4.6,-1.5 9.1,-3.3 13.4,-5.4 1.7,-0.9 3.4,-1.8 5,-2.9 1.1,-0.7 2.2,-1.5 3.1,-2.6 0.3,-0.4 0.2,-0.8 -0.2,-1.1 -0.5,-0.4 -1.1,-0.7 -1.7,-1 -1.2,-0.6 -2.5,-1.2 -3.7,-1.7 -2.4,-1 -5,-1.8 -7.5,-2.5 0,0 0.1,0 0.1,0 -0.1,0 -0.2,0 -0.2,-0.1 -0.1,0 -0.3,-0.1 -0.4,-0.1 -0.1,0 -0.2,-0.1 -0.3,-0.1 0,0 0,0 0,0 -2.2,-0.6 -4.4,-1.2 -6.7,-1.7 -1,1.6 -2.5,2.9 -4.1,3.9 -4.3,3 -9.5,4.7 -14.6,5.4 -5.5,0.8 -11,0.4 -16.5,-0.5 C 30.7,60 25.6,58.7 20.7,57 c 1.1,1 2.2,2.1 3.3,3.1 3,2.9 6,5.7 9,8.6 1.3,1.2 2.6,2.5 4,3.7 0.6,0.6 1.2,1.2 1.9,1.7 1,0.7 2.2,1.2 3.3,1.6 z"
           class="st0"
           inkscape:connector-curvature="0"
           style="fill:none" />
        <path
           id="path49"
           d="M 94.9,60.2 C 94.8,59.7 94.7,59.4 94.4,59 93.7,58 92.5,57.2 91.5,56.6 90.3,55.9 89.1,55.4 87.8,54.8 85.2,53.7 82.5,52.8 79.8,52.1 77,51.3 74.6,50.8 72,50.1 70.8,45.2 69.5,40 68.1,35.2 67.5,33.3 67,31.4 66.3,29.6 65.2,27.2 63.2,25.5 61,24.2 58.6,22.8 56,21.8 53.4,21 48.9,19.6 44.2,18.8 39.5,18.2 c -0.7,-0.1 -1.4,-0.1 -2.1,0 -0.5,0.1 -0.9,0.2 -1.4,0.3 -1.3,0.3 -2.6,0.6 -3.9,0.9 -0.9,0.2 -1.7,0.5 -2.6,0.8 -1.8,0.5 -3.6,1.1 -5.4,1.7 -2.3,0.8 -4.7,1.5 -6.8,2.7 -0.8,0.5 -1.6,1 -2.3,1.6 -0.7,0.6 -1.4,1.3 -2.1,2 -0.4,0.4 -0.7,0.8 -1,1.3 -0.8,1 -1.5,2.1 -2.2,3.3 -1.4,2.4 -2.4,5 -3.2,7.7 -0.7,2.3 -1.2,4.6 -1.4,7 0.2,0.8 0.4,1.5 0.8,2.2 0.4,0.6 0.9,1.2 1.4,1.7 0.9,0.9 2,1.7 3.1,2.4 1.2,0.7 2.4,1.4 3.6,2 0.7,0.4 1.4,0.7 2.1,1 3.8,4.1 7.7,8.2 11.6,12.2 2.2,2.2 4.4,4.4 6.6,6.6 0.7,0.6 1.3,1.3 2,1.9 1,0.9 2,1.8 3.1,2.5 4.6,2.8 10.4,2.4 15.6,1.6 2.7,-0.5 5.3,-1.1 8,-1.8 2.7,-0.7 5.3,-1.4 7.9,-2.3 5.2,-1.7 10.3,-3.7 15.2,-6.1 1.1,-0.6 2.3,-1.2 3.4,-1.8 1.1,-0.6 2.2,-1.2 3.2,-2 0.4,-0.3 0.8,-0.6 1.1,-1 0.6,-0.9 0.9,-1.9 1.1,-3 0,0 0,0 0,0 0,0 0,0 0,0 0,0 0,0 0,0 0,0 0,0 0,-0.1 0,0 0,0 0,0 0,0 0,-0.1 0,-0.1 0.1,-1.3 0.1,-2.3 0,-3.2 z M 78.6,54 c -0.1,0 -0.2,-0.1 -0.4,-0.1 0.3,0.1 0.4,0.1 0.4,0.1 0.1,0 0.1,0 0,0 z m -0.5,-0.2 c 0,0.1 0,0.1 0,0 0.1,0 0.1,0 0.1,0 0,0.1 -0.1,0.1 -0.1,0 -0.2,-0.1 -0.4,-0.1 -0.5,-0.1 v 0 c 0.1,0 0.3,0.1 0.5,0.1 z M 46.5,22 c 0,0 0,0 0,0 0.1,0 0.2,0 0.2,0 0,0 0,0 0,0 -0.1,0 -0.3,-0.1 -0.4,-0.1 0,0 0.1,0 0.2,0.1 z M 33.7,21.7 c 1.1,-0.3 2.3,-0.6 3.4,-0.8 3.7,1.1 7.1,3 10.5,4.8 0.3,0.2 0.6,-0.3 0.3,-0.5 -2,-1.6 -4.2,-3 -6.5,-4.1 1.5,0.2 3.1,0.5 4.6,0.7 0,0 0.1,0 0.1,0 0,0 0.1,0 0.1,0 0,0 0.1,0 0.1,0 0.1,0 0.2,0 0.3,0.1 2.6,0.5 5.3,1.2 7.8,2.1 2.5,0.9 5,2 7,3.7 0.9,0.8 1.8,1.7 2.3,2.8 0.4,0.9 0.6,1.9 0.9,2.8 0.3,1 0.6,2 1,3.1 0.8,2.6 1.5,5.2 2.3,7.8 0.7,2.4 1.3,4.9 2,7.4 -1.5,1.9 -3.6,3.4 -5.8,4.5 -2.3,1.2 -4.7,2.1 -7.3,2.7 -4.8,1.2 -9.7,1.4 -14.6,0.9 -5.4,-0.5 -10.8,-1.6 -16,-3.1 -1.5,-0.4 -3,-0.9 -4.4,-1.4 0,-4.6 0.1,-9.1 0.3,-13.7 0.1,-2.3 0.3,-4.6 0.5,-6.9 0.1,-1 0.2,-2.1 0.4,-3.1 0.1,-0.9 0.4,-1.8 0.9,-2.6 1,-1.7 2.7,-3.1 4.3,-4.2 1.8,-1.1 3.6,-2.1 5.5,-3 z M 11.2,50.5 c 0,0 0,0 0,0 0,0 0,0 0,0 0,0 0,0 0,0 z m 9.2,4.3 c -1.6,-0.6 -3.2,-1.2 -4.8,-1.8 -1.5,-0.6 -3,-1.5 -4.4,-2.5 0,0 0,0 0,0 0,0 0,0 0,0 0,0 0,0 0,0 0,0 0,0 0,0 0,0 0,0 0,0 0,0 0,0 0,0 0,0 0,0 0,0 0,0 0,0 0,0 0,0 0,0 0,0 0,0 0,0 0,0 -0.7,-0.5 -1.4,-1 -2,-1.6 -0.4,-0.4 -0.9,-1 -1.1,-1.6 0.3,-2.7 1,-5.4 1.9,-8 0.9,-2.6 2,-5 3.6,-7.3 0.7,-1 1.4,-1.9 2.3,-2.7 0.7,-0.6 1.4,-1.2 2.2,-1.8 0.9,-0.7 2,-1.1 3,-1.6 2.1,-0.7 4.2,-1.5 6.4,-2.2 -2,1.4 -3.9,3.1 -5,5.3 -0.5,1 -0.7,2 -0.8,3.1 -0.1,1.1 -0.3,2.1 -0.4,3.2 -0.4,4.7 -0.6,9.5 -0.7,14.2 -0.2,1.7 -0.2,3.5 -0.2,5.3 z m 12.6,14 c -3,-2.8 -6,-5.7 -9,-8.6 -1.1,-1 -2.2,-2.1 -3.3,-3.1 4.9,1.7 10,3 15.1,3.8 5.4,0.9 11,1.2 16.5,0.5 5.1,-0.7 10.3,-2.4 14.6,-5.4 1.5,-1.1 3.1,-2.3 4.1,-3.9 2.2,0.5 4.5,1.1 6.7,1.7 0,0 0,0 0,0 0.1,0 0.2,0 0.3,0.1 0.1,0 0.3,0.1 0.4,0.1 0.1,0 0.2,0.1 0.2,0.1 0,0 -0.1,0 -0.1,0 2.5,0.7 5,1.5 7.5,2.5 1.3,0.5 2.5,1 3.7,1.7 0.6,0.3 1.1,0.6 1.7,1 0.4,0.3 0.5,0.7 0.2,1.1 -0.8,1 -2,1.8 -3.1,2.6 -1.6,1.1 -3.3,2 -5,2.9 -4.3,2.2 -8.8,4 -13.4,5.4 -2.5,0.8 -5.1,1.5 -7.6,2.2 -2.5,0.7 -5.1,1.3 -7.6,1.8 -2.2,0.5 -4.5,0.8 -6.8,1 -2,0.1 -4,0 -5.9,-0.5 C 41,75.5 39.9,75 38.9,74.3 38.2,73.8 37.6,73.2 37,72.6 35.7,71.3 34.4,70 33,68.8 Z m 59.3,-4.5 c 0,-0.1 0.1,-0.1 0.1,-0.2 0,0 0,0.1 -0.1,0.2 0,0 0,0.1 0,0 0.1,-0.2 0.1,-0.3 0.1,-0.3 0,0 0,0.1 -0.1,0.3 0,0 0,0.1 0,0 0,0.1 0,0.1 0,0 -0.2,0.4 -0.3,0.7 -0.6,0.9 -0.4,0.4 -0.9,0.7 -1.4,1 -1.1,0.7 -2.3,1.4 -3.5,2 -2.4,1.2 -4.9,2.4 -7.4,3.4 -2.5,1.1 -5.1,2 -7.8,2.9 -2.6,0.9 -5.3,1.6 -8,2.3 -2.7,0.7 -5.3,1.3 -8.1,1.8 -2.7,0.5 -5.4,0.8 -8.2,0.7 -2.1,-0.1 -4.2,-0.5 -6.1,-1.5 -0.7,-0.4 -1.4,-0.9 -2,-1.4 -0.3,-0.3 -0.5,-0.5 -0.8,-0.8 3.8,2.4 8.6,2.3 12.9,1.7 5.1,-0.7 10.2,-2.2 15.2,-3.5 4.5,-1.2 8.9,-2.8 13.1,-4.6 2,-0.9 4,-1.8 5.9,-2.8 1.6,-0.9 3.2,-1.8 4.7,-2.9 0.9,-0.6 1.7,-1.3 2.4,-2.2 0.2,1 0,2.1 -0.3,3 z"
           inkscape:connector-curvature="0" />
      </g>
    </g>
    <g
       id="g76"
       transform="matrix(0.06718138,0,0,0.06502398,80.086468,130.30888)">
      <path
         id="path74"
         d="m 939.89016,-273.86437 c -33.91418,0 -61.38188,26.75329 -61.38188,59.7854 0,33.03212 27.4677,59.78541 61.38188,59.78541 33.9142,0 61.38194,-26.75329 61.38194,-59.78541 0,-33.03211 -27.46774,-59.7854 -61.38194,-59.7854 z m 22.42261,40.53941 c 5.74579,-0.13649 8.68876,6.68833 4.62467,10.64673 l -29.70996,28.93722 c -1.82184,1.77446 -4.90494,1.77446 -6.72678,0 l -14.99512,-14.8781 c -6.16622,-5.86934 2.94296,-14.7416 8.96905,-8.73576 l 8.40847,8.18977 c 0.56056,0.54599 1.68169,0.54599 2.24226,0 l 22.98318,-22.3854 c 0.98098,-1.09197 2.52254,-1.77446 4.20423,-1.77446 z"
         inkscape:connector-curvature="0"
         style="stroke-width:1.3830682" />
    </g>
  </g>
  <style
     id="style31"
     type="text/css">
	.st0{fill:none;}
</style>
</svg>
