<?xml version="1.0" encoding="utf-8"?>
<!-- Generator: Adobe Illustrator 20.1.0, SVG Export Plug-In . SVG Version: 6.00 Build 0)  -->
<svg version="1.1" id="Слой_1" xmlns="http://www.w3.org/2000/svg" xmlns:xlink="http://www.w3.org/1999/xlink" x="0px" y="0px"
	 viewBox="0 0 100 125" style="enable-background:new 0 0 100 125;" xml:space="preserve">
<path d="M64.7,13.7c-1.3-0.5-2.7,0.2-3.2,1.5c-0.5,1.3,0.2,2.7,1.5,3.2c14.1,5.4,23.6,19.1,23.6,34.3c0,20.2-16.4,36.6-36.6,36.6
	S13.4,72.8,13.4,52.6c0-18.3,13.5-33.5,31-36.2l-1.6,2c-0.9,1.1-0.7,2.6,0.4,3.5c0.5,0.4,1,0.6,1.6,0.6c0.7,0,1.5-0.3,1.9-0.9
	l5.3-6.5c0,0,0,0,0,0c0.1-0.1,0.2-0.2,0.2-0.3c0,0,0-0.1,0.1-0.1c0-0.1,0.1-0.2,0.1-0.3c0-0.1,0-0.1,0.1-0.2c0-0.1,0-0.2,0-0.3
	c0-0.1,0-0.2,0-0.2c0,0,0-0.1,0-0.1c0,0,0-0.1,0-0.1c0-0.1,0-0.2,0-0.3c0-0.1,0-0.1,0-0.2c0-0.1-0.1-0.2-0.1-0.3c0,0,0-0.1-0.1-0.1
	c0-0.1-0.1-0.2-0.2-0.3c0,0,0-0.1-0.1-0.1c-0.1-0.1-0.2-0.2-0.2-0.3c0,0,0,0-0.1-0.1c-0.1-0.1-0.1-0.1-0.2-0.2l-6.5-5.3
	c-1.1-0.9-2.6-0.7-3.5,0.4c-0.9,1.1-0.7,2.6,0.4,3.5l1.7,1.3C23.7,14.6,8.4,31.9,8.4,52.6c0,22.9,18.7,41.6,41.6,41.6
	s41.6-18.7,41.6-41.6C91.6,35.4,80.8,19.8,64.7,13.7z"/>
</svg>
