<?xml version="1.0" encoding="utf-8"?>
<!-- Generator: Adobe Illustrator 20.1.0, SVG Export Plug-In . SVG Version: 6.00 Build 0)  -->
<svg version="1.1" id="Слой_1" xmlns="http://www.w3.org/2000/svg" xmlns:xlink="http://www.w3.org/1999/xlink" x="0px" y="0px"
	 viewBox="0 0 100 125" style="enable-background:new 0 0 100 125;" xml:space="preserve">
<path d="M71.4,28.4C66.5,21.3,58.7,17.2,50,17.2s-16.5,4.1-21.4,11.2s-6,16-3,24c0.8,2.2,2.1,4.3,3.8,6.3L50,82.8l20.6-24.2l0,0
	c1.7-2,3-4.1,3.8-6.3C77.4,44.4,76.3,35.5,71.4,28.4z M50,52.2c-6.2,0-11.2-4.9-11.2-11s5-11,11.2-11s11.2,4.9,11.2,11
	S56.2,52.2,50,52.2z"/>
</svg>
