<?xml version="1.0" encoding="utf-8"?>
<!-- Generator: Adobe Illustrator 20.1.0, SVG Export Plug-In . SVG Version: 6.00 Build 0)  -->
<svg version="1.1" id="Слой_1" xmlns="http://www.w3.org/2000/svg" xmlns:xlink="http://www.w3.org/1999/xlink" x="0px" y="0px"
	 viewBox="0 0 60 75" style="enable-background:new 0 0 60 75;" xml:space="preserve">
<g>
	<path d="M50.8,16.2c-1.5-2.1-3.6-3.4-6.2-4c0.5-2.9-0.7-7.6-1.4-8.7c-0.1-0.1-0.2-0.2-0.3-0.3C41.4,1.1,37.3,0,30.5,0
		c-0.1,0-0.2,0-0.4,0c-6.8,0-10.9,1.1-12.4,3.2c-0.1,0.1-0.2,0.2-0.3,0.3c-0.7,1.1-1.9,5.8-1.4,8.7c-2.6,0.6-4.7,1.9-6.2,4
		C4.5,23.5,7,38.3,9.5,52.6c0.4,2.2,0.8,4.4,1.1,6.6c0.1,0.5,0.5,0.8,1,0.8h6c0.3,0,0.6-0.1,0.8-0.4c0.2-0.2,0.3-0.5,0.2-0.8
		L18,55.6c3.7,1.1,9.4,1.3,11.7,1.4h0.1H31h0.1c2.4,0,8-0.2,11.7-1.4l-0.6,3.2c-0.1,0.3,0,0.6,0.2,0.8s0.5,0.4,0.8,0.4h6
		c0.5,0,0.9-0.4,1-0.8c0.3-2.1,0.7-4.3,1.1-6.6C53.7,38.3,56.2,23.5,50.8,16.2z M18.1,12.2c-0.2-0.9-0.1-2.3,0.1-3.8
		c1.1,1.8,3.1,3.5,5.2,5L18.1,12.2z M21.6,9.3C23.5,7.9,27.5,7,30.4,7s6.9,0.9,8.8,2.3c-2.2,2.2-5.7,4.4-8.8,5.6
		C27.2,13.8,23.8,11.5,21.6,9.3z M42.5,8.4c0.2,1.4,0.3,2.9,0.1,3.8l-5.3,1.2C39.4,11.9,41.4,10.2,42.5,8.4z M30.2,2.1
		c0.1,0,0.1,0,0.2,0c9.6,0,11,2.1,11.2,3c0.1,0.8-0.3,1.8-1.1,2.8c-2.5-2-7.3-2.8-10.2-2.8S22.7,6,20.2,7.9c-0.8-1-1.2-2-1.1-2.8
		C19.3,4.2,20.7,2.1,30.2,2.1z M12.4,58c-0.1-0.7-0.2-1.3-0.3-2H16l0.4,2H12.4z M17,45.6c-0.9-5.6-1.8-12.8-0.5-19.3
		c1.2,3.4,1.9,6.7,2,12.6c0,1.3-0.2,2.5-0.6,3.7L17,45.6z M30.3,55c-8.2,0-12.9-1.3-13.7-2l0.8-2.4C20.3,51.5,25,52,30.3,52
		s10.1-0.5,12.9-1.4L44,53C43.2,53.7,38.6,55,30.3,55z M43.7,45.6l-1-3c-0.4-1.2-0.6-2.5-0.6-3.7c0.1-5.9,0.8-9.2,2-12.6
		C45.5,32.8,44.6,39.9,43.7,45.6z M44.4,58l0.4-2h3.9c-0.1,0.7-0.2,1.3-0.3,2H44.4z M49.2,52.3c-0.1,0.6-0.2,1.2-0.3,1.7h-3.2
		c0.2-0.3,0.4-0.6,0.4-1c0-0.1,0-0.2-0.1-0.3l-1-3v-0.1c0.1-0.8,0.3-1.7,0.4-2.6c1-6.8,2.5-16.1-0.2-24.2c-0.1-0.4-0.5-0.7-0.9-0.7
		s-0.8,0.2-1,0.6c-1.9,4.8-3.1,8.3-3.3,16.2c0,1.5,0.2,3,0.7,4.4l1.8,5.4C40,49.5,35.3,50,30.3,50s-9.6-0.5-12.3-1.3l1.8-5.4
		c0.5-1.4,0.7-2.9,0.7-4.4c-0.2-7.9-1.3-11.4-3.3-16.2c-0.2-0.4-0.5-0.6-1-0.6c-0.4,0-0.8,0.3-0.9,0.7C12.6,31,14,40.2,15.1,47
		c0.1,0.9,0.3,1.8,0.4,2.6c0,0.1,0,0.1,0,0.1l-1,3c0,0.1-0.1,0.2-0.1,0.3c0,0.4,0.1,0.7,0.4,1h-3.2c-0.1-0.6-0.2-1.2-0.3-1.7
		C9.2,39,6.6,24,11.5,17.4c1.4-1.9,3.3-3,5.8-3.3l8,1.9v16c0,0.6,0.4,1,1,1s1-0.4,1-1V16.4l2.8,0.6h0.1h0.1h0.1h0.1l2.8-0.6V32
		c0,0.6,0.4,1,1,1s1-0.4,1-1V15.9l8-1.9c2.5,0.4,4.5,1.5,5.8,3.3C54.1,24,51.5,39,49.2,52.3z"/>
</g>
</svg>
