<svg xmlns="http://www.w3.org/2000/svg" viewBox="0 0 100 125"><path d="M64.7 13.7c-1.3-.5-2.7.2-3.2 1.5s.2 2.7 1.5 3.2c14.1 5.4 23.6 19.1 23.6 34.3 0 20.2-16.4 36.6-36.6 36.6S13.4 72.8 13.4 52.6c0-18.3 13.5-33.5 31-36.2l-1.6 2c-.9 1.1-.7 2.6.4 3.5.5.4 1 .6 1.6.6.7 0 1.5-.3 1.9-.9l5.3-6.5c.1-.1.2-.2.2-.3 0 0 0-.1.1-.1 0-.1.1-.2.1-.3 0-.1 0-.1.1-.2V13c0-.1-.1-.2-.1-.3 0 0 0-.1-.1-.1 0-.1-.1-.2-.2-.3 0 0 0-.1-.1-.1-.1-.1-.2-.2-.2-.3l-.1-.1-.2-.2L45 6.3c-1.1-.9-2.6-.7-3.5.4-.9 1.1-.7 2.6.4 3.5l1.7 1.3C23.7 14.6 8.4 31.9 8.4 52.6c0 22.9 18.7 41.6 41.6 41.6s41.6-18.7 41.6-41.6c0-17.2-10.8-32.8-26.9-38.9z"/></svg>