<?xml version="1.0" encoding="UTF-8" standalone="no"?>
<!-- Created with Inkscape (http://www.inkscape.org/) -->

<svg
   xmlns:dc="http://purl.org/dc/elements/1.1/"
   xmlns:cc="http://creativecommons.org/ns#"
   xmlns:rdf="http://www.w3.org/1999/02/22-rdf-syntax-ns#"
   xmlns:svg="http://www.w3.org/2000/svg"
   xmlns="http://www.w3.org/2000/svg"
   xmlns:sodipodi="http://sodipodi.sourceforge.net/DTD/sodipodi-0.dtd"
   xmlns:inkscape="http://www.inkscape.org/namespaces/inkscape"
   viewBox="0 0 23.5744 25.644844"
   version="1.1"
   id="svg112"
   inkscape:version="0.92.1 r15371"
   sodipodi:docname="noun_842994_cc.svg">
  <defs
     id="defs106" />
  <sodipodi:namedview
     id="base"
     pagecolor="#ffffff"
     bordercolor="#666666"
     borderopacity="1.0"
     inkscape:pageopacity="0.0"
     inkscape:pageshadow="2"
     inkscape:zoom="0.35"
     inkscape:cx="-1.1642709"
     inkscape:cy="-105.82313"
     inkscape:document-units="mm"
     inkscape:current-layer="layer1"
     showgrid="false"
     fit-margin-top="0"
     fit-margin-left="0"
     fit-margin-right="0"
     fit-margin-bottom="0"
     inkscape:window-width="1920"
     inkscape:window-height="1018"
     inkscape:window-x="-8"
     inkscape:window-y="-8"
     inkscape:window-maximized="1" />
  <metadata
     id="metadata109">
    <rdf:RDF>
      <cc:Work
         rdf:about="">
        <dc:format>image/svg+xml</dc:format>
        <dc:type
           rdf:resource="http://purl.org/dc/dcmitype/StillImage" />
        <dc:title></dc:title>
      </cc:Work>
    </rdf:RDF>
  </metadata>
  <g
     inkscape:label="Layer 1"
     inkscape:groupmode="layer"
     id="layer1"
     transform="translate(-106.14138,-95.189453)">
    <path
       id="path116"
       d="m 111.40659,115.67438 c 0.52917,0.21166 1.13771,0.10583 1.53459,-0.3175 l 1.5875,-1.5875 h 5.05354 c 1.42875,0 2.59291,-1.16417 2.59291,-2.59292 v -6.00604 c 0,-1.42875 -1.16416,-2.59292 -2.59291,-2.59292 H 108.7343 c -1.42875,0 -2.59292,1.16417 -2.59292,2.59292 v 6.0325 c 0,1.42875 1.16417,2.59291 2.59292,2.59291 h 1.79917 v 0.58209 c 0,0.58208 0.34396,1.08479 0.87312,1.29646 z m -2.64583,-3.20146 c -0.71438,0 -1.27,-0.55563 -1.27,-1.27 v -6.0325 c 0,-0.71438 0.55562,-1.27 1.27,-1.27 h 10.84792 c 0.71437,0 1.27,0.55562 1.27,1.27 v 6.0325 c 0,0.71437 -0.55563,1.27 -1.27,1.27 h -5.34459 c -0.18521,0 -0.34396,0.0794 -0.47625,0.18521 l -1.77271,1.7727 c -0.0264,0.0265 -0.0794,0.0265 -0.10583,0.0265 -0.0265,-0.0265 -0.0529,-0.0529 -0.0529,-0.0794 v -1.24354 c 0,-0.37042 -0.29104,-0.66146 -0.66145,-0.66146 z m 6.00604,6.40291 v -1.27 c 0,-1.11125 0.89958,-1.98437 1.98438,-1.98437 h 2.30187 c 0.55563,0 1.05833,0.21167 1.45521,0.60854 h 0.21167 c 1.85208,-0.0265 3.41312,-1.34937 3.75708,-3.14854 -0.23813,-0.26458 -0.42333,-0.58208 -0.52917,-0.9525 -0.10583,-0.34396 -0.18521,-0.71438 -0.18521,-1.08479 v -2.75167 c 0,-0.37042 0.0529,-0.71437 0.15875,-1.05833 0.15875,-0.58209 0.55563,-1.08479 1.05834,-1.42875 0,-0.18521 -0.0265,-0.37042 -0.0529,-0.58209 -0.66146,-3.88937 -4.33917,-6.561662 -8.255,-5.979579 -1.50812,0.185208 -2.93687,0.873129 -4.04812,1.931459 -0.26459,0.26458 -0.68792,0.26458 -0.92605,0 -0.26458,-0.26458 -0.26458,-0.68792 0,-0.92604 1.29646,-1.243544 2.96334,-2.063752 4.7625,-2.301877 4.65667,-0.714375 8.99584,2.460627 9.76313,7.064377 0.0529,0.37041 0.0794,0.74083 0.10583,1.11125 v 0.0529 c 0.0265,0.29104 -0.15875,0.55562 -0.42333,0.66146 -0.34396,0.13229 -0.60854,0.42333 -0.71438,0.79375 -0.0794,0.21166 -0.10583,0.42333 -0.10583,0.66145 v 2.72521 c 0,0.23813 0.0265,0.47625 0.10583,0.71438 0.0794,0.23812 0.21167,0.44979 0.39688,0.60854 0.15875,0.13229 0.26458,0.34396 0.23812,0.58208 -0.26458,2.61938 -2.48708,4.63021 -5.10645,4.65667 h -0.52917 c -0.21167,0 -0.42333,-0.10583 -0.55563,-0.3175 -0.13229,-0.18521 -0.3175,-0.3175 -0.55562,-0.3175 h -2.30188 c -0.37041,0 -0.66145,0.29104 -0.68791,0.66146 v 1.27 c 0,0.37041 0.29104,0.66146 0.66146,0.66146 h 2.30187 c 0.23813,0 0.42333,-0.1323 0.55563,-0.3175 0.13229,-0.18522 0.34395,-0.29105 0.55562,-0.31751 h 0.52917 c 3.43958,0 6.27062,-2.67229 6.50875,-6.08541 0.0265,-0.21167 0.15875,-0.42334 0.34396,-0.52917 l 0.23812,-0.15875 c 0.34396,-0.23813 0.58208,-0.60854 0.58208,-1.03188 0.0265,-0.92604 0.0265,-1.87854 0,-2.88395 0,-0.37042 -0.1852,-0.71438 -0.47625,-0.9525 -0.15875,-0.1323 -0.23812,-0.3175 -0.23812,-0.52917 0.0794,-2.59292 -0.84667,-5.08 -2.59292,-6.985001 -1.34937,-1.534583 -3.22791,-2.619375 -5.26521,-3.01625 -3.88937,-0.714375 -7.14375,0.396875 -9.7102,3.333751 -0.29105,0.3175 -0.52917,0.66146 -0.7673,1.00542 -0.21166,0.29104 -0.60854,0.39687 -0.92604,0.1852 -0.29104,-0.21166 -0.39687,-0.60854 -0.18521,-0.92604 0.26459,-0.396872 0.55563,-0.793747 0.87313,-1.137706 2.91042,-3.33375 6.58812,-4.577292 10.95375,-3.757083 2.32833,0.449792 4.445,1.640417 6.0325,3.439583 1.905,2.063746 2.96333,4.788956 2.96333,7.619996 0.44979,0.47625 0.68792,1.0848 0.68792,1.7198 v 2.91041 c -0.0265,0.82021 -0.44979,1.61396 -1.13771,2.06375 l -0.0794,0.0529 c -0.44979,3.96875 -3.81,6.95854 -7.80521,6.985 h -0.21166 c -0.37042,0.39687 -0.89958,0.60854 -1.42875,0.60854 h -2.30187 c -1.0848,0.0265 -1.98438,-0.84667 -1.98438,-1.95792 z m -2.56646,-10.29229 c 0,-0.37041 0.29104,-0.66146 0.66146,-0.66146 0.37042,0 0.66146,0.29105 0.66146,0.66146 0,0.37042 -0.29104,0.66146 -0.66146,0.66146 -0.37042,0 -0.66146,-0.29104 -0.66146,-0.66146 z m 2.64584,0 c 0,-0.37041 0.29104,-0.66146 0.66145,-0.66146 0.37042,0 0.66146,0.29105 0.66146,0.66146 0,0.37042 -0.29104,0.66146 -0.66146,0.66146 -0.37041,0 -0.66145,-0.3175 -0.66145,-0.66146 z m 2.64583,0 c 0,-0.37041 0.29104,-0.66146 0.66146,-0.66146 0.37041,0 0.66146,0.29105 0.66146,0.66146 0,0.37042 -0.29105,0.66146 -0.66146,0.66146 -0.34396,0 -0.635,-0.3175 -0.66146,-0.66146 z m -6.64104,0 c 0,0.37042 -0.29104,0.66146 -0.66146,0.66146 -0.37042,0 -0.66146,-0.29104 -0.66146,-0.66146 0,-0.37041 0.29104,-0.66146 0.66146,-0.66146 0.34396,0 0.66146,0.26459 0.66146,0.66146 0,-0.0265 0,0 0,0 z"
       inkscape:connector-curvature="0"
       style="stroke-width:0.26458332" />
  </g>
</svg>
