<?xml version="1.0" encoding="UTF-8" standalone="no"?>
<!-- Created with Inkscape (http://www.inkscape.org/) -->

<svg
   xmlns:dc="http://purl.org/dc/elements/1.1/"
   xmlns:cc="http://creativecommons.org/ns#"
   xmlns:rdf="http://www.w3.org/1999/02/22-rdf-syntax-ns#"
   xmlns:svg="http://www.w3.org/2000/svg"
   xmlns="http://www.w3.org/2000/svg"
   xmlns:sodipodi="http://sodipodi.sourceforge.net/DTD/sodipodi-0.dtd"
   xmlns:inkscape="http://www.inkscape.org/namespaces/inkscape"
   viewBox="0 0 13.790791 17.356661"
   version="1.1"
   id="svg8"
   inkscape:version="0.92.1 r15371"
   sodipodi:docname="noun_1146600_cc.svg">
  <defs
     id="defs2" />
  <sodipodi:namedview
     id="base"
     pagecolor="#ffffff"
     bordercolor="#666666"
     borderopacity="1.0"
     inkscape:pageopacity="0.0"
     inkscape:pageshadow="2"
     inkscape:zoom="0.35"
     inkscape:cx="-105.36723"
     inkscape:cy="87.085704"
     inkscape:document-units="mm"
     inkscape:current-layer="layer1"
     showgrid="false"
     fit-margin-top="0"
     fit-margin-left="0"
     fit-margin-right="0"
     fit-margin-bottom="0"
     inkscape:window-width="1920"
     inkscape:window-height="1018"
     inkscape:window-x="-8"
     inkscape:window-y="-8"
     inkscape:window-maximized="1" />
  <metadata
     id="metadata5">
    <rdf:RDF>
      <cc:Work
         rdf:about="">
        <dc:format>image/svg+xml</dc:format>
        <dc:type
           rdf:resource="http://purl.org/dc/dcmitype/StillImage" />
        <dc:title></dc:title>
      </cc:Work>
    </rdf:RDF>
  </metadata>
  <g
     inkscape:label="Layer 1"
     inkscape:groupmode="layer"
     id="layer1"
     transform="translate(-133.71175,-154.5181)">
    <path
       id="path10"
       d="m 146.26923,157.48143 c -1.29646,-1.87854 -3.36021,-2.96333 -5.66209,-2.96333 -2.30187,0 -4.36562,1.08479 -5.66208,2.96333 -1.29646,1.87854 -1.5875,4.23333 -0.79375,6.35 0.21167,0.58208 0.55562,1.13771 1.00542,1.66687 l 5.45041,6.37646 5.45042,-6.40292 c 0.44979,-0.52916 0.79375,-1.08479 1.00542,-1.66687 0.79375,-2.09021 0.5027,-4.445 -0.79375,-6.32354 z m -5.66209,6.29708 c -1.64041,0 -2.96333,-1.29646 -2.96333,-2.91042 0,-1.61395 1.32292,-2.91041 2.96333,-2.91041 1.64042,0 2.96334,1.29646 2.96334,2.91041 0,1.61396 -1.32292,2.91042 -2.96334,2.91042 z"
       inkscape:connector-curvature="0"
       style="stroke-width:0.26458332" />
  </g>
</svg>
