<svg xmlns="http://www.w3.org/2000/svg" viewBox="0 0 60 75"><path d="M50.8 16.2c-1.5-2.1-3.6-3.4-6.2-4 .5-2.9-.7-7.6-1.4-8.7l-.3-.3C41.4 1.1 37.3 0 30.5 0h-.4c-6.8 0-10.9 1.1-12.4 3.2l-.3.3c-.7 1.1-1.9 5.8-1.4 8.7-2.6.6-4.7 1.9-6.2 4-5.3 7.3-2.8 22.1-.3 36.4.4 2.2.8 4.4 1.1 6.6.1.5.5.8 1 .8h6c.3 0 .6-.1.8-.4.2-.2.3-.5.2-.8l-.6-3.2c3.7 1.1 9.4 1.3 11.7 1.4h1.4c2.4 0 8-.2 11.7-1.4l-.6 3.2c-.1.3 0 .6.2.8s.5.4.8.4h6c.5 0 .9-.4 1-.8.3-2.1.7-4.3 1.1-6.6 2.4-14.3 4.9-29.1-.5-36.4zm-32.7-4c-.2-.9-.1-2.3.1-3.8 1.1 1.8 3.1 3.5 5.2 5l-5.3-1.2zm3.5-2.9C23.5 7.9 27.5 7 30.4 7s6.9.9 8.8 2.3c-2.2 2.2-5.7 4.4-8.8 5.6-3.2-1.1-6.6-3.4-8.8-5.6zm20.9-.9c.2 1.4.3 2.9.1 3.8l-5.3 1.2c2.1-1.5 4.1-3.2 5.2-5zM30.2 2.1h.2c9.6 0 11 2.1 11.2 3 .1.8-.3 1.8-1.1 2.8-2.5-2-7.3-2.8-10.2-2.8s-7.6.9-10.1 2.8c-.8-1-1.2-2-1.1-2.8.2-.9 1.6-3 11.1-3zM12.4 58c-.1-.7-.2-1.3-.3-2H16l.4 2h-4zM17 45.6c-.9-5.6-1.8-12.8-.5-19.3 1.2 3.4 1.9 6.7 2 12.6 0 1.3-.2 2.5-.6 3.7l-.9 3zM30.3 55c-8.2 0-12.9-1.3-13.7-2l.8-2.4c2.9.9 7.6 1.4 12.9 1.4s10.1-.5 12.9-1.4L44 53c-.8.7-5.4 2-13.7 2zm13.4-9.4l-1-3c-.4-1.2-.6-2.5-.6-3.7.1-5.9.8-9.2 2-12.6 1.4 6.5.5 13.6-.4 19.3zm.7 12.4l.4-2h3.9c-.1.7-.2 1.3-.3 2h-4zm4.8-5.7c-.1.6-.2 1.2-.3 1.7h-3.2c.2-.3.4-.6.4-1 0-.1 0-.2-.1-.3l-1-3v-.1c.1-.8.3-1.7.4-2.6 1-6.8 2.5-16.1-.2-24.2-.1-.4-.5-.7-.9-.7s-.8.2-1 .6c-1.9 4.8-3.1 8.3-3.3 16.2 0 1.5.2 3 .7 4.4l1.8 5.4c-2.5.8-7.2 1.3-12.2 1.3s-9.6-.5-12.3-1.3l1.8-5.4c.5-1.4.7-2.9.7-4.4-.2-7.9-1.3-11.4-3.3-16.2-.2-.4-.5-.6-1-.6-.4 0-.8.3-.9.7C12.6 31 14 40.2 15.1 47c.1.9.3 1.8.4 2.6v.1l-1 3c0 .1-.1.2-.1.3 0 .4.1.7.4 1h-3.2c-.1-.6-.2-1.2-.3-1.7C9.2 39 6.6 24 11.5 17.4c1.4-1.9 3.3-3 5.8-3.3l8 1.9v16c0 .6.4 1 1 1s1-.4 1-1V16.4l2.8.6h.4l2.8-.6V32c0 .6.4 1 1 1s1-.4 1-1V15.9l8-1.9c2.5.4 4.5 1.5 5.8 3.3 5 6.7 2.4 21.7.1 35z"/></svg>