<svg xmlns="http://www.w3.org/2000/svg" viewBox="0 0 20 20"><path d="M19.7 12.8c-.3-.3-.6-.3-.9-.2L16.2 10l2.5-2.5c.3.1.7 0 .9-.2.4-.4.4-1 0-1.4s-1-.4-1.4 0c-.3.3-.3.6-.2.9l-2.5 2.5-2.1-2.1L16 4.7c.3.1.7 0 .9-.2.4-.4.4-1 0-1.4s-1-.4-1.4 0c-.3.3-.3.6-.2.9l-2.5 2.5-2.1-2.1 2.5-2.5c.3.1.7 0 .9-.2.4-.4.4-1 0-1.4s-1-.4-1.4 0c-.3.3-.3.6-.2.9L10 3.8 7.5 1.2c.1-.3 0-.7-.2-.9-.4-.4-1-.4-1.4 0s-.4 1 0 1.4c.2.2.5.3.9.2l2.5 2.5-2.1 2.1L4.7 4c.1-.3 0-.7-.2-.9-.4-.4-1-.4-1.4 0s-.4 1 0 1.4c.2.2.6.3.9.2l2.5 2.5-2 2.1-2.6-2.5c.1-.3 0-.7-.2-.9-.4-.4-1-.4-1.4 0s-.4 1 0 1.4c.3.3.6.3.9.2L3.8 10l-2.5 2.5c-.3-.1-.7 0-.9.2-.4.4-.4 1 0 1.4s1 .4 1.4 0c.3-.3.3-.6.2-.9l2.5-2.5 2.1 2.1L4 15.3c-.3-.1-.7 0-.9.2-.4.4-.4 1 0 1.4s1 .4 1.4 0c.3-.3.3-.6.2-.9l2.5-2.5 2.1 2.1-2.5 2.5c-.3-.1-.7 0-.9.2-.4.4-.4 1 0 1.4s1 .4 1.4 0c.3-.3.3-.6.2-.9l2.5-2.5 2.5 2.5c-.1.3 0 .7.2.9.4.4 1 .4 1.4 0s.4-1 0-1.4c-.3-.3-.6-.3-.9-.2l-2.5-2.5 2.1-2.1 2.5 2.5c-.1.3 0 .7.2.9.4.4 1 .4 1.4 0s.4-1 0-1.4c-.3-.3-.6-.3-.9-.2l-2.5-2.5 2.1-2.1 2.5 2.5c-.1.3 0 .7.2.9.4.4 1 .4 1.4 0 .4-.3.4-.9 0-1.3zM10 5.1l2.1 2.1L10 9.3 7.9 7.2 10 5.1zM5.1 10l2.1-2.1L9.3 10l-2.1 2.1L5.1 10zm4.9 4.9l-2.1-2.1 2.1-2.1 2.1 2.1-2.1 2.1zm2.8-2.8L10.7 10l2.1-2.1 2.1 2.1-2.1 2.1z"/></svg>