<svg id="Слой_1" xmlns="http://www.w3.org/2000/svg" viewBox="0 0 100 125"><style>.st0{fill:none}</style><path class="st0" d="M78.1 53.8h.1c0 .1 0 .1-.1 0 0 .1 0 .1 0 0-.2-.1-.4-.1-.5-.1.1 0 .2.1.5.1zM46.7 22h-.4c.1-.1.2 0 .4 0zM11.2 50.5zM78.6 54c.1 0 .1 0 0 0 0 0-.1 0-.4-.1.2.1.4.1.4.1z"/><path class="st0" d="M23.9 29c-.5.8-.8 1.7-.9 2.6-.1 1-.3 2.1-.4 3.1-.2 2.3-.4 4.6-.5 6.9-.2 4.6-.3 9.1-.3 13.7 1.5.5 2.9.9 4.4 1.4 5.2 1.5 10.6 2.6 16 3.1 4.9.4 9.8.3 14.6-.9 2.5-.6 5-1.5 7.3-2.7 2.2-1.1 4.2-2.6 5.8-4.5-.6-2.5-1.3-4.9-2-7.4-.7-2.6-1.5-5.2-2.3-7.8-.3-1-.6-2-1-3.1-.3-.9-.6-1.9-.9-2.8-.5-1.1-1.4-2-2.3-2.8-2-1.7-4.6-2.8-7-3.7-2.5-.9-5.1-1.6-7.8-2.1-.1 0-.2 0-.3-.1H46c-1.5-.3-3.1-.5-4.6-.7 2.3 1.1 4.4 2.6 6.5 4.1.3.2 0 .6-.3.5-3.4-1.8-6.8-3.7-10.5-4.8-1.2.2-2.3.5-3.4.8-1.9.9-3.8 1.9-5.5 3.1-1.6 1-3.2 2.4-4.3 4.1zm66.4 34.4c-1.5 1.1-3.1 2-4.7 2.9-1.9 1-3.9 2-5.9 2.8-4.2 1.8-8.6 3.4-13.1 4.6-5 1.4-10 2.8-15.2 3.5-4.3.6-9.1.8-12.9-1.7l.8.8c.6.6 1.3 1 2 1.4 1.8 1 4 1.4 6.1 1.5 2.7.1 5.5-.2 8.2-.7 2.7-.5 5.4-1.1 8.1-1.8 2.7-.7 5.3-1.4 8-2.3 2.6-.9 5.2-1.8 7.8-2.9 2.5-1 5-2.2 7.4-3.4 1.2-.6 2.4-1.3 3.5-2 .5-.3 1-.6 1.4-1 .3-.2.4-.6.5-.9.1-.3.1-.4.1-.4s0 .1-.1.4v-.1c0-.1.1-.1.1-.2 0 .1-.1.1-.1.2.3-.8.4-2 .4-3-.7 1-1.5 1.7-2.4 2.3z"/><path class="st0" d="M21.5 32c.1-1.1.3-2.1.8-3.1 1.1-2.2 3-3.9 5-5.3-2.1.7-4.2 1.5-6.4 2.2-1 .4-2.1.9-3 1.6-.8.6-1.5 1.1-2.2 1.8-.9.8-1.6 1.8-2.3 2.7-1.6 2.2-2.7 4.7-3.6 7.3-.9 2.6-1.6 5.3-1.9 8 .1.6.6 1.1 1.1 1.6.6.6 1.3 1.1 2 1.6 1.4 1 2.9 1.8 4.4 2.5 1.6.7 3.2 1.3 4.8 1.8 0-1.8 0-3.6.1-5.4.1-4.7.2-9.5.7-14.2.2-1 .3-2 .5-3.1zm20.7 43.7c1.9.5 3.9.6 5.9.5 2.3-.1 4.5-.5 6.8-1 2.6-.5 5.1-1.2 7.6-1.8 2.5-.7 5.1-1.4 7.6-2.2 4.6-1.5 9.1-3.3 13.4-5.4 1.7-.9 3.4-1.8 5-2.9 1.1-.7 2.2-1.5 3.1-2.6.3-.4.2-.8-.2-1.1-.5-.4-1.1-.7-1.7-1-1.2-.6-2.5-1.2-3.7-1.7-2.4-1-5-1.8-7.5-2.5h.1c-.1 0-.2 0-.2-.1-.1 0-.3-.1-.4-.1-.1 0-.2-.1-.3-.1-2.2-.6-4.4-1.2-6.7-1.7-1 1.6-2.5 2.9-4.1 3.9-4.3 3-9.5 4.7-14.6 5.4-5.5.8-11 .4-16.5-.5-5.1-.8-10.2-2.1-15.1-3.8 1.1 1 2.2 2.1 3.3 3.1 3 2.9 6 5.7 9 8.6 1.3 1.2 2.6 2.5 4 3.7.6.6 1.2 1.2 1.9 1.7 1 .7 2.2 1.2 3.3 1.6z"/><path d="M94.9 60.2c-.1-.5-.2-.8-.5-1.2-.7-1-1.9-1.8-2.9-2.4-1.2-.7-2.4-1.2-3.7-1.8-2.6-1.1-5.3-2-8-2.7-2.8-.8-5.2-1.3-7.8-2-1.2-4.9-2.5-10.1-3.9-14.9-.6-1.9-1.1-3.8-1.8-5.6-1.1-2.4-3.1-4.1-5.3-5.4-2.4-1.4-5-2.4-7.6-3.2-4.5-1.4-9.2-2.2-13.9-2.8-.7-.1-1.4-.1-2.1 0-.5.1-.9.2-1.4.3l-3.9.9c-.9.2-1.7.5-2.6.8-1.8.5-3.6 1.1-5.4 1.7-2.3.8-4.7 1.5-6.8 2.7-.8.5-1.6 1-2.3 1.6-.7.6-1.4 1.3-2.1 2-.4.4-.7.8-1 1.3-.8 1-1.5 2.1-2.2 3.3-1.4 2.4-2.4 5-3.2 7.7-.7 2.3-1.2 4.6-1.4 7 .2.8.4 1.5.8 2.2.4.6.9 1.2 1.4 1.7.9.9 2 1.7 3.1 2.4 1.2.7 2.4 1.4 3.6 2 .7.4 1.4.7 2.1 1 3.8 4.1 7.7 8.2 11.6 12.2l6.6 6.6c.7.6 1.3 1.3 2 1.9 1 .9 2 1.8 3.1 2.5 4.6 2.8 10.4 2.4 15.6 1.6 2.7-.5 5.3-1.1 8-1.8s5.3-1.4 7.9-2.3c5.2-1.7 10.3-3.7 15.2-6.1 1.1-.6 2.3-1.2 3.4-1.8 1.1-.6 2.2-1.2 3.2-2 .4-.3.8-.6 1.1-1 .6-.9.9-1.9 1.1-3v-.2c.1-1.3.1-2.3 0-3.2zM78.6 54c-.1 0-.2-.1-.4-.1.3.1.4.1.4.1.1 0 .1 0 0 0zm-.5-.2c0 .1 0 .1 0 0h.1c0 .1-.1.1-.1 0-.2-.1-.4-.1-.5-.1.1 0 .3.1.5.1zM46.5 22h.2c-.1 0-.3-.1-.4-.1 0 0 .1 0 .2.1zm-12.8-.3c1.1-.3 2.3-.6 3.4-.8 3.7 1.1 7.1 3 10.5 4.8.3.2.6-.3.3-.5-2-1.6-4.2-3-6.5-4.1 1.5.2 3.1.5 4.6.7h.3c.1 0 .2 0 .3.1 2.6.5 5.3 1.2 7.8 2.1 2.5.9 5 2 7 3.7.9.8 1.8 1.7 2.3 2.8.4.9.6 1.9.9 2.8.3 1 .6 2 1 3.1.8 2.6 1.5 5.2 2.3 7.8.7 2.4 1.3 4.9 2 7.4-1.5 1.9-3.6 3.4-5.8 4.5-2.3 1.2-4.7 2.1-7.3 2.7-4.8 1.2-9.7 1.4-14.6.9-5.4-.5-10.8-1.6-16-3.1-1.5-.4-3-.9-4.4-1.4 0-4.6.1-9.1.3-13.7.1-2.3.3-4.6.5-6.9.1-1 .2-2.1.4-3.1.1-.9.4-1.8.9-2.6 1-1.7 2.7-3.1 4.3-4.2 1.8-1.1 3.6-2.1 5.5-3zM11.2 50.5zm9.2 4.3L15.6 53c-1.5-.6-3-1.5-4.4-2.5-.7-.5-1.4-1-2-1.6-.4-.4-.9-1-1.1-1.6.3-2.7 1-5.4 1.9-8 .9-2.6 2-5 3.6-7.3.7-1 1.4-1.9 2.3-2.7.7-.6 1.4-1.2 2.2-1.8.9-.7 2-1.1 3-1.6 2.1-.7 4.2-1.5 6.4-2.2-2 1.4-3.9 3.1-5 5.3-.5 1-.7 2-.8 3.1-.1 1.1-.3 2.1-.4 3.2-.4 4.7-.6 9.5-.7 14.2-.2 1.7-.2 3.5-.2 5.3zm12.6 14c-3-2.8-6-5.7-9-8.6-1.1-1-2.2-2.1-3.3-3.1 4.9 1.7 10 3 15.1 3.8 5.4.9 11 1.2 16.5.5 5.1-.7 10.3-2.4 14.6-5.4 1.5-1.1 3.1-2.3 4.1-3.9 2.2.5 4.5 1.1 6.7 1.7.1 0 .2 0 .3.1.1 0 .3.1.4.1.1 0 .2.1.2.1h-.1c2.5.7 5 1.5 7.5 2.5 1.3.5 2.5 1 3.7 1.7.6.3 1.1.6 1.7 1 .4.3.5.7.2 1.1-.8 1-2 1.8-3.1 2.6-1.6 1.1-3.3 2-5 2.9-4.3 2.2-8.8 4-13.4 5.4-2.5.8-5.1 1.5-7.6 2.2-2.5.7-5.1 1.3-7.6 1.8-2.2.5-4.5.8-6.8 1-2 .1-4 0-5.9-.5-1.2-.3-2.3-.8-3.3-1.5-.7-.5-1.3-1.1-1.9-1.7-1.3-1.3-2.6-2.6-4-3.8zm59.3-4.5c0-.1.1-.1.1-.2 0 0 0 .1-.1.2 0 0 0 .1 0 0 .1-.2.1-.3.1-.3s0 .1-.1.3c0 0 0 .1 0 0 0 .1 0 .1 0 0-.2.4-.3.7-.6.9-.4.4-.9.7-1.4 1-1.1.7-2.3 1.4-3.5 2-2.4 1.2-4.9 2.4-7.4 3.4-2.5 1.1-5.1 2-7.8 2.9-2.6.9-5.3 1.6-8 2.3-2.7.7-5.3 1.3-8.1 1.8-2.7.5-5.4.8-8.2.7-2.1-.1-4.2-.5-6.1-1.5-.7-.4-1.4-.9-2-1.4l-.8-.8c3.8 2.4 8.6 2.3 12.9 1.7 5.1-.7 10.2-2.2 15.2-3.5 4.5-1.2 8.9-2.8 13.1-4.6 2-.9 4-1.8 5.9-2.8 1.6-.9 3.2-1.8 4.7-2.9.9-.6 1.7-1.3 2.4-2.2.2 1 0 2.1-.3 3z"/></svg>