<?xml version="1.0" encoding="utf-8"?>
<!-- Generator: Adobe Illustrator 20.1.0, SVG Export Plug-In . SVG Version: 6.00 Build 0)  -->
<svg version="1.1" id="Слой_1" xmlns="http://www.w3.org/2000/svg" xmlns:xlink="http://www.w3.org/1999/xlink" x="0px" y="0px"
	 viewBox="0 0 100 125" style="enable-background:new 0 0 100 125;" xml:space="preserve">
<g>
	<path d="M76.8,43.8c1.1,1.1,3,1.1,4.1,0c6.8-6.8,6.8-17.9,0-24.7s-17.9-6.8-24.7,0L19.1,56.2c-6.8,6.8-6.8,17.9,0,24.7
		C22.5,84.3,27,86,31.5,86s8.9-1.7,12.4-5.1L69,55.8l0,0l0,0c3.6-4,3.5-10.2-0.3-14.1c-4-4-10.4-4-14.4,0L33.5,62.4
		c-1.1,1.1-1.1,3,0,4.1s3,1.1,4.1,0l20.6-20.6c1.7-1.7,4.5-1.7,6.2,0s1.7,4.5,0,6.2l0,0L39.7,76.8c-4.5,4.5-11.9,4.5-16.5,0
		c-4.5-4.5-4.5-11.9,0-16.5l37.1-37.1c4.5-4.5,11.9-4.5,16.5,0s4.5,11.9,0,16.5C75.6,40.8,75.6,42.7,76.8,43.8z"/>
</g>
</svg>
