<?xml version="1.0" encoding="utf-8"?>
<!-- Generator: Adobe Illustrator 20.1.0, SVG Export Plug-In . SVG Version: 6.00 Build 0)  -->
<svg version="1.1" id="Слой_1" xmlns="http://www.w3.org/2000/svg" xmlns:xlink="http://www.w3.org/1999/xlink" x="0px" y="0px"
	 viewBox="0 0 100 125" style="enable-background:new 0 0 100 125;" xml:space="preserve">
<style type="text/css">
	.st0{fill:none;}
</style>
<g>
	<g>
		<path class="st0" d="M78.1,53.8c0.1,0,0.1,0,0.1,0C78.2,53.9,78.2,53.9,78.1,53.8C78.1,53.9,78.1,53.9,78.1,53.8
			c-0.2-0.1-0.4-0.1-0.5-0.1h0C77.7,53.7,77.8,53.8,78.1,53.8z"/>
		<path class="st0" d="M46.7,22C46.7,22,46.7,22,46.7,22c-0.1,0-0.1,0-0.1,0c0,0-0.1,0-0.1,0l0,0c-0.1,0-0.1,0-0.2,0
			C46.4,21.9,46.5,22,46.7,22z"/>
		<polygon class="st0" points="11.2,50.5 11.2,50.5 11.2,50.5 		"/>
		<path class="st0" d="M78.6,54C78.7,54,78.7,54,78.6,54c0,0-0.1,0-0.4-0.1C78.4,54,78.6,54,78.6,54z"/>
		<path class="st0" d="M23.9,29c-0.5,0.8-0.8,1.7-0.9,2.6c-0.1,1-0.3,2.1-0.4,3.1c-0.2,2.3-0.4,4.6-0.5,6.9
			c-0.2,4.6-0.3,9.1-0.3,13.7c1.5,0.5,2.9,0.9,4.4,1.4c5.2,1.5,10.6,2.6,16,3.1c4.9,0.4,9.8,0.3,14.6-0.9c2.5-0.6,5-1.5,7.3-2.7
			c2.2-1.1,4.2-2.6,5.8-4.5c-0.6-2.5-1.3-4.9-2-7.4c-0.7-2.6-1.5-5.2-2.3-7.8c-0.3-1-0.6-2-1-3.1c-0.3-0.9-0.6-1.9-0.9-2.8
			c-0.5-1.1-1.4-2-2.3-2.8c-2-1.7-4.6-2.8-7-3.7c-2.5-0.9-5.1-1.6-7.8-2.1c-0.1,0-0.2,0-0.3-0.1c-0.1,0-0.1,0-0.1,0c0,0-0.1,0-0.1,0
			c0,0-0.1,0-0.1,0c-1.5-0.3-3.1-0.5-4.6-0.7c2.3,1.1,4.4,2.6,6.5,4.1c0.3,0.2,0,0.6-0.3,0.5c-3.4-1.8-6.8-3.7-10.5-4.8
			c-1.2,0.2-2.3,0.5-3.4,0.8c-1.9,0.9-3.8,1.9-5.5,3.1C26.6,25.9,25,27.3,23.9,29z"/>
		<path class="st0" d="M90.3,63.4c-1.5,1.1-3.1,2-4.7,2.9c-1.9,1-3.9,2-5.9,2.8c-4.2,1.8-8.6,3.4-13.1,4.6c-5,1.4-10,2.8-15.2,3.5
			c-4.3,0.6-9.1,0.8-12.9-1.7c0.3,0.3,0.5,0.5,0.8,0.8c0.6,0.6,1.3,1,2,1.4c1.8,1,4,1.4,6.1,1.5c2.7,0.1,5.5-0.2,8.2-0.7
			c2.7-0.5,5.4-1.1,8.1-1.8c2.7-0.7,5.3-1.4,8-2.3c2.6-0.9,5.2-1.8,7.8-2.9c2.5-1,5-2.2,7.4-3.4c1.2-0.6,2.4-1.3,3.5-2
			c0.5-0.3,1-0.6,1.4-1c0.3-0.2,0.4-0.6,0.5-0.9c0,0,0,0,0,0c0,0,0,0,0,0c0.1-0.3,0.1-0.4,0.1-0.4c0,0,0,0.1-0.1,0.4c0,0,0,0,0-0.1
			s0.1-0.1,0.1-0.2c0,0.1-0.1,0.1-0.1,0.2c0.3-0.8,0.4-2,0.4-3C92,62.1,91.2,62.8,90.3,63.4z"/>
		<path class="st0" d="M21.5,32c0.1-1.1,0.3-2.1,0.8-3.1c1.1-2.2,3-3.9,5-5.3c-2.1,0.7-4.2,1.5-6.4,2.2c-1,0.4-2.1,0.9-3,1.6
			c-0.8,0.6-1.5,1.1-2.2,1.8c-0.9,0.8-1.6,1.8-2.3,2.7c-1.6,2.2-2.7,4.7-3.6,7.3c-0.9,2.6-1.6,5.3-1.9,8c0.1,0.6,0.6,1.1,1.1,1.6
			c0.6,0.6,1.3,1.1,2,1.6c0,0,0,0,0,0c0,0,0,0,0,0c0,0,0,0,0,0c0,0,0,0,0,0c0,0,0,0,0,0c0,0,0,0,0,0c0,0,0,0,0,0c0,0,0,0,0,0
			c0,0,0,0,0,0c0,0,0,0,0,0c1.4,1,2.9,1.8,4.4,2.5c1.6,0.7,3.2,1.3,4.8,1.8c0-1.8,0-3.6,0.1-5.4c0.1-4.7,0.2-9.5,0.7-14.2
			C21.2,34.1,21.3,33.1,21.5,32z"/>
		<path class="st0" d="M42.2,75.7c1.9,0.5,3.9,0.6,5.9,0.5c2.3-0.1,4.5-0.5,6.8-1c2.6-0.5,5.1-1.2,7.6-1.8c2.5-0.7,5.1-1.4,7.6-2.2
			c4.6-1.5,9.1-3.3,13.4-5.4c1.7-0.9,3.4-1.8,5-2.9c1.1-0.7,2.2-1.5,3.1-2.6c0.3-0.4,0.2-0.8-0.2-1.1c-0.5-0.4-1.1-0.7-1.7-1
			c-1.2-0.6-2.5-1.2-3.7-1.7c-2.4-1-5-1.8-7.5-2.5c0,0,0.1,0,0.1,0c-0.1,0-0.2,0-0.2-0.1c-0.1,0-0.3-0.1-0.4-0.1
			c-0.1,0-0.2-0.1-0.3-0.1c0,0,0,0,0,0c-2.2-0.6-4.4-1.2-6.7-1.7c-1,1.6-2.5,2.9-4.1,3.9c-4.3,3-9.5,4.7-14.6,5.4
			c-5.5,0.8-11,0.4-16.5-0.5c-5.1-0.8-10.2-2.1-15.1-3.8c1.1,1,2.2,2.1,3.3,3.1c3,2.9,6,5.7,9,8.6c1.3,1.2,2.6,2.5,4,3.7
			c0.6,0.6,1.2,1.2,1.9,1.7C39.9,74.8,41.1,75.3,42.2,75.7z"/>
		<path d="M94.9,60.2c-0.1-0.5-0.2-0.8-0.5-1.2c-0.7-1-1.9-1.8-2.9-2.4c-1.2-0.7-2.4-1.2-3.7-1.8c-2.6-1.1-5.3-2-8-2.7
			c-2.8-0.8-5.2-1.3-7.8-2c-1.2-4.9-2.5-10.1-3.9-14.9c-0.6-1.9-1.1-3.8-1.8-5.6c-1.1-2.4-3.1-4.1-5.3-5.4c-2.4-1.4-5-2.4-7.6-3.2
			c-4.5-1.4-9.2-2.2-13.9-2.8c-0.7-0.1-1.4-0.1-2.1,0c-0.5,0.1-0.9,0.2-1.4,0.3c-1.3,0.3-2.6,0.6-3.9,0.9c-0.9,0.2-1.7,0.5-2.6,0.8
			c-1.8,0.5-3.6,1.1-5.4,1.7c-2.3,0.8-4.7,1.5-6.8,2.7c-0.8,0.5-1.6,1-2.3,1.6c-0.7,0.6-1.4,1.3-2.1,2c-0.4,0.4-0.7,0.8-1,1.3
			c-0.8,1-1.5,2.1-2.2,3.3c-1.4,2.4-2.4,5-3.2,7.7c-0.7,2.3-1.2,4.6-1.4,7c0.2,0.8,0.4,1.5,0.8,2.2c0.4,0.6,0.9,1.2,1.4,1.7
			c0.9,0.9,2,1.7,3.1,2.4c1.2,0.7,2.4,1.4,3.6,2c0.7,0.4,1.4,0.7,2.1,1c3.8,4.1,7.7,8.2,11.6,12.2c2.2,2.2,4.4,4.4,6.6,6.6
			c0.7,0.6,1.3,1.3,2,1.9c1,0.9,2,1.8,3.1,2.5c4.6,2.8,10.4,2.4,15.6,1.6c2.7-0.5,5.3-1.1,8-1.8c2.7-0.7,5.3-1.4,7.9-2.3
			c5.2-1.7,10.3-3.7,15.2-6.1c1.1-0.6,2.3-1.2,3.4-1.8c1.1-0.6,2.2-1.2,3.2-2c0.4-0.3,0.8-0.6,1.1-1c0.6-0.9,0.9-1.9,1.1-3
			c0,0,0,0,0,0c0,0,0,0,0,0c0,0,0,0,0,0c0,0,0,0,0-0.1c0,0,0,0,0,0c0,0,0-0.1,0-0.1C95,62.1,95,61.1,94.9,60.2z M78.6,54
			c-0.1,0-0.2-0.1-0.4-0.1C78.5,54,78.6,54,78.6,54C78.7,54,78.7,54,78.6,54z M78.1,53.8C78.1,53.9,78.1,53.9,78.1,53.8
			c0.1,0,0.1,0,0.1,0C78.2,53.9,78.1,53.9,78.1,53.8c-0.2-0.1-0.4-0.1-0.5-0.1h0C77.7,53.7,77.9,53.8,78.1,53.8z M46.5,22
			C46.5,22,46.5,22,46.5,22c0.1,0,0.2,0,0.2,0c0,0,0,0,0,0c-0.1,0-0.3-0.1-0.4-0.1C46.3,21.9,46.4,21.9,46.5,22L46.5,22z M33.7,21.7
			c1.1-0.3,2.3-0.6,3.4-0.8c3.7,1.1,7.1,3,10.5,4.8c0.3,0.2,0.6-0.3,0.3-0.5c-2-1.6-4.2-3-6.5-4.1c1.5,0.2,3.1,0.5,4.6,0.7
			c0,0,0.1,0,0.1,0c0,0,0.1,0,0.1,0c0,0,0.1,0,0.1,0c0.1,0,0.2,0,0.3,0.1c2.6,0.5,5.3,1.2,7.8,2.1c2.5,0.9,5,2,7,3.7
			c0.9,0.8,1.8,1.7,2.3,2.8c0.4,0.9,0.6,1.9,0.9,2.8c0.3,1,0.6,2,1,3.1c0.8,2.6,1.5,5.2,2.3,7.8c0.7,2.4,1.3,4.9,2,7.4
			c-1.5,1.9-3.6,3.4-5.8,4.5c-2.3,1.2-4.7,2.1-7.3,2.7c-4.8,1.2-9.7,1.4-14.6,0.9c-5.4-0.5-10.8-1.6-16-3.1c-1.5-0.4-3-0.9-4.4-1.4
			c0-4.6,0.1-9.1,0.3-13.7c0.1-2.3,0.3-4.6,0.5-6.9c0.1-1,0.2-2.1,0.4-3.1c0.1-0.9,0.4-1.8,0.9-2.6c1-1.7,2.7-3.1,4.3-4.2
			C30,23.6,31.8,22.6,33.7,21.7z M11.2,50.5C11.2,50.5,11.2,50.5,11.2,50.5C11.2,50.5,11.2,50.5,11.2,50.5
			C11.2,50.5,11.2,50.5,11.2,50.5z M20.4,54.8c-1.6-0.6-3.2-1.2-4.8-1.8c-1.5-0.6-3-1.5-4.4-2.5c0,0,0,0,0,0c0,0,0,0,0,0s0,0,0,0
			c0,0,0,0,0,0c0,0,0,0,0,0c0,0,0,0,0,0c0,0,0,0,0,0c0,0,0,0,0,0c0,0,0,0,0,0c0,0,0,0,0,0c-0.7-0.5-1.4-1-2-1.6
			c-0.4-0.4-0.9-1-1.1-1.6c0.3-2.7,1-5.4,1.9-8c0.9-2.6,2-5,3.6-7.3c0.7-1,1.4-1.9,2.3-2.7c0.7-0.6,1.4-1.2,2.2-1.8
			c0.9-0.7,2-1.1,3-1.6c2.1-0.7,4.2-1.5,6.4-2.2c-2,1.4-3.9,3.1-5,5.3c-0.5,1-0.7,2-0.8,3.1c-0.1,1.1-0.3,2.1-0.4,3.2
			c-0.4,4.7-0.6,9.5-0.7,14.2C20.4,51.2,20.4,53,20.4,54.8z M33,68.8c-3-2.8-6-5.7-9-8.6c-1.1-1-2.2-2.1-3.3-3.1
			c4.9,1.7,10,3,15.1,3.8c5.4,0.9,11,1.2,16.5,0.5c5.1-0.7,10.3-2.4,14.6-5.4c1.5-1.1,3.1-2.3,4.1-3.9c2.2,0.5,4.5,1.1,6.7,1.7
			c0,0,0,0,0,0c0.1,0,0.2,0,0.3,0.1c0.1,0,0.3,0.1,0.4,0.1c0.1,0,0.2,0.1,0.2,0.1c0,0-0.1,0-0.1,0c2.5,0.7,5,1.5,7.5,2.5
			c1.3,0.5,2.5,1,3.7,1.7c0.6,0.3,1.1,0.6,1.7,1c0.4,0.3,0.5,0.7,0.2,1.1c-0.8,1-2,1.8-3.1,2.6c-1.6,1.1-3.3,2-5,2.9
			c-4.3,2.2-8.8,4-13.4,5.4c-2.5,0.8-5.1,1.5-7.6,2.2c-2.5,0.7-5.1,1.3-7.6,1.8c-2.2,0.5-4.5,0.8-6.8,1c-2,0.1-4,0-5.9-0.5
			c-1.2-0.3-2.3-0.8-3.3-1.5c-0.7-0.5-1.3-1.1-1.9-1.7C35.7,71.3,34.4,70,33,68.8z M92.3,64.3c0-0.1,0.1-0.1,0.1-0.2
			C92.4,64.1,92.4,64.2,92.3,64.3C92.3,64.3,92.3,64.4,92.3,64.3c0.1-0.2,0.1-0.3,0.1-0.3C92.4,64,92.4,64.1,92.3,64.3
			C92.3,64.3,92.3,64.4,92.3,64.3C92.3,64.4,92.3,64.4,92.3,64.3c-0.2,0.4-0.3,0.7-0.6,0.9c-0.4,0.4-0.9,0.7-1.4,1
			c-1.1,0.7-2.3,1.4-3.5,2c-2.4,1.2-4.9,2.4-7.4,3.4c-2.5,1.1-5.1,2-7.8,2.9c-2.6,0.9-5.3,1.6-8,2.3c-2.7,0.7-5.3,1.3-8.1,1.8
			c-2.7,0.5-5.4,0.8-8.2,0.7c-2.1-0.1-4.2-0.5-6.1-1.5c-0.7-0.4-1.4-0.9-2-1.4c-0.3-0.3-0.5-0.5-0.8-0.8c3.8,2.4,8.6,2.3,12.9,1.7
			c5.1-0.7,10.2-2.2,15.2-3.5c4.5-1.2,8.9-2.8,13.1-4.6c2-0.9,4-1.8,5.9-2.8c1.6-0.9,3.2-1.8,4.7-2.9c0.9-0.6,1.7-1.3,2.4-2.2
			C92.8,62.3,92.6,63.4,92.3,64.3z"/>
	</g>
</g>
</svg>
