<?xml version="1.0" encoding="UTF-8" standalone="no"?>
<!-- Created with Inkscape (http://www.inkscape.org/) -->

<svg
   xmlns:dc="http://purl.org/dc/elements/1.1/"
   xmlns:cc="http://creativecommons.org/ns#"
   xmlns:rdf="http://www.w3.org/1999/02/22-rdf-syntax-ns#"
   xmlns:svg="http://www.w3.org/2000/svg"
   xmlns="http://www.w3.org/2000/svg"
   xmlns:sodipodi="http://sodipodi.sourceforge.net/DTD/sodipodi-0.dtd"
   xmlns:inkscape="http://www.inkscape.org/namespaces/inkscape"
   viewBox="0 0 12.528471 15.874992"
   version="1.1"
   id="svg93"
   inkscape:version="0.92.1 r15371"
   sodipodi:docname="noun_1008386_cc.svg">
  <defs
     id="defs87" />
  <sodipodi:namedview
     id="base"
     pagecolor="#ffffff"
     bordercolor="#666666"
     borderopacity="1.0"
     inkscape:pageopacity="0.0"
     inkscape:pageshadow="2"
     inkscape:zoom="0.35"
     inkscape:cx="26.533291"
     inkscape:cy="-138.57144"
     inkscape:document-units="mm"
     inkscape:current-layer="layer1"
     showgrid="false"
     fit-margin-top="0"
     fit-margin-left="0"
     fit-margin-right="0"
     fit-margin-bottom="0"
     inkscape:window-width="1920"
     inkscape:window-height="1018"
     inkscape:window-x="-8"
     inkscape:window-y="-8"
     inkscape:window-maximized="1" />
  <metadata
     id="metadata90">
    <rdf:RDF>
      <cc:Work
         rdf:about="">
        <dc:format>image/svg+xml</dc:format>
        <dc:type
           rdf:resource="http://purl.org/dc/dcmitype/StillImage" />
        <dc:title></dc:title>
      </cc:Work>
    </rdf:RDF>
  </metadata>
  <g
     inkscape:label="Layer 1"
     inkscape:groupmode="layer"
     id="layer1"
     transform="translate(-98.813067,-96.294648)">
    <path
       id="path95"
       d="m 110.48937,100.58089 c -0.39687,-0.55562 -0.9525,-0.89958 -1.64041,-1.05833 0.13229,-0.767292 -0.18521,-2.010834 -0.37042,-2.301875 l -0.0794,-0.07937 c -0.39688,-0.555625 -1.48167,-0.846667 -3.28084,-0.846667 h -0.10583 c -1.79917,0 -2.88396,0.291042 -3.28084,0.846667 l -0.0794,0.07937 c -0.18521,0.291041 -0.50271,1.534583 -0.37042,2.301875 -0.68791,0.15875 -1.24354,0.50271 -1.640415,1.05833 -1.402291,1.93146 -0.740833,5.84729 -0.07937,9.63084 0.105834,0.58208 0.211667,1.16416 0.291042,1.74625 0.02646,0.13229 0.132292,0.21166 0.264593,0.21166 h 1.5875 c 0.0794,0 0.15875,-0.0265 0.21166,-0.10583 0.0529,-0.0529 0.0794,-0.13229 0.0529,-0.21167 l -0.15875,-0.84666 c 0.97896,0.29104 2.48709,0.34395 3.09562,0.37041 h 0.37042 c 0.635,0 2.11667,-0.0529 3.09563,-0.37041 l -0.15875,0.84666 c -0.0265,0.0794 0,0.15875 0.0529,0.21167 0.0529,0.0529 0.13228,0.10583 0.21166,0.10583 h 1.5875 c 0.13229,0 0.23812,-0.10583 0.26458,-0.21166 0.0794,-0.55563 0.18521,-1.13771 0.29104,-1.74625 0.635,-3.78355 1.29646,-7.69938 -0.13229,-9.63084 z m -8.65187,-1.05833 c -0.0529,-0.238125 -0.0265,-0.608542 0.0265,-1.005417 0.29104,0.47625 0.8202,0.926042 1.37583,1.322917 z m 0.92604,-0.767292 c 0.50271,-0.370417 1.56104,-0.608542 2.32833,-0.608542 0.76729,0 1.82563,0.238125 2.32834,0.608542 -0.58209,0.582083 -1.50813,1.164167 -2.32834,1.481662 -0.84666,-0.291037 -1.74625,-0.899579 -2.32833,-1.481662 z m 5.52979,-0.238125 c 0.0529,0.370417 0.0794,0.767292 0.0265,1.005417 l -1.40229,0.3175 c 0.55562,-0.396875 1.08479,-0.846667 1.37583,-1.322917 z m -3.25437,-1.666875 h 0.0529 c 2.54,0 2.91042,0.555625 2.96334,0.79375 0.0265,0.211667 -0.0794,0.47625 -0.29105,0.740833 -0.66145,-0.529166 -1.93145,-0.740833 -2.69875,-0.740833 -0.76729,0 -2.01083,0.238125 -2.67229,0.740833 -0.21166,-0.264583 -0.3175,-0.529166 -0.29104,-0.740833 0.0529,-0.238125 0.42333,-0.79375 2.93688,-0.79375 z m -4.70959,14.790212 c -0.0265,-0.18521 -0.0529,-0.34396 -0.0794,-0.52917 h 1.03187 l 0.10584,0.52917 z m 1.21709,-3.28084 c -0.23813,-1.48166 -0.47625,-3.38666 -0.1323,-5.10646 0.3175,0.89959 0.50271,1.77271 0.52917,3.33375 0,0.34396 -0.0529,0.66146 -0.15875,0.97896 z m 3.51895,2.48709 c -2.16958,0 -3.41312,-0.34396 -3.62479,-0.52917 l 0.21167,-0.635 c 0.76729,0.23812 2.01083,0.37042 3.41312,0.37042 1.4023,0 2.6723,-0.1323 3.41313,-0.37042 l 0.21167,0.635 c -0.21167,0.18521 -1.42875,0.52917 -3.6248,0.52917 z m 3.54542,-2.48709 -0.26458,-0.79375 c -0.10584,-0.3175 -0.15875,-0.66146 -0.15875,-0.97896 0.0265,-1.56104 0.21166,-2.43416 0.52916,-3.33375 0.37042,1.7198 0.1323,3.59834 -0.10583,5.10646 z m 0.18521,3.28084 0.10583,-0.52917 h 1.03188 c -0.0265,0.18521 -0.0529,0.34396 -0.0794,0.52917 z m 1.27,-1.50813 c -0.0265,0.15875 -0.0529,0.3175 -0.0794,0.44979 h -0.84667 c 0.0529,-0.0794 0.10584,-0.15875 0.10584,-0.26458 0,-0.0265 0,-0.0529 -0.0265,-0.0794 l -0.26459,-0.79375 v -0.0265 c 0.0265,-0.21167 0.0794,-0.44979 0.10584,-0.68792 0.26458,-1.79916 0.66145,-4.25979 -0.0529,-6.40291 -0.0265,-0.10584 -0.1323,-0.18521 -0.23813,-0.18521 -0.10583,0 -0.21167,0.0529 -0.26458,0.15875 -0.50271,1.27 -0.82021,2.19604 -0.87313,4.28625 0,0.39687 0.0529,0.79375 0.18521,1.16416 l 0.47625,1.42875 c -0.66146,0.21167 -1.905,0.34396 -3.22792,0.34396 -1.32291,0 -2.54,-0.13229 -3.25437,-0.34396 l 0.47625,-1.42875 c 0.1323,-0.37042 0.18522,-0.76729 0.18522,-1.16417 -0.0529,-2.0902 -0.34396,-3.01625 -0.87313,-4.28625 -0.0529,-0.10583 -0.13229,-0.15875 -0.26458,-0.15875 -0.10583,0 -0.21167,0.0794 -0.23813,0.18521 -0.71437,2.16959 -0.34395,4.60375 -0.0529,6.40292 0.0264,0.23812 0.0794,0.47625 0.10583,0.68792 v 0.0265 l -0.26458,0.79375 c 0,0.0265 -0.0265,0.0529 -0.0265,0.0794 0,0.10583 0.0265,0.1852 0.10583,0.26458 h -0.84666 c -0.0265,-0.15875 -0.0529,-0.3175 -0.0794,-0.44979 -0.555625,-3.51896 -1.243541,-7.48771 0.0529,-9.23396 0.37041,-0.50271 0.87312,-0.79375 1.53458,-0.87312 l 2.11667,0.50271 v 4.23333 c 0,0.15875 0.10583,0.26458 0.26458,0.26458 0.15875,0 0.26458,-0.10583 0.26458,-0.26458 v -4.1275 l 0.74084,0.15875 h 0.10583 l 0.74083,-0.15875 v 4.1275 c 0,0.15875 0.10584,0.26458 0.26459,0.26458 0.15875,0 0.26458,-0.10583 0.26458,-0.26458 v -4.25979 l 2.11667,-0.50271 c 0.66146,0.10583 1.19062,0.39687 1.53458,0.87312 1.32292,1.77271 0.635,5.74146 0.0265,9.26042 z"
       inkscape:connector-curvature="0"
       style="stroke-width:0.26458332" />
  </g>
</svg>
