<?xml version="1.0" encoding="utf-8"?>
<!-- Generator: Adobe Illustrator 20.1.0, SVG Export Plug-In . SVG Version: 6.00 Build 0)  -->
<svg version="1.1" id="Слой_1" xmlns="http://www.w3.org/2000/svg" xmlns:xlink="http://www.w3.org/1999/xlink" x="0px" y="0px"
	 viewBox="0 0 100 125" style="enable-background:new 0 0 100 125;" xml:space="preserve">
<title>Artboard 15</title>
<path d="M25.3,78.9c2,0.8,4.3,0.4,5.8-1.2l6-6h19.1c5.4,0,9.8-4.4,9.8-9.8V39.2c0-5.4-4.4-9.8-9.8-9.8h-41c-5.4,0-9.8,4.4-9.8,9.8
	V62c0,5.4,4.4,9.8,9.8,9.8H22V74C22,76.2,23.3,78.1,25.3,78.9z M15.3,66.8c-2.7,0-4.8-2.1-4.8-4.8V39.2c0-2.7,2.1-4.8,4.8-4.8h41
	c2.7,0,4.8,2.1,4.8,4.8V62c0,2.7-2.1,4.8-4.8,4.8c0,0,0,0,0,0H36.1c-0.7,0-1.3,0.3-1.8,0.7l-6.7,6.7c-0.1,0.1-0.3,0.1-0.4,0.1
	c-0.1-0.1-0.2-0.2-0.2-0.3v-4.7c0-1.4-1.1-2.5-2.5-2.5H15.3z M38,91v-4.8c0-4.2,3.4-7.5,7.5-7.5h8.7c2.1,0,4,0.8,5.5,2.3h0.8
	c7-0.1,12.9-5.1,14.2-11.9c-0.9-1-1.6-2.2-2-3.6c-0.4-1.3-0.7-2.7-0.7-4.1c0-3.2,0-6.7,0-10.4c0-1.4,0.2-2.7,0.6-4
	c0.6-2.2,2.1-4.1,4-5.4c0-0.7-0.1-1.4-0.2-2.2C73.9,24.7,60,14.6,45.2,16.8c-5.7,0.7-11.1,3.3-15.3,7.3c-1,1-2.6,1-3.5,0
	c-1-1-1-2.6,0-3.5c0,0,0,0,0,0c4.9-4.7,11.2-7.8,18-8.7C62,9.2,78.4,21.2,81.3,38.6c0.2,1.4,0.3,2.8,0.4,4.2V43
	c0.1,1.1-0.6,2.1-1.6,2.5c-1.3,0.5-2.3,1.6-2.7,3C77.1,49.3,77,50.1,77,51c0,3.7,0,7.1,0,10.3c0,0.9,0.1,1.8,0.4,2.7
	c0.3,0.9,0.8,1.7,1.5,2.3c0.6,0.5,1,1.3,0.9,2.2c-1,9.9-9.4,17.5-19.3,17.6h-2c-0.8,0-1.6-0.4-2.1-1.2c-0.5-0.7-1.2-1.2-2.1-1.2
	h-8.7c-1.4,0-2.5,1.1-2.6,2.5c0,0,0,0,0,0V91c0,1.4,1.1,2.5,2.5,2.5h8.7c0.9,0,1.6-0.5,2.1-1.2c0.5-0.7,1.3-1.1,2.1-1.2h2
	c13,0,23.7-10.1,24.6-23c0.1-0.8,0.6-1.6,1.3-2c0.3-0.2,0.6-0.4,0.9-0.6c1.3-0.9,2.2-2.3,2.2-3.9c0.1-3.5,0.1-7.1,0-10.9
	c0-1.4-0.7-2.7-1.8-3.6c-0.6-0.5-0.9-1.2-0.9-2c0.3-9.8-3.2-19.2-9.8-26.4C71.8,12.9,64.7,8.8,57,7.3C42.3,4.6,30,8.8,20.3,19.9
	c-1.1,1.2-2,2.5-2.9,3.8c-0.8,1.1-2.3,1.5-3.5,0.7c-1.1-0.8-1.5-2.3-0.7-3.5l0,0c1-1.5,2.1-3,3.3-4.3C27.5,4,41.4-0.7,57.9,2.4
	c8.8,1.7,16.8,6.2,22.8,13c7.2,7.8,11.2,18.1,11.2,28.8c1.7,1.8,2.6,4.1,2.6,6.5c0,3.8,0,7.5,0,11c-0.1,3.1-1.7,6.1-4.3,7.8
	l-0.3,0.2c-1.7,15-14.4,26.3-29.5,26.4h-0.8c-1.4,1.5-3.4,2.3-5.4,2.3h-8.7C41.4,98.5,38,95.2,38,91z M28.3,52.1
	c0-1.4,1.1-2.5,2.5-2.5c1.4,0,2.5,1.1,2.5,2.5s-1.1,2.5-2.5,2.5C29.4,54.6,28.3,53.5,28.3,52.1z M38.3,52.1c0-1.4,1.1-2.5,2.5-2.5
	s2.5,1.1,2.5,2.5s-1.1,2.5-2.5,2.5C39.4,54.6,38.3,53.4,38.3,52.1L38.3,52.1z M48.3,52.1c0-1.4,1.1-2.5,2.5-2.5s2.5,1.1,2.5,2.5
	s-1.1,2.5-2.5,2.5C49.5,54.6,48.4,53.4,48.3,52.1L48.3,52.1z M23.2,52.1c0,1.4-1.1,2.5-2.5,2.5s-2.5-1.1-2.5-2.5s1.1-2.5,2.5-2.5
	C22,49.6,23.2,50.6,23.2,52.1C23.2,52,23.2,52.1,23.2,52.1L23.2,52.1z"/>
</svg>
