<svg xmlns="http://www.w3.org/2000/svg" viewBox="0 0 100 125"><title>Artboard 15</title><path d="M25.3 78.9c2 .8 4.3.4 5.8-1.2l6-6h19.1c5.4 0 9.8-4.4 9.8-9.8V39.2c0-5.4-4.4-9.8-9.8-9.8h-41c-5.4 0-9.8 4.4-9.8 9.8V62c0 5.4 4.4 9.8 9.8 9.8H22V74c0 2.2 1.3 4.1 3.3 4.9zm-10-12.1c-2.7 0-4.8-2.1-4.8-4.8V39.2c0-2.7 2.1-4.8 4.8-4.8h41c2.7 0 4.8 2.1 4.8 4.8V62c0 2.7-2.1 4.8-4.8 4.8H36.1c-.7 0-1.3.3-1.8.7l-6.7 6.7c-.1.1-.3.1-.4.1-.1-.1-.2-.2-.2-.3v-4.7c0-1.4-1.1-2.5-2.5-2.5h-9.2zM38 91v-4.8c0-4.2 3.4-7.5 7.5-7.5h8.7c2.1 0 4 .8 5.5 2.3h.8c7-.1 12.9-5.1 14.2-11.9-.9-1-1.6-2.2-2-3.6-.4-1.3-.7-2.7-.7-4.1V51c0-1.4.2-2.7.6-4 .6-2.2 2.1-4.1 4-5.4 0-.7-.1-1.4-.2-2.2C73.9 24.7 60 14.6 45.2 16.8c-5.7.7-11.1 3.3-15.3 7.3-1 1-2.6 1-3.5 0-1-1-1-2.6 0-3.5 4.9-4.7 11.2-7.8 18-8.7 17.6-2.7 34 9.3 36.9 26.7.2 1.4.3 2.8.4 4.2v.2c.1 1.1-.6 2.1-1.6 2.5-1.3.5-2.3 1.6-2.7 3-.3.8-.4 1.6-.4 2.5v10.3c0 .9.1 1.8.4 2.7.3.9.8 1.7 1.5 2.3.6.5 1 1.3.9 2.2-1 9.9-9.4 17.5-19.3 17.6h-2c-.8 0-1.6-.4-2.1-1.2-.5-.7-1.2-1.2-2.1-1.2h-8.7c-1.4 0-2.5 1.1-2.6 2.5V91c0 1.4 1.1 2.5 2.5 2.5h8.7c.9 0 1.6-.5 2.1-1.2s1.3-1.1 2.1-1.2h2c13 0 23.7-10.1 24.6-23 .1-.8.6-1.6 1.3-2l.9-.6c1.3-.9 2.2-2.3 2.2-3.9.1-3.5.1-7.1 0-10.9 0-1.4-.7-2.7-1.8-3.6-.6-.5-.9-1.2-.9-2 .3-9.8-3.2-19.2-9.8-26.4C71.8 12.9 64.7 8.8 57 7.3 42.3 4.6 30 8.8 20.3 19.9c-1.1 1.2-2 2.5-2.9 3.8-.8 1.1-2.3 1.5-3.5.7-1.1-.8-1.5-2.3-.7-3.5 1-1.5 2.1-3 3.3-4.3C27.5 4 41.4-.7 57.9 2.4c8.8 1.7 16.8 6.2 22.8 13 7.2 7.8 11.2 18.1 11.2 28.8 1.7 1.8 2.6 4.1 2.6 6.5v11c-.1 3.1-1.7 6.1-4.3 7.8l-.3.2c-1.7 15-14.4 26.3-29.5 26.4h-.8c-1.4 1.5-3.4 2.3-5.4 2.3h-8.7c-4.1.1-7.5-3.2-7.5-7.4zm-9.7-38.9c0-1.4 1.1-2.5 2.5-2.5s2.5 1.1 2.5 2.5-1.1 2.5-2.5 2.5-2.5-1.1-2.5-2.5zm10 0c0-1.4 1.1-2.5 2.5-2.5s2.5 1.1 2.5 2.5-1.1 2.5-2.5 2.5-2.5-1.2-2.5-2.5zm10 0c0-1.4 1.1-2.5 2.5-2.5s2.5 1.1 2.5 2.5-1.1 2.5-2.5 2.5c-1.3 0-2.4-1.2-2.5-2.5zm-25.1 0c0 1.4-1.1 2.5-2.5 2.5s-2.5-1.1-2.5-2.5 1.1-2.5 2.5-2.5c1.3 0 2.5 1 2.5 2.5 0-.1 0 0 0 0z"/></svg>