<?xml version="1.0" encoding="UTF-8" standalone="no"?>
<!-- Created with Inkscape (http://www.inkscape.org/) -->

<svg
   xmlns:dc="http://purl.org/dc/elements/1.1/"
   xmlns:cc="http://creativecommons.org/ns#"
   xmlns:rdf="http://www.w3.org/1999/02/22-rdf-syntax-ns#"
   xmlns:svg="http://www.w3.org/2000/svg"
   xmlns="http://www.w3.org/2000/svg"
   xmlns:sodipodi="http://sodipodi.sourceforge.net/DTD/sodipodi-0.dtd"
   xmlns:inkscape="http://www.inkscape.org/namespaces/inkscape"
   viewBox="0 0 23.283333 20.663958"
   version="1.1"
   id="svg80"
   inkscape:version="0.92.1 r15371"
   sodipodi:docname="purse.svg">
  <defs
     id="defs74" />
  <sodipodi:namedview
     id="base"
     pagecolor="#ffffff"
     bordercolor="#666666"
     borderopacity="1.0"
     inkscape:pageopacity="0.0"
     inkscape:pageshadow="2"
     inkscape:zoom="0.35"
     inkscape:cx="66.857141"
     inkscape:cy="84.764277"
     inkscape:document-units="mm"
     inkscape:current-layer="layer1"
     showgrid="false"
     fit-margin-top="0"
     fit-margin-left="0"
     fit-margin-right="0"
     fit-margin-bottom="0"
     inkscape:window-width="1920"
     inkscape:window-height="1018"
     inkscape:window-x="-8"
     inkscape:window-y="-8"
     inkscape:window-maximized="1" />
  <metadata
     id="metadata77">
    <rdf:RDF>
      <cc:Work
         rdf:about="">
        <dc:format>image/svg+xml</dc:format>
        <dc:type
           rdf:resource="http://purl.org/dc/dcmitype/StillImage" />
        <dc:title></dc:title>
      </cc:Work>
    </rdf:RDF>
  </metadata>
  <g
     inkscape:label="Layer 1"
     inkscape:groupmode="layer"
     id="layer1"
     transform="translate(-88.144048,-150.59659)">
    <g
       id="g90"
       transform="matrix(0.26458333,0,0,0.26458333,86.556548,-104.30299)">
      <path
         id="path82"
         d="m 61.8,999.2 c -2,0 -3.4,1.7 -3.4,3.5 v 16.8 c 0,1.8 1.4,3.5 3.4,3.5 h 28.8 c 2,0 3.4,-1.7 3.4,-3.5 v -16.8 c 0,-1.8 -1.4,-3.5 -3.4,-3.5 0,0 -28.8,0 -28.8,0 z m 0.6,4 H 90 v 15.9 H 62.4 Z"
         inkscape:connector-curvature="0" />
      <path
         id="path84"
         d="m 70.5,1005.2 c -3.3,0 -6,2.7 -6,6 0,3.3 2.7,6 6,6 3.3,0 6,-2.7 6,-6 0,-3.3 -2.7,-6 -6,-6 z m 0,4 c 1.1,0 2,0.9 2,2 0,1.1 -0.9,2 -2,2 -1.1,0 -2,-0.9 -2,-2 0,-1.1 0.9,-2 2,-2 z"
         inkscape:connector-curvature="0" />
      <path
         id="path86"
         d="m 48.7,963.4 c -0.4,0.1 -0.8,0.3 -1.2,0.6 l -19.8,19.7 h -8.8 c -1.1,0 -2,0.9 -2,2 0,1.1 0.9,2 2,2 0,0 0,0 0,0 h 65.7 c 0.8,0 1.4,0.6 1.4,1.2 v 5.8 c 0,1.1 0.9,2 2,2 1.1,0 2,-0.9 2,-2 0,0 0,0 0,0 v -5.8 c 0,-2.9 -2.5,-5.2 -5.4,-5.2 v 0 -5.1 c 0,0 0,0 0,-0.1 -0.1,-2.2 -1.3,-4 -2.8,-5.1 -1.5,-1.1 -3.3,-1.7 -5,-1.7 H 66.5 c -1.1,0 -2,0.9 -2,2 0,1.1 0.9,2 2,2 0,0 0,0 0,0 h 10.3 c 0.7,0 1.8,0.3 2.6,0.9 0.8,0.6 1.2,1.2 1.2,2 v 5.1 H 70.1 L 50.3,964 c -0.4,-0.4 -0.9,-0.6 -1.4,-0.6 -0.1,0 -0.1,0 -0.2,0 z m 0.2,4.8 15.5,15.5 h -31 c 0,-0.1 15.5,-15.5 15.5,-15.5 z"
         inkscape:connector-curvature="0" />
      <path
         id="path88"
         d="m 12.2,971.7 c -3.6,0 -6.2,3.4 -6.2,7.1 v 55.6 c 0,3.7 2.6,7.1 6.2,7.1 h 71.7 c 3.6,0 6.2,-3.4 6.2,-7.1 v -5.4 c 0,-1.1 -0.9,-2 -2,-2 -1.1,0 -2,0.9 -2,2 0,0 0,0 0,0 v 5.4 c 0,1.9 -1.2,3.1 -2.2,3.1 H 12.2 c -1,0 -2.2,-1.2 -2.2,-3.1 v -55.6 c 0,-1.9 1.2,-3.1 2.2,-3.1 h 19.7 c 1.1,0 2,-0.9 2,-2 0,-1.1 -0.9,-2 -2,-2 0,0 0,0 -0.1,0 z"
         inkscape:connector-curvature="0" />
    </g>
  </g>
</svg>
