<svg xmlns="http://www.w3.org/2000/svg" viewBox="0 0 23.283333 20.663958"><path d="M14.764 9.472c-.53 0-.9.45-.9.926v4.445c0 .476.37.926.9.926h7.62c.529 0 .9-.45.9-.926v-4.445c0-.476-.371-.926-.9-.926h-7.62zm.158 1.058h7.303v4.207h-7.303z"/><path d="M17.066 11.06c-.874 0-1.588.714-1.588 1.587s.714 1.588 1.588 1.588c.873 0 1.587-.715 1.587-1.588 0-.873-.714-1.587-1.587-1.587zm0 1.058a.53.53 0 0 1 .529.53.53.53 0 0 1-.53.528.53.53 0 0 1-.529-.529.53.53 0 0 1 .53-.53zM11.298 0a.894.894 0 0 0-.318.159L5.741 5.37H3.413a.53.53 0 0 0-.529.53c0 .29.238.528.53.528h17.382c.212 0 .37.16.37.318V8.28a.53.53 0 0 0 1.058 0h.001V6.747c0-.767-.661-1.376-1.429-1.376V3.995a1.785 1.785 0 0 0-.74-1.35 2.278 2.278 0 0 0-1.324-.449h-2.725a.53.53 0 0 0-.529.53c0 .29.238.528.53.528h2.724c.186 0 .477.08.688.239.212.158.318.317.318.529V5.37H16.96L11.72.159A.522.522 0 0 0 11.35 0h-.053zm.053 1.27l4.1 4.101H7.25c0-.026 4.1-4.101 4.1-4.101z"/><path d="M1.64 2.196c-.952 0-1.64.9-1.64 1.879v14.71c0 .98.688 1.879 1.64 1.879h18.971c.953 0 1.64-.9 1.64-1.879v-1.428a.53.53 0 0 0-.529-.53.53.53 0 0 0-.529.53v1.428c0 .503-.317.82-.582.82H1.641c-.265 0-.583-.317-.583-.82V4.075c0-.503.318-.82.582-.82h5.213a.53.53 0 0 0 .529-.53.53.53 0 0 0-.53-.529h-.026z"/></svg>