<svg xmlns="http://www.w3.org/2000/svg" viewBox="0 0 98.062057 127.98926" id="svg3741"><defs id="defs3735"><style id="style6"/></defs><g id="layer1" transform="translate(-16.273 -11.863)"><g id="g3848" transform="translate(-29.765 -31.814) scale(.02556)" fill-rule="evenodd"><g id="__x0023_Layer_x0020_1">&gt;<path id="path26" d="M5477 2477c-81-209-199-333-324-450s-347-230-531-269c-133-34-328-49-578-49H2100v2840l2.42 729.81-298.643.708-1.417 478.278h297.762L2100 6717h557l-8.849-960.621h1959.29l.5-478.364-1943.267-.501L2657 4549h1431c537 0 922-150 1162-442 229-279 369-523 369-951 0-248-69-476-143-680zm-732 1314c-140 160-325 238-649 238H2658V2242h1427c228 0 386 15 467 44 134 85 239 151 317 296 81 151 121 330 121 534 0 291-113 520-246 675z"/></g></g></g></svg>