<?xml version="1.0" encoding="UTF-8" standalone="no"?>
<!-- Created with Inkscape (http://www.inkscape.org/) -->

<svg
   xmlns:dc="http://purl.org/dc/elements/1.1/"
   xmlns:cc="http://creativecommons.org/ns#"
   xmlns:rdf="http://www.w3.org/1999/02/22-rdf-syntax-ns#"
   xmlns:svg="http://www.w3.org/2000/svg"
   xmlns="http://www.w3.org/2000/svg"
   xmlns:sodipodi="http://sodipodi.sourceforge.net/DTD/sodipodi-0.dtd"
   xmlns:inkscape="http://www.inkscape.org/namespaces/inkscape"
   viewBox="0 0 98.062057 127.98926"
   version="1.1"
   id="svg3741"
   inkscape:version="0.92.1 r15371"
   sodipodi:docname="rubl3.svg">
  <defs
     id="defs3735">
    <style
       id="style6"
       type="text/css" />
  </defs>
  <sodipodi:namedview
     id="base"
     pagecolor="#ffffff"
     bordercolor="#666666"
     borderopacity="1.0"
     inkscape:pageopacity="0.0"
     inkscape:pageshadow="2"
     inkscape:zoom="1.5126683"
     inkscape:cx="219.28776"
     inkscape:cy="176.65981"
     inkscape:document-units="mm"
     inkscape:current-layer="layer1"
     showgrid="false"
     fit-margin-top="0"
     fit-margin-left="0"
     fit-margin-right="0"
     fit-margin-bottom="0"
     inkscape:window-width="1920"
     inkscape:window-height="1018"
     inkscape:window-x="-8"
     inkscape:window-y="-8"
     inkscape:window-maximized="1" />
  <metadata
     id="metadata3738">
    <rdf:RDF>
      <cc:Work
         rdf:about="">
        <dc:format>image/svg+xml</dc:format>
        <dc:type
           rdf:resource="http://purl.org/dc/dcmitype/StillImage" />
        <dc:title></dc:title>
      </cc:Work>
    </rdf:RDF>
  </metadata>
  <g
     inkscape:label="Layer 1"
     inkscape:groupmode="layer"
     id="layer1"
     transform="translate(-16.272657,-11.863344)">
    <g
       style="fill-rule:evenodd"
       id="g3848"
       transform="matrix(0.02555696,0,0,0.02555696,-29.764571,-31.813501)">
      <g
         id="__x0023_Layer_x0020_1"><metadata
   id="CorelCorpID_0Corel-Layer" />
&gt;
  <path
   id="path26"
   d="m 5477,2477 c -81,-209 -199,-333 -324,-450 -125,-117 -347,-230 -531,-269 -133,-34 -328,-49 -578,-49 H 2100 v 2320 0 520 0 l 2.4197,729.8095 -298.6422,0.7088 -1.4175,478.2776 h 297.7616 L 2100,6717 h 557 l -8.8486,-960.6215 h 1959.2891 l 0.5012,-478.3637 -1943.2674,-0.5011 L 2657,4549 h 35 1396 c 537,0 922,-150 1162,-442 229,-279 369,-523 369,-951 0,-248 -69,-476 -143,-680 z m -732,1314 v 0 c -140,160 -325,238 -649,238 H 2693 v 0 h -35 V 2242 h 1427 c 228,0 386,15 467,44 134,85 239,151 317,296 81,151 121,330 121,534 0,291 -113,520 -246,675 z"
   inkscape:connector-curvature="0"
   sodipodi:nodetypes="cscscccccccccccccccccscsccccsccccsccscc" />
</g>
    </g>
  </g>
</svg>
