<?xml version="1.0" encoding="UTF-8" standalone="no"?>
<!-- Created with Inkscape (http://www.inkscape.org/) -->

<svg
   xmlns:dc="http://purl.org/dc/elements/1.1/"
   xmlns:cc="http://creativecommons.org/ns#"
   xmlns:rdf="http://www.w3.org/1999/02/22-rdf-syntax-ns#"
   xmlns:svg="http://www.w3.org/2000/svg"
   xmlns="http://www.w3.org/2000/svg"
   xmlns:sodipodi="http://sodipodi.sourceforge.net/DTD/sodipodi-0.dtd"
   xmlns:inkscape="http://www.inkscape.org/namespaces/inkscape"
   viewBox="0 0 22.308455 12.634304"
   version="1.1"
   id="svg8"
   inkscape:version="0.92.1 r15371"
   sodipodi:docname="russia.svg">
  <defs
     id="defs2" />
  <sodipodi:namedview
     id="base"
     pagecolor="#ffffff"
     bordercolor="#666666"
     borderopacity="1.0"
     inkscape:pageopacity="0.0"
     inkscape:pageshadow="2"
     inkscape:zoom="0.35"
     inkscape:cx="193.58624"
     inkscape:cy="-161.83803"
     inkscape:document-units="mm"
     inkscape:current-layer="layer1"
     showgrid="false"
     fit-margin-top="0"
     fit-margin-left="0"
     fit-margin-right="0"
     fit-margin-bottom="0"
     inkscape:window-width="1920"
     inkscape:window-height="1018"
     inkscape:window-x="-8"
     inkscape:window-y="-8"
     inkscape:window-maximized="1" />
  <metadata
     id="metadata5">
    <rdf:RDF>
      <cc:Work
         rdf:about="">
        <dc:format>image/svg+xml</dc:format>
        <dc:type
           rdf:resource="http://purl.org/dc/dcmitype/StillImage" />
        <dc:title></dc:title>
      </cc:Work>
    </rdf:RDF>
  </metadata>
  <g
     inkscape:label="Layer 1"
     inkscape:groupmode="layer"
     id="layer1"
     transform="translate(-54.613641,-93.379385)">
    <path
       id="path10"
       d="m 76.710418,99.663452 c 0.02646,-0.15875 0.02646,-0.3175 -0.132291,-0.449792 0.05292,-0.105833 0.05292,-0.264583 0,-0.396875 -0.02646,-0.105833 -0.105834,-0.15875 -0.185209,-0.211666 v 0 c 0.02646,-0.211667 -0.105833,-0.423334 -0.3175,-0.502709 -0.02646,0 -0.05292,-0.02646 -0.105833,-0.02646 0,-0.02646 -0.02646,-0.02646 -0.02646,-0.02646 -0.07937,-0.105834 -0.211667,-0.15875 -0.343959,-0.15875 0,-0.02646 -0.02646,-0.02646 -0.02646,-0.05292 0.02646,-0.05292 0.05292,-0.132292 0.05292,-0.185208 0.07937,-0.105834 0.07937,-0.238125 0.07937,-0.3175 v -0.02646 c 0.05292,-0.02646 0.132291,-0.05292 0.185208,-0.132291 0.132292,-0.15875 0.07938,-0.343959 0.05292,-0.449792 -0.02646,-0.05292 -0.02646,-0.132292 -0.05292,-0.185208 0,-0.05292 -0.02646,-0.15875 -0.05292,-0.238125 0,-0.02646 -0.02646,-0.15875 -0.02646,-0.291042 0,-0.05292 0,-0.132291 -0.02646,-0.185208 0.02646,-0.05292 0.07937,-0.07937 0.07937,-0.132292 0.105833,-0.211666 0.02646,-0.396875 0,-0.449791 -0.105834,-0.185209 -0.343959,-0.211667 -0.502709,-0.211667 -0.05292,0 -0.07938,0 -0.132291,0 0,-0.05292 -0.02646,-0.07937 -0.05292,-0.132292 v 0 c 0.07937,-0.02646 0.185208,-0.07937 0.264583,-0.185208 0.05292,-0.05292 0.07937,-0.105833 0.132292,-0.15875 0.07937,-0.07937 0.132292,-0.185208 0.132292,-0.3175 0,-0.132292 -0.05292,-0.264583 -0.185209,-0.343958 -0.02646,0 -0.02646,-0.02646 -0.05292,-0.02646 -0.02643,-0.02645 -0.07935,-0.05291 -0.132267,-0.07937 v 0 c -0.02646,-0.132291 -0.05292,-0.264583 -0.238125,-0.370416 -0.211667,-0.105834 -0.396875,0.02646 -0.47625,0.07937 -0.02646,0.02646 -0.07937,0.05292 -0.07937,0.05292 -0.132292,0.05292 -0.238125,0.132292 -0.291042,0.238125 -0.02646,0.02646 -0.02646,0.07937 -0.02646,0.105834 -0.07937,0.02646 -0.185208,0.05292 -0.264583,0.132291 -0.02646,0 -0.02646,0.02646 -0.05292,0.02646 -0.05292,0.02646 -0.132292,0.05292 -0.185208,0.105834 0,0 -0.05292,0.05292 -0.105834,0.05292 -0.343958,0.185208 -0.582083,0.343958 -0.740833,0.608542 -0.02646,0.02646 -0.05292,0.07937 -0.07937,0.132291 0,0 0,0 -0.02646,0.02646 -0.185209,0.185209 -0.185209,0.370417 -0.185209,0.47625 -0.02646,0.02646 -0.05292,0.07937 -0.07937,0.15875 -0.105833,0.05292 -0.185208,0.15875 -0.238125,0.264584 -0.05292,0 -0.105833,-0.02646 -0.185208,-0.02646 -0.238125,0 -0.396875,0.07937 -0.529167,0.238125 -0.07937,0.07937 -0.105833,0.15875 -0.132291,0.211666 v 0 c -0.185209,-0.15875 -0.423334,-0.05292 -0.502709,-0.02646 -0.105833,0.02646 -0.15875,0.07937 -0.211666,0.158749 -0.132292,0 -0.238125,0.05292 -0.3175,0.105834 -0.105834,0.05292 -0.343959,0.15875 -0.343959,0.396875 -0.02646,0.07938 -0.05292,0.15875 -0.02646,0.264583 -0.02646,0 -0.05292,0.02646 -0.05292,0.02646 -0.02646,0.02646 -0.05292,0.05292 -0.07937,0.07938 -0.05292,0 -0.105833,0.02646 -0.132291,0.02646 -0.05292,-0.07937 -0.105834,-0.132291 -0.185209,-0.211667 -0.238125,-0.185207 -0.423333,-0.132291 -0.555625,-0.05292 -0.238125,0 -0.343958,0.105834 -0.396875,0.185209 -0.02646,0.02646 -0.02646,0.05292 -0.05292,0.07937 0,-0.07937 -0.105834,-0.105834 -0.211667,-0.07937 0,-0.02646 0,-0.05292 0,-0.07938 0,-0.05292 -0.02646,-0.132292 -0.05292,-0.185209 0,-0.211666 -0.15875,-0.3175 -0.238125,-0.370416 -0.15875,-0.105834 -0.3175,-0.15875 -0.47625,-0.15875 -0.02646,-0.05292 -0.05292,-0.07937 -0.105833,-0.132291 -0.15875,-0.132292 -0.343958,-0.132292 -0.529167,-0.02646 -0.132291,0.07937 -0.238125,0.211666 -0.3175,0.370416 l -0.02646,0.02646 c -0.02646,0 -0.05292,0 -0.05292,-0.02646 -0.132291,-0.02646 -0.291041,0.02646 -0.396875,0.105834 -0.185208,0.02646 -0.47625,0.132291 -0.582083,0.3175 0,0 0,0.02646 -0.02646,0.02646 -0.02646,0.02646 -0.05292,0.07938 -0.07938,0.132292 h -0.02645 -0.264583 c -0.15875,0 -0.291042,0.07937 -0.343958,0.211666 -0.02646,-0.02646 -0.07938,-0.05292 -0.132292,-0.05292 -0.05292,-0.132292 -0.15875,-0.211667 -0.291042,-0.264584 -0.105833,-0.05292 -0.15875,-0.05292 -0.238125,-0.05292 -0.15875,0 -0.211666,0.05292 -0.449791,0.264583 -0.02646,0.02646 -0.07938,0.05292 -0.07938,0.07938 -0.15875,0.02646 -0.264584,0.132292 -0.3175,0.264583 -0.264584,-0.264583 -0.47625,-0.238125 -0.608542,-0.185208 -0.02646,0 -0.05292,0.02646 -0.07938,0.05292 -0.02646,0 -0.07938,0 -0.105833,0 l -0.02646,-0.02646 c 0,-0.02646 -0.02646,-0.05292 -0.02646,-0.07938 -0.0529,-0.10583 -0.185195,-0.26458 -0.476237,-0.238122 -0.07938,-0.02646 -0.15875,-0.05292 -0.238125,-0.07937 0.05292,-0.343958 -0.15875,-0.47625 -0.291042,-0.502708 -0.07937,-0.02646 -0.15875,-0.02646 -0.264583,-0.02646 0.02646,-0.3175 -0.02646,-0.661458 -0.07937,-0.79375 0,-0.02646 0.02646,-0.05292 0.02646,-0.07937 0,-0.07937 0,-0.211667 -0.105833,-0.370417 -0.07938,-0.07937 -0.185208,-0.15875 -0.264583,-0.15875 -0.15875,-0.105833 -0.3175,-0.132291 -0.502709,-0.105833 -0.132291,0.02646 -0.343958,0.07937 -0.423333,0.3175 -0.211667,0.05292 -0.343958,0.211667 -0.423333,0.3175 -0.132292,0.05292 -0.264584,0.132292 -0.343959,0.238125 -0.05292,0.02646 -0.105833,0.05292 -0.132291,0.105833 -0.105834,0.05292 -0.185209,0.132292 -0.238125,0.238125 v 0.02646 c -0.132292,-0.02646 -0.3175,-0.05292 -0.396875,-0.07937 -0.264584,-0.07937 -0.423334,0.07937 -0.449792,0.132291 0,0 0,0 -0.02646,0.02646 -0.105834,0 -0.211667,0.02646 -0.3175,0.07937 -0.02646,0.02646 -0.07937,0.05292 -0.132292,0.07938 -0.07937,0 -0.15875,0.02646 -0.238125,0.07938 -0.07937,0.02646 -0.132292,0.07937 -0.15875,0.132292 -0.07937,0.05292 -0.132292,0.105833 -0.185208,0.185208 -0.105834,0.05292 -0.185209,0.15875 -0.211667,0.264584 -0.02646,0.105833 -0.02646,0.238125 0.02646,0.343958 0,0.02646 0,0.02646 0,0.02646 -0.02646,0.02646 -0.05292,0.05292 -0.05292,0.05292 -0.02646,0.02646 -0.07937,0.105833 -0.132292,0.211667 -0.185208,0 -0.3175,0.132291 -0.396875,0.211666 l -0.132291,0.0529 c -0.07937,0.07937 -0.105833,0.15875 -0.105833,0.264583 0,0.105834 0.05292,0.185209 0.132292,0.264584 l 0.02646,0.02646 c -0.02646,0.02646 -0.05292,0.07938 -0.05292,0.132292 -0.02646,0.105833 -0.02646,0.185208 0,0.264583 -0.05292,0.07938 -0.07937,0.185208 -0.105834,0.291042 -0.02646,0.211666 0.05292,0.343958 0.185209,0.449791 0,0.05292 0.02646,0.105834 0.05292,0.132292 h -0.02646 c -0.132292,-0.05292 -0.291042,-0.07938 -0.423334,-0.02646 -0.02646,0 -0.05292,0.02646 -0.07937,0.02646 -0.07937,0 -0.132291,0.02646 -0.211666,0.05292 -0.02646,0.0265 -0.05292,0.0265 -0.07937,0.0529 -0.105834,-0.10584 -0.264584,-0.132298 -0.396875,-0.0529 -0.132292,0.0794 -0.238125,0.23813 -0.211667,0.39688 l 0.02646,0.44979 c 0.02646,0.34396 0.02646,0.58208 0.185208,0.71438 0.02646,0.13229 0.105834,0.29104 0.185209,0.39688 v 0 c 0.02646,0.15875 0.05292,0.34395 0.238125,0.47625 0,0.0265 0,0.0529 0,0.0794 0,0.13229 0.02646,0.23812 0.07937,0.3175 v 0 c 0,0.37041 0.238125,0.60854 0.582083,0.60854 0.105834,0 0.396875,-0.0529 0.47625,-0.44979 v -0.0529 0 c 0.264584,-0.0529 0.343959,-0.26458 0.343959,-0.39687 0,-0.0265 0,-0.0265 0,-0.0529 0.211666,0.0529 0.555625,0.0794 0.687916,-0.18521 0.02646,-0.0794 0.05292,-0.15875 0.05292,-0.23812 0.02646,-0.0529 0.05292,-0.10584 0.05292,-0.15875 0,0 0,-0.0265 0,-0.0529 0.02646,-0.0529 0.02646,-0.15875 0,-0.26459 0.105833,0.0794 0.264583,0.0794 0.396875,0.0529 0.07937,-0.0265 0.132292,-0.0794 0.185208,-0.13229 0.05292,0 0.07937,0.0265 0.132292,0.0265 0.02646,0.0265 0.05292,0.0529 0.105833,0.0794 0.02646,0.0265 0.05292,0.0794 0.07937,0.10584 0,0.13229 0,0.34395 0.211667,0.44979 0.05292,0.10583 0.15875,0.18521 0.3175,0.21166 0.02646,0 0.07937,0.0265 0.132292,0.0265 0.02646,0.0265 0.05292,0.0265 0.07937,0.0529 0.05292,0.1323 0.132291,0.23813 0.238125,0.29105 0.05292,0.0265 0.07937,0.0529 0.132291,0.0529 0.105834,0.10583 0.264584,0.1852 0.449792,0.15875 0.291042,-0.0529 0.343958,-0.26459 0.343958,-0.47625 l 0.02646,-0.0265 c 0.15875,0.0265 0.264584,-0.0794 0.291042,-0.10584 0,0 0.02646,-0.0265 0.05292,-0.0794 0.02646,0 0.02646,0 0.05292,0.0265 0.264584,0.0794 0.635,0.18521 0.899584,0.18521 0,0.0794 0,0.15875 0.02646,0.23812 0.05292,0.10584 0.105833,0.18521 0.211666,0.23813 0.02646,0.0265 0.05292,0.0529 0.07937,0.0794 0.02646,0.0794 0.105834,0.18521 0.264584,0.23812 0.105833,0.0529 0.264583,0.0794 0.396875,0.0794 l 0.02646,0.0265 c 0,0.0794 0.02646,0.1323 0.05292,0.21167 0.02646,0.0529 0.05292,0.21167 0.05292,0.3175 0,0.39688 0.132291,0.60854 0.423333,0.60854 0.02646,0 0.02646,0 0.05292,0 0.07938,0.0529 0.15875,0.10584 0.264583,0.13229 0.02646,0 0.05292,0 0.105833,0 0.02646,0.0794 0.07937,0.1323 0.132292,0.18521 0.07938,0.21167 0.211667,0.3175 0.449792,0.34396 0.211666,0.21167 0.396875,0.18521 0.502708,0.15875 0.02646,0 0.05292,0 0.07937,-0.0265 0.132292,-0.0265 0.3175,-0.0529 0.449792,-0.18521 0.132291,-0.0265 0.238125,-0.0794 0.264583,-0.0794 h 0.02646 c 0.05292,0.0265 0.07938,0.0265 0.132292,0.0265 0.05292,0.0794 0.15875,0.15875 0.264583,0.21167 0.02646,0.0265 0.07938,0.0265 0.105834,0.0265 0.07938,0.0265 0.15875,0.0529 0.211666,0.0529 0.211667,0.0529 0.396875,0 0.555625,-0.18521 0.07938,-0.0794 0.105834,-0.13229 0.15875,-0.21167 0.02646,-0.0529 0.02646,-0.13229 0.02646,-0.1852 0.02646,0 0.05292,0.0265 0.07938,0.0265 0.02646,0.0794 0.07937,0.15875 0.15875,0.21166 0.211666,0.21167 0.396875,0.21167 0.449791,0.21167 0.15875,0 0.3175,-0.0794 0.343959,-0.10583 0,0 0.02646,0 0.05292,0 0.07937,0.0794 0.185209,0.10583 0.291042,0.13229 0.15875,0.13229 0.3175,0.13229 0.502708,0.13229 0.05292,0 0.105834,0 0.132292,0 0.15875,0.0529 0.343958,0 0.47625,-0.13229 0.238125,-0.0529 0.343958,-0.15875 0.396875,-0.29104 0.07937,0.0265 0.211667,0.0529 0.3175,0 l 0.15875,0.0529 c 0.132292,0.0529 0.291042,0 0.396875,-0.10584 l 0.105833,-0.10583 c 0.185209,-0.21167 0.211667,-0.37042 0.211667,-0.60854 0,-0.0529 0,-0.10584 0,-0.13229 0.05292,-0.10584 0.105833,-0.23813 0.07937,-0.37042 0,-0.0529 0,-0.0794 -0.02646,-0.10583 0.07937,0 0.15875,-0.0265 0.238125,-0.0265 0.02646,0 0.07937,0 0.105833,0 0.02646,0.0265 0.05292,0.0529 0.07938,0.0529 0,0.0265 0,0.0265 0,0.0265 0,0.10583 0.02646,0.29104 0.291042,0.39687 0.05292,0.0265 0.05292,0.0265 0.15875,0.10583 0.05292,0.0529 0.291041,0.18521 0.529166,0.1323 0.02646,0 0.05292,-0.0265 0.07937,-0.0265 0.05292,0 0.07938,0 0.132292,0 0.105833,0.15875 0.238125,0.23812 0.396875,0.26458 0.132292,0.0265 0.291042,-0.0265 0.396875,-0.10583 0,0 0,0 0,0.0265 -0.105833,0.0794 -0.15875,0.15875 -0.211667,0.23812 -0.185208,0.21167 -0.185208,0.39688 -0.02646,0.58208 0,0.0265 0.02646,0.0794 0.05292,0.1323 -0.07938,0.10583 -0.05292,0.23812 -0.02646,0.3175 0.02646,0.10583 0.132292,0.26458 0.423334,0.26458 0.132291,0 0.3175,-0.0529 0.423333,-0.26458 0.132292,0 0.238125,-0.0529 0.370417,-0.15875 0.185208,-0.15875 0.396875,-0.55563 0.343958,-0.82021 0.05292,-0.15875 0.05292,-0.37042 0.07938,-0.97896 0,-0.10583 0,-0.18521 0,-0.23813 0.02646,0.0265 0.05292,0.0529 0.05292,0.0529 0,0.0265 0,0.0529 0,0.0794 0,0.15875 0.132291,0.3175 0.185208,0.37042 0.3175,0.37042 0.582083,0.21167 0.661458,0.15875 0.02646,0 0.105834,-0.0794 0.132292,-0.18521 0,0 0,0 0.02646,0 0.185209,-0.13229 0.264584,-0.37042 0.15875,-0.60854 -0.07937,-0.18521 -0.238125,-0.29104 -0.423333,-0.3175 -0.02646,-0.0265 -0.07938,-0.0529 -0.132292,-0.0529 0.132292,-0.0529 0.238125,-0.15875 0.264584,-0.29104 0.02646,-0.18521 -0.05292,-0.34396 -0.211667,-0.42334 l -0.132314,-0.0529 c -0.02646,-0.0265 -0.15875,-0.10584 -0.264583,-0.18521 -0.132292,-0.10583 -0.211667,-0.18521 -0.291042,-0.21167 -0.05292,-0.0529 -0.105833,-0.10583 -0.185208,-0.13229 0,-0.0265 0,-0.0265 0,-0.0529 -0.02646,-0.13229 -0.105833,-0.21167 -0.238125,-0.29104 -0.05292,-0.0529 -0.105833,-0.13229 -0.15875,-0.15875 -0.132292,-0.23812 -0.3175,-0.26458 -0.396875,-0.26458 v 0 c -0.132292,0 -0.3175,0.0794 -0.396875,0.29104 -0.02646,0.0529 -0.02646,0.10583 -0.02646,0.15875 -0.105834,0 -0.185209,0.0265 -0.264584,0.0794 0,-0.0794 0,-0.15875 0,-0.23812 0,-0.0529 0,-0.10584 0,-0.1323 0.05292,-0.10583 0.07938,-0.21166 0.07938,-0.37041 0,-0.0265 0,-0.0529 0,-0.0794 0.05292,-0.10584 0.05292,-0.23813 0.02646,-0.34396 0.02646,-0.0265 0.05292,-0.0529 0.07937,-0.10583 0.05292,0 0.105833,-0.0265 0.15875,-0.0529 0.02646,-0.0265 0.132291,-0.0794 0.185208,-0.211674 0.105833,-0.05292 0.185208,-0.15875 0.264583,-0.291042 0.05292,-0.02646 0.07937,-0.02646 0.105834,-0.07938 0,0 0,0 0.02646,-0.02646 h 0.02646 c 0.132292,0 0.211667,-0.05292 0.264584,-0.07937 0.07938,-0.05292 0.105833,-0.105833 0.132291,-0.185208 0.02646,-0.02646 0.05292,-0.05292 0.07937,-0.105834 0.02646,0.02646 0.02646,0.05292 0.05292,0.05292 0.02646,0.449792 0.978958,1.058338 1.084792,1.111248 0.05292,0.0265 0.132291,0.0794 0.15875,0.10584 0.264583,0.26458 0.47625,0.23812 0.608541,0.18521 0.05292,-0.0265 0.291042,-0.1323 0.291042,-0.4498 0,-0.0265 -0.05292,-0.317498 -0.211667,-0.555623 z M 60.756043,96.250327 c -0.05292,0 -0.105833,0 -0.132291,-0.02646 0.02646,0 0.07937,0.02646 0.132291,0.02646 z m -0.211666,-1.031875 c 0.02646,-0.02646 0.05292,-0.02646 0.07938,-0.02646 -0.02646,0 -0.05292,0 -0.07938,0.02646 z M 73.50896,105.32554 v 0 l 0.185208,0.26458 z m 1.11125,-6.74688 c 0,0 -0.02646,0 0,0 v 0 c -0.02646,-0.105833 -0.05292,-0.185208 -0.05292,-0.238125 v 0 c 0,0 0,0 0.02646,0 0,0.05292 0.02646,0.07938 0.05292,0.105834 0,0.05292 0.02646,0.105833 0.05292,0.15875 -0.02646,0 -0.05292,0 -0.07938,-0.02646 z m 0.396875,-1.508125 c -0.05292,-0.185208 -0.211667,-0.264583 -0.264583,-0.264583 -0.07937,-0.02646 -0.3175,-0.07938 -0.529167,0.185208 -0.132292,0.185209 -0.15875,0.370417 -0.07938,0.529167 -0.02646,0.02646 -0.07937,0.05292 -0.07937,0.105833 -0.05292,0.05292 -0.132292,0.105834 -0.15875,0.185209 -0.02646,0.02646 -0.07937,0.07938 -0.07937,0.132291 -0.05292,0.105834 -0.105833,0.370417 0,0.582084 0,0.02646 0.02646,0.07937 0.02646,0.132291 0,0.05292 0.02646,0.15875 0.05292,0.238125 -0.05292,0.02646 -0.105833,0.05292 -0.132292,0.07937 -0.02646,0 -0.02646,0.02646 -0.05292,0.05292 -0.15875,0.05292 -0.264584,0.185208 -0.3175,0.370417 0,0 0,0 -0.02646,0 -0.05292,0.02646 -0.132291,0.07938 -0.15875,0.132291 -0.05292,0.02646 -0.132291,0.07937 -0.211666,0.132292 -0.211667,0.185208 -0.396875,0.39688 -0.343959,0.76729 -0.02646,0.0794 -0.02646,0.15875 -0.05292,0.29104 0,0.0265 0,0.0529 0,0.0794 -0.02646,0.0794 -0.07938,0.21167 -0.07938,0.4498 0,0.0794 0,0.13229 0,0.15875 -0.02646,0.0794 -0.05292,0.15875 -0.05292,0.23812 -0.05292,0.0794 -0.07938,0.18521 -0.07938,0.26458 0,0.21167 0.15875,0.4498 0.47625,0.4498 0.02646,0 0.02646,0 0.05292,0 0.07937,0.0529 0.15875,0.10583 0.291041,0.10583 0.15875,0.0529 0.370417,-0.0265 0.449792,-0.18521 0.02646,-0.0265 0.05292,-0.0265 0.07938,-0.0529 0,0.0265 0.02646,0.0265 0.05292,0.0529 0,0.21167 0.132291,0.47625 0.211666,0.58208 0.02646,0.0265 0.05292,0.10584 0.105834,0.18521 0.05292,0.10584 0.05292,0.10584 0.05292,0.68792 0,0.10583 0,0.23812 0,0.37042 0,-0.0265 -0.02646,-0.0529 -0.02646,-0.0529 0.02646,-0.1323 0,-0.26459 -0.07937,-0.37042 -0.02646,-0.26458 -0.211667,-0.39688 -0.396875,-0.39688 -0.211667,0 -0.3175,0.15875 -0.370417,0.21167 -0.02646,0.0529 -0.05292,0.0794 -0.07937,0.13229 -0.02646,0.0265 -0.07937,0.0529 -0.105833,0.0794 -0.105833,-0.10583 -0.238125,-0.13229 -0.3175,-0.13229 -0.05292,0 -0.132292,0 -0.211667,-0.0265 -0.05292,0 -0.132291,-0.0265 -0.238125,0 -0.02646,-0.0529 -0.05292,-0.10583 -0.07938,-0.15875 l -0.105839,-0.10584 -0.02646,-0.0265 c -0.05292,-0.10583 -0.132292,-0.21166 -0.264584,-0.23812 0,0 0,0 -0.02646,-0.0265 -0.211667,-0.18521 -0.370417,-0.18521 -0.661458,-0.18521 -0.343959,0.0265 -0.661459,0.0529 -0.740834,0.26458 -0.07937,0.0529 -0.291041,0.18521 -0.291041,0.4498 0,0.0794 0.02646,0.1852 0.105833,0.29104 -0.02646,0.0794 -0.05292,0.21166 -0.05292,0.37041 0,0 0,0 0,0.0265 -0.07937,-0.0265 -0.185208,-0.0265 -0.291041,0 -0.185209,-0.0794 -0.343959,-0.0265 -0.502709,0.0794 -0.02646,0.0265 -0.15875,0.10584 -0.264583,0.23813 -0.05292,0.0265 -0.132292,0.0529 -0.211667,0.10583 -0.05292,0 -0.105833,0 -0.185208,0 -0.02646,0 -0.02646,0 -0.05292,0 -0.07938,-0.0794 -0.185208,-0.13229 -0.291041,-0.13229 -0.211667,-0.15875 -0.529167,-0.15875 -0.767292,-0.0529 -0.07937,-0.23812 -0.370417,-0.37041 -0.582083,-0.39687 -0.02646,0 -0.05292,-0.0265 -0.07938,-0.0529 -0.132292,-0.23813 -0.343959,-0.21167 -0.396875,-0.18521 -0.07938,0 -0.291042,0.0794 -0.3175,0.37041 0,0 0,0 0,0.0265 -0.07937,0.0794 -0.132292,0.18521 -0.15875,0.29105 -0.07938,-0.10584 -0.185209,-0.18521 -0.423334,-0.18521 -0.185208,-0.10584 -0.423333,-0.0265 -0.529166,0.0265 -0.07937,0.0529 -0.15875,0.0529 -0.185209,0.0529 -0.185208,0 -0.3175,0.0529 -0.396875,0.15875 v 0 c -0.07937,-0.0529 -0.15875,-0.10584 -0.238125,-0.13229 -0.02646,-0.0529 -0.05292,-0.0794 -0.07937,-0.1323 -0.05291,-0.23812 -0.211656,-0.34396 -0.343948,-0.39687 -0.132292,-0.0265 -0.238125,-0.0265 -0.3175,-0.0265 -0.05292,-0.0529 -0.105833,-0.10584 -0.15875,-0.13229 0,-0.1323 -0.02646,-0.23813 -0.05292,-0.34396 0,-0.0265 -0.02646,-0.0529 -0.02646,-0.0794 0,-0.0529 0,-0.13229 -0.05292,-0.21167 0.02646,-0.0529 0.02646,-0.10583 0.02646,-0.13229 -0.02646,-0.29104 -0.3175,-0.37042 -0.423334,-0.37042 -0.05292,0 -0.185208,-0.0265 -0.3175,0 -0.02646,-0.0529 -0.05292,-0.0529 -0.07937,-0.0794 l -0.02646,-0.0265 -0.02646,-0.0265 c 0,-0.0265 -0.02646,-0.0265 -0.05292,-0.0529 v 0 c 0,-0.0794 0.02646,-0.26458 -0.105833,-0.39687 -0.05291,-0.0529 -0.132288,-0.10584 -0.238121,-0.1323 -0.15875,-0.13229 -0.3175,-0.15875 -0.502709,-0.10583 -0.05292,0 -0.264583,-0.0265 -0.635,-0.13229 -0.132291,-0.0529 -0.238125,-0.0794 -0.291041,-0.0794 -0.15875,-0.13229 -0.370417,-0.15875 -0.529167,-0.0529 -0.07937,0.0529 -0.15875,0.13229 -0.185208,0.23812 h -0.02646 c -0.02646,0.0265 -0.05292,0.0265 -0.07937,0.0529 -0.05292,0 -0.105834,0.0265 -0.15875,0.0529 -0.02646,0.0265 -0.07937,0.0529 -0.105834,0.0529 -0.02646,-0.0265 -0.05292,-0.0265 -0.07938,-0.0529 -0.07937,-0.0794 -0.185208,-0.13229 -0.291042,-0.15875 -0.02646,-0.0529 -0.05292,-0.10583 -0.07937,-0.13229 -0.02646,-0.0794 -0.05292,-0.18521 -0.132291,-0.26458 -0.02646,-0.0794 -0.05292,-0.15875 -0.132292,-0.23813 -0.02646,-0.0265 -0.07937,-0.0794 -0.15875,-0.10583 -0.07937,-0.10583 -0.211667,-0.18521 -0.449792,-0.15875 -0.07937,-0.0265 -0.185208,-0.0529 -0.3175,-0.0529 -0.02646,0 -0.07937,0 -0.105833,0 -0.105833,-0.0794 -0.238125,-0.10583 -0.423333,-0.0794 -0.07937,0 -0.264584,0.0265 -0.396875,0.18521 -0.07937,0.0265 -0.185209,0.0794 -0.264584,0.21167 -0.07937,0.10583 -0.105833,0.21166 -0.105833,0.29104 -0.02646,0.0529 -0.02646,0.0794 -0.05292,0.13229 0,0.0794 0,0.15875 0.02646,0.21166 -0.105834,0 -0.211667,0 -0.343959,0.0794 v 0 c -0.132291,0 -0.238125,0.0529 -0.3175,0.1323 -0.02646,0.0265 -0.07937,0.0794 -0.105833,0.13229 -0.02646,-0.0529 -0.07937,-0.10584 -0.15875,-0.15875 -0.02646,-0.21167 -0.07937,-0.34396 -0.185208,-0.42334 0,0 0,-0.0265 -0.02646,-0.0265 0,-0.10583 -0.05292,-0.23812 -0.132292,-0.3175 0,-0.0529 0,-0.10583 0,-0.1852 0.07938,0 0.15875,0 0.238125,-0.0529 0,0 0.02646,0 0.02646,-0.0265 0.05292,0 0.07937,0.0265 0.105834,0.0265 0.105833,0 0.185208,-0.0265 0.264583,-0.0794 0.132292,0 0.291042,-0.0529 0.396875,-0.15875 0.07937,-0.0265 0.132292,-0.0529 0.15875,-0.10584 0.07937,-0.0529 0.15875,-0.13229 0.211667,-0.23812 0.07937,-0.18521 0.05292,-0.423335 -0.02646,-0.635002 0.02646,-0.105833 0,-0.211667 -0.05292,-0.291042 0,-0.02646 -0.02646,-0.02646 -0.02646,-0.05292 0.05292,-0.07937 0.07937,-0.185209 0.05292,-0.291042 0.05292,-0.05292 0.07937,-0.132292 0.105833,-0.211667 0.02646,-0.05292 0.02646,-0.132291 0.02646,-0.185208 0.105833,-0.05292 0.15875,-0.105833 0.185208,-0.185208 0.05292,-0.07937 0.05292,-0.15875 0.05292,-0.264584 0,-0.05292 0.02646,-0.105833 0.05292,-0.132291 0.15875,-0.07938 0.264584,-0.211667 0.291042,-0.396875 0,-0.105834 0,-0.211667 -0.05292,-0.291042 v -0.02646 0 c 0.105833,0 0.238125,-0.05292 0.343958,-0.185209 0,0 0.02646,-0.02646 0.05292,-0.02646 0.185209,0.211667 0.396875,0.132292 0.449792,0.132292 0.05292,-0.02646 0.211667,-0.07938 0.264583,-0.264584 0.132292,0.02646 0.264584,0.02646 0.343959,0.02646 0.105833,0 0.264583,-0.02646 0.396875,-0.105834 -0.02646,0.105834 0,0.185209 0.02646,0.238125 0.02646,0.05292 0.05292,0.105834 0.105833,0.132292 0.07937,0.132292 0.185208,0.211667 0.343958,0.238125 0.05292,0 0.105834,0 0.132292,0 0.05292,0.05292 0.132292,0.07937 0.211667,0.105833 0.132291,0.02646 0.264583,0 0.396875,-0.105833 0.105833,0.105833 0.264583,0.185208 0.449791,0.15875 v 0 c 0.132292,0.105833 0.3175,0.15875 0.47625,0.105833 0.105834,-0.02646 0.238125,-0.02646 0.291042,0 0.02646,0.02646 0.05292,0.02646 0.07937,0.05292 0.02646,0.05292 0.05292,0.07938 0.05292,0.07938 0.07937,0.105833 0.238125,0.185208 0.370416,0.185208 0.02646,0.02646 0.07937,0.05292 0.132292,0.05292 0,0.02646 0.02646,0.02646 0.05292,0.05292 0.105833,0.105833 0.211667,0.15875 0.396876,0.132291 0.05292,0 0.132291,-0.02646 0.185208,-0.02646 0.02646,0.05292 0.07937,0.132292 0.132292,0.185208 0.02646,0.07938 0.02646,0.132292 0.05292,0.185209 -0.105833,0.07938 -0.15875,0.211666 -0.15875,0.3175 0,0.105833 0.02646,0.396875 0.396875,0.555625 0.238125,0.105833 0.370417,0.07938 0.582084,-0.02646 0.07938,-0.02646 0.132291,-0.05292 0.185208,-0.105833 0.02646,0.02646 0.07938,0.05292 0.105833,0.07938 l 0.07938,0.07937 c 0.132292,0.132292 0.3175,0.15875 0.449792,0.05292 0.132292,-0.105834 0.211667,-0.264584 0.15875,-0.423334 l -0.02646,-0.07938 c 0,-0.02646 -0.02646,-0.05292 -0.02646,-0.07937 0,-0.02646 0.02646,-0.05292 0.02646,-0.05292 0.07937,0.105833 0.211666,0.185208 0.370416,0.15875 0.238125,0 0.423334,-0.185209 0.423334,-0.423334 0,-0.05292 0,-0.105833 -0.02646,-0.15875 0.02646,-0.07938 0.02646,-0.15875 0.02646,-0.238125 0,0 0,-0.02646 0,0 0.07938,-0.132291 0.07938,-0.238125 0.05292,-0.3175 0.07938,0 0.15875,0 0.264584,-0.05292 0.238125,-0.132292 0.264583,-0.343959 0.264583,-0.47625 0,0 0,-0.02646 0.02646,-0.02646 h 0.02646 c 0.07938,0 0.15875,-0.02646 0.238125,-0.05292 0.02646,0 0.05292,0 0.07938,0 0.05292,0 0.291041,-0.02646 0.449791,-0.15875 0.07938,-0.02646 0.132292,-0.05292 0.185209,-0.07938 0.05292,0.02646 0.07938,0.05292 0.132291,0.05292 0.02646,0 0.05292,0 0.07937,0 -0.02646,0.05292 -0.05292,0.07938 -0.05292,0.105834 -0.02646,0.02646 -0.05292,0.05292 -0.105834,0.105833 -0.238125,0.238125 -0.264583,0.370417 -0.264583,0.47625 0,0.15875 0.105833,0.3175 0.264583,0.370417 0.05292,0.02646 0.238125,0.05292 0.396875,-0.105834 0.105834,-0.02646 0.185209,-0.07938 0.238125,-0.132291 v 0 c 0.15875,0.07938 0.370417,0.05292 0.502709,-0.07938 0.211666,0.105833 0.47625,0.05292 0.687916,-0.02646 0.02646,-0.02646 0.07938,-0.02646 0.105834,-0.07938 0.05292,0.05292 0.105833,0.105834 0.15875,0.132292 0.05292,0.07938 0.132291,0.132292 0.238125,0.185208 0.3175,0.132292 0.502708,0.05292 0.608541,-0.02646 0.07937,-0.07938 0.132292,-0.15875 0.132292,-0.264583 0.02646,-0.02646 0.05292,-0.02646 0.07937,-0.05292 0.185208,0 0.343958,-0.07937 0.423333,-0.238125 0.02646,-0.05292 0.05292,-0.105833 0.05292,-0.132292 0,0 0,-0.02646 0.02646,-0.02646 0.02646,-0.05292 0.02646,-0.105833 0.02646,-0.15875 0.02646,0 0.05292,0 0.07937,0 0.07938,0 0.238125,-0.05292 0.343958,-0.264583 0.05292,0 0.105833,-0.02646 0.132292,-0.02646 0.02646,0 0.05292,0 0.05292,0 0.07938,0.02646 0.238125,0 0.396875,-0.105833 0.07937,-0.05292 0.211667,-0.15875 0.264584,-0.3175 0.105833,0.07938 0.264583,0.105833 0.423333,0.05292 0.238125,-0.05292 0.423333,-0.238125 0.449792,-0.47625 0.07937,-0.05292 0.132291,-0.105833 0.185208,-0.185208 0,0 0.02646,0 0.02646,-0.02646 0.132292,0 0.264584,-0.05292 0.370417,-0.185209 0.105833,-0.132291 0.132292,-0.3175 0.05292,-0.47625 -0.02648,-0.05289 -0.05293,-0.105806 -0.10585,-0.132265 v -0.02646 c 0,0 0,0 0,-0.02646 0.05292,-0.07937 0.105834,-0.15875 0.423334,-0.3175 0.02646,-0.02646 0.07937,-0.02646 0.105833,-0.05292 0,0.105834 0.05292,0.211667 0.132292,0.3175 0.02646,0.02646 0.07938,0.07937 0.132291,0.105834 -0.07937,0.105833 -0.07937,0.264583 -0.02646,0.396875 0.07938,0.211666 0.211667,0.264583 0.3175,0.291041 0.105833,0.02646 0.185208,0 0.264583,-0.07937 0.02646,0.02646 0.02646,0.07937 0.05292,0.105834 0,0.02646 0,0.05292 0,0.07937 0,0.132291 0.02646,0.343958 0.07937,0.502707 0.02646,0.05292 0.02646,0.105834 0.05292,0.15875 0,0 0,0.02646 0,0.05292 -0.02646,0.132292 -0.105834,0.264583 -0.132292,0.423333 z m 0.529167,2.116667 c 0,-0.07938 -0.02646,-0.15875 -0.07938,-0.238125 0,-0.05292 0.02646,-0.132292 0.02646,-0.211667 0.02646,0 0.05292,0 0.05292,0 0,0 0.02646,0 0.02646,0.02646 0.02646,0.132291 0.132292,0.291041 0.238125,0.396875 0,0.02646 0,0.05292 0,0.07938 0,0.105833 0.02646,0.185208 0.05292,0.264583 -0.132292,-0.132292 -0.264584,-0.264583 -0.3175,-0.3175 z"
       inkscape:connector-curvature="0"
       style="stroke-width:0.26458332" />
  </g>
</svg>
