<svg xmlns="http://www.w3.org/2000/svg" viewBox="0 0 22.308455 12.634304"><path d="M22.097 6.284c.026-.159.026-.317-.133-.45a.515.515 0 0 0 0-.397c-.026-.105-.105-.158-.185-.211a.484.484 0 0 0-.317-.503c-.027 0-.053-.026-.106-.026 0-.027-.027-.027-.027-.027a.427.427 0 0 0-.343-.159c0-.026-.027-.026-.027-.053a.49.49 0 0 0 .053-.185c.08-.106.08-.238.08-.317v-.027c.052-.026.132-.053.185-.132.132-.159.079-.344.052-.45-.026-.053-.026-.132-.052-.185a.982.982 0 0 0-.053-.238c0-.027-.027-.159-.027-.291 0-.053 0-.132-.026-.185.026-.053.08-.08.08-.133a.502.502 0 0 0 0-.45c-.107-.185-.345-.211-.504-.211h-.132c0-.053-.026-.08-.053-.132a.541.541 0 0 0 .265-.186c.053-.053.08-.105.132-.158a.438.438 0 0 0 .132-.318.386.386 0 0 0-.185-.344c-.026 0-.026-.026-.053-.026-.026-.027-.08-.053-.132-.08-.027-.132-.053-.264-.238-.37-.212-.106-.397.026-.476.08a.394.394 0 0 1-.08.052.532.532 0 0 0-.29.238c-.027.027-.027.08-.027.106-.08.027-.186.053-.265.132-.026 0-.026.027-.053.027-.053.026-.132.053-.185.106 0 0-.053.053-.106.053-.344.185-.582.344-.74.608a.578.578 0 0 0-.08.132l-.027.027c-.185.185-.185.37-.185.476a.43.43 0 0 0-.08.159.58.58 0 0 0-.237.265c-.053 0-.106-.027-.185-.027a.63.63 0 0 0-.53.238c-.079.08-.105.159-.132.212-.185-.159-.423-.053-.503-.027a.329.329 0 0 0-.211.16.567.567 0 0 0-.318.105c-.106.053-.344.159-.344.397-.026.08-.053.159-.026.264-.027 0-.053.027-.053.027l-.08.08c-.052 0-.105.026-.132.026a1.326 1.326 0 0 0-.185-.212c-.238-.185-.423-.132-.556-.053-.238 0-.344.106-.396.185-.027.027-.027.053-.053.08 0-.08-.106-.106-.212-.08v-.079a.49.49 0 0 0-.053-.185c0-.212-.159-.318-.238-.37a.854.854 0 0 0-.476-.16.487.487 0 0 0-.106-.132c-.159-.132-.344-.132-.53-.026a.88.88 0 0 0-.317.37l-.026.027c-.027 0-.053 0-.053-.027a.536.536 0 0 0-.397.106c-.185.027-.476.132-.582.318 0 0 0 .026-.027.026a.61.61 0 0 0-.079.132h-.291c-.159 0-.291.08-.344.212a.202.202 0 0 0-.132-.053.48.48 0 0 0-.291-.264c-.106-.053-.16-.053-.238-.053-.16 0-.212.053-.45.264-.027.027-.08.053-.08.08a.41.41 0 0 0-.317.264c-.265-.264-.476-.238-.609-.185-.026 0-.053.026-.08.053h-.105l-.026-.027c0-.026-.027-.053-.027-.079-.053-.106-.185-.265-.476-.238l-.238-.08c.053-.343-.159-.476-.291-.502-.08-.027-.159-.027-.265-.027.027-.317-.026-.661-.08-.793 0-.027.027-.053.027-.08 0-.08 0-.211-.106-.37-.079-.08-.185-.159-.264-.159-.159-.106-.318-.132-.503-.106-.132.027-.344.08-.423.318-.212.053-.344.211-.424.317a.806.806 0 0 0-.343.238c-.053.027-.106.053-.133.106a.52.52 0 0 0-.238.238v.027c-.132-.027-.317-.053-.397-.08-.264-.079-.423.08-.45.133l-.026.026a.705.705 0 0 0-.318.08.578.578 0 0 1-.132.079.427.427 0 0 0-.238.08.271.271 0 0 0-.159.132.618.618 0 0 0-.185.185.42.42 0 0 0-.212.264.516.516 0 0 0 .027.344v.027l-.053.053a.999.999 0 0 0-.132.211c-.186 0-.318.133-.397.212l-.132.053a.34.34 0 0 0-.106.265c0 .105.053.185.132.264l.026.027a.202.202 0 0 0-.052.132.448.448 0 0 0 0 .264.948.948 0 0 0-.106.291.455.455 0 0 0 .185.45c0 .053.026.106.053.133h-.027c-.132-.053-.29-.08-.423-.027-.026 0-.053.027-.08.027-.079 0-.132.026-.211.052-.026.027-.053.027-.08.053a.32.32 0 0 0-.396-.053c-.133.08-.238.239-.212.397l.027.45c.026.344.026.582.185.715.026.132.106.29.185.396.026.16.053.344.238.477v.08c0 .131.027.237.08.317 0 .37.238.608.582.608.105 0 .396-.053.476-.45v-.053a.405.405 0 0 0 .344-.396v-.053c.211.053.555.08.688-.186.026-.079.053-.158.053-.238a.376.376 0 0 0 .053-.158v-.053c.026-.053.026-.16 0-.265.105.08.264.08.396.053.08-.027.133-.08.186-.132.053 0 .079.026.132.026a.365.365 0 0 0 .106.08c.026.026.053.079.08.105 0 .133 0 .344.21.45.054.106.16.185.318.212.027 0 .08.026.133.026.026.027.052.027.079.053a.532.532 0 0 0 .238.291c.053.027.08.053.132.053a.529.529 0 0 0 .45.159c.291-.053.344-.265.344-.476l.027-.027c.158.027.264-.08.29-.106 0 0 .027-.026.053-.079.027 0 .027 0 .053.026.265.08.635.186.9.186 0 .08 0 .158.026.238.053.106.106.185.212.238l.08.08a.4.4 0 0 0 .264.237c.106.053.265.08.397.08l.026.026c0 .08.027.133.053.212a.987.987 0 0 1 .053.318c0 .396.133.608.424.608h.053a.808.808 0 0 0 .264.132H9c.026.08.08.133.132.186.08.211.212.317.45.344.212.211.397.185.503.158.026 0 .053 0 .08-.026.131-.027.317-.053.449-.185.132-.027.238-.08.264-.08h.027c.053.027.08.027.132.027a.72.72 0 0 0 .265.211c.026.027.08.027.106.027.079.026.158.053.211.053.212.053.397 0 .556-.185.08-.08.106-.133.159-.212.026-.053.026-.132.026-.185.027 0 .053.026.08.026.026.08.079.159.158.212.212.212.397.212.45.212.159 0 .318-.08.344-.106h.053c.08.08.185.106.291.132.159.132.317.132.503.132h.132c.159.053.344 0 .476-.132.238-.053.344-.159.397-.291.08.026.212.053.318 0l.158.053c.133.053.291 0 .397-.106l.106-.106c.185-.212.212-.37.212-.608v-.133c.053-.106.106-.238.08-.37 0-.053 0-.08-.027-.106.079 0 .158-.026.238-.026h.106c.026.026.053.052.079.052v.027c0 .106.026.291.291.397.053.026.053.026.159.106a.672.672 0 0 0 .529.132c.026 0 .053-.027.08-.027h.132a.536.536 0 0 0 .794.159v.027a.858.858 0 0 0-.212.238c-.186.212-.186.397-.027.582 0 .026.027.08.053.132-.08.106-.053.238-.026.318.026.106.132.264.423.264a.459.459 0 0 0 .423-.264c.133 0 .238-.053.37-.159.186-.159.398-.556.345-.82.053-.159.053-.37.08-.98v-.237l.052.053v.079c0 .159.132.317.185.37.318.37.582.212.662.16.026 0 .106-.08.132-.186h.026a.485.485 0 0 0 .16-.609.526.526 0 0 0-.424-.317.202.202 0 0 0-.132-.053.416.416 0 0 0 .264-.291.39.39 0 0 0-.212-.423l-.132-.053c-.026-.027-.159-.106-.264-.185-.133-.106-.212-.186-.291-.212-.053-.053-.106-.106-.186-.132v-.053c-.026-.133-.106-.212-.238-.291-.053-.053-.106-.133-.159-.16-.132-.237-.317-.264-.396-.264a.432.432 0 0 0-.397.291c-.027.053-.027.106-.027.16a.447.447 0 0 0-.264.078v-.37a.768.768 0 0 0 .079-.37v-.08a.516.516 0 0 0 .027-.344.377.377 0 0 0 .079-.106c.053 0 .106-.026.159-.052.026-.027.132-.08.185-.212.106-.053.185-.159.264-.291.053-.027.08-.027.106-.08l.027-.026h.026c.132 0 .212-.053.265-.08a.306.306 0 0 0 .132-.185.367.367 0 0 0 .08-.105c.026.026.026.052.052.052.027.45.98 1.059 1.085 1.112a.84.84 0 0 1 .159.106c.264.264.476.238.608.185.053-.027.291-.133.291-.45 0-.027-.052-.318-.211-.556zM6.142 2.871c-.053 0-.105 0-.132-.027.027 0 .08.027.132.027zm-.211-1.032c.026-.026.053-.026.08-.026-.027 0-.054 0-.08.026zm12.964 10.107l.186.265zM20.007 5.2s-.027 0 0 0c-.027-.106-.053-.185-.053-.238h.026c0 .053.027.08.053.106a.37.37 0 0 0 .053.159c-.027 0-.053 0-.08-.027zm.396-1.508c-.052-.185-.211-.264-.264-.264-.08-.027-.318-.08-.53.185-.132.185-.158.37-.079.529-.026.026-.08.053-.08.106-.052.053-.131.106-.158.185-.026.026-.08.08-.08.132a.729.729 0 0 0 0 .582c0 .027.027.08.027.133 0 .053.027.158.053.238a.579.579 0 0 0-.132.08c-.027 0-.027.026-.053.052-.159.053-.265.185-.318.37h-.026a.398.398 0 0 0-.159.133c-.053.026-.132.08-.211.132-.212.185-.397.397-.344.767-.027.08-.027.16-.053.291v.08c-.027.08-.08.211-.08.45v.158c-.026.08-.053.16-.053.238a.51.51 0 0 0-.079.265c0 .212.159.45.476.45h.053c.08.053.159.106.291.106a.391.391 0 0 0 .45-.186c.027-.026.053-.026.08-.052 0 .026.026.026.052.052 0 .212.133.477.212.583.026.026.053.105.106.185.053.106.053.106.053.688v.37c0-.026-.027-.053-.027-.053a.46.46 0 0 0-.08-.37c-.026-.265-.21-.397-.396-.397-.212 0-.317.159-.37.212-.027.052-.053.079-.08.132-.026.026-.08.053-.106.08a.459.459 0 0 0-.317-.133c-.053 0-.132 0-.212-.027-.053 0-.132-.026-.238 0l-.08-.158-.105-.106-.027-.027c-.052-.105-.132-.211-.264-.238l-.027-.026c-.211-.185-.37-.185-.661-.185-.344.026-.661.052-.74.264-.08.053-.292.185-.292.45 0 .08.027.185.106.291-.027.08-.053.212-.053.37v.027a.54.54 0 0 0-.291 0c-.185-.08-.344-.027-.503.08-.026.026-.158.105-.264.237-.053.027-.133.053-.212.106h-.238a.425.425 0 0 0-.291-.132c-.212-.159-.53-.159-.767-.053-.08-.238-.37-.37-.583-.397-.026 0-.052-.026-.079-.053-.132-.238-.344-.211-.397-.185-.08 0-.29.08-.317.37v.027a.63.63 0 0 0-.159.291c-.08-.106-.185-.185-.423-.185-.186-.106-.424-.027-.53.026-.079.053-.158.053-.185.053-.185 0-.317.053-.397.159a1.028 1.028 0 0 0-.238-.132c-.026-.053-.053-.08-.08-.133a.534.534 0 0 0-.343-.396c-.132-.027-.238-.027-.318-.027a.663.663 0 0 0-.158-.132 1.34 1.34 0 0 0-.053-.344c0-.027-.027-.053-.027-.08 0-.053 0-.132-.053-.211.027-.053.027-.106.027-.133-.027-.29-.318-.37-.423-.37-.053 0-.186-.027-.318 0-.026-.053-.053-.053-.08-.08l-.026-.026-.026-.026c0-.027-.027-.027-.053-.053 0-.08.026-.265-.106-.397a.512.512 0 0 0-.238-.132.506.506 0 0 0-.503-.106c-.053 0-.264-.027-.635-.133a.962.962 0 0 0-.29-.079c-.16-.132-.371-.159-.53-.053a.422.422 0 0 0-.185.238h-.027c-.026.027-.053.027-.08.053-.052 0-.105.027-.158.053a.2.2 0 0 1-.106.053c-.026-.027-.053-.027-.08-.053a.63.63 0 0 0-.29-.159c-.027-.053-.053-.106-.08-.132-.026-.08-.052-.185-.132-.265a.54.54 0 0 0-.132-.238.406.406 0 0 0-.159-.106c-.08-.105-.211-.185-.45-.158a.986.986 0 0 0-.317-.053h-.106c-.106-.08-.238-.106-.423-.08a.53.53 0 0 0-.397.186.47.47 0 0 0-.265.211.493.493 0 0 0-.106.291c-.026.053-.026.08-.052.133 0 .079 0 .158.026.211-.106 0-.212 0-.344.08a.438.438 0 0 0-.317.132.559.559 0 0 0-.106.132.45.45 0 0 0-.16-.159c-.026-.211-.078-.343-.184-.423 0 0 0-.026-.027-.026a.488.488 0 0 0-.132-.318v-.185c.08 0 .159 0 .238-.053 0 0 .027 0 .027-.026.052 0 .079.026.105.026a.447.447 0 0 0 .265-.08.583.583 0 0 0 .397-.158c.08-.027.132-.053.159-.106a.625.625 0 0 0 .211-.238c.08-.185.053-.423-.026-.635a.367.367 0 0 0-.053-.291c0-.027-.027-.027-.027-.053a.365.365 0 0 0 .053-.291.523.523 0 0 0 .106-.212c.027-.053.027-.132.027-.185.105-.053.158-.106.185-.185.053-.08.053-.159.053-.265 0-.053.026-.106.053-.132a.509.509 0 0 0 .29-.397c0-.106 0-.212-.052-.29v-.027a.453.453 0 0 0 .344-.186s.026-.026.053-.026c.185.212.397.132.45.132.052-.026.211-.08.264-.264.132.026.265.026.344.026a.812.812 0 0 0 .397-.106.332.332 0 0 0 .026.238c.027.053.053.106.106.133.08.132.185.211.344.238h.132a.53.53 0 0 0 .212.106c.132.026.265 0 .397-.106a.529.529 0 0 0 .45.159.524.524 0 0 0 .476.105c.106-.026.238-.026.291 0 .027.027.053.027.08.053.026.053.052.08.052.08.08.106.238.185.37.185.027.026.08.053.133.053 0 .026.027.026.053.053a.414.414 0 0 0 .397.132c.053 0 .132-.026.185-.026.027.052.08.132.132.185.027.08.027.132.053.185a.414.414 0 0 0-.158.317c0 .106.026.397.396.556.239.106.37.08.582-.026a.426.426 0 0 0 .186-.106c.026.026.08.053.106.08l.079.079c.132.132.317.158.45.052.132-.105.211-.264.158-.423l-.026-.08c0-.026-.026-.052-.026-.079 0-.026.026-.053.026-.053.08.106.212.186.37.16a.418.418 0 0 0 .424-.424c0-.053 0-.106-.027-.159.027-.08.027-.159.027-.238 0 0 0-.026 0 0 .08-.132.08-.238.053-.317.079 0 .158 0 .264-.053a.506.506 0 0 0 .265-.477s0-.026.026-.026h.027c.08 0 .159-.027.238-.053h.08a.822.822 0 0 0 .45-.159c.078-.026.131-.053.184-.08.053.027.08.054.133.054h.079c-.027.053-.053.08-.053.106l-.106.105c-.238.239-.264.37-.264.477 0 .158.105.317.264.37.053.027.238.053.397-.106a.512.512 0 0 0 .238-.132c.159.08.37.053.503-.08.212.106.476.054.688-.026.026-.026.08-.026.106-.08.053.054.105.107.158.133.053.08.133.132.239.185.317.133.502.053.608-.026.08-.08.132-.159.132-.265.027-.026.053-.026.08-.053.185 0 .344-.08.423-.238.026-.053.053-.106.053-.132 0 0 0-.027.026-.027.027-.053.027-.105.027-.158h.08c.079 0 .237-.053.343-.265.053 0 .106-.026.132-.026h.053c.08.026.239 0 .397-.106a.655.655 0 0 0 .265-.318c.106.08.264.106.423.053a.562.562 0 0 0 .45-.476.618.618 0 0 0 .185-.185s.027 0 .027-.027a.462.462 0 0 0 .37-.185.444.444 0 0 0 .053-.476c-.026-.053-.053-.106-.106-.132v-.053c.053-.08.106-.16.423-.318.027-.026.08-.026.106-.053 0 .106.053.212.133.318.026.026.079.08.132.106-.08.105-.08.264-.027.396.08.212.212.265.318.291.106.027.185 0 .265-.079.026.027.026.08.052.106v.08c0 .132.027.343.08.502.026.053.026.106.053.159v.053c-.027.132-.106.264-.133.423zm.53 2.117a.427.427 0 0 0-.08-.238c0-.053.027-.133.027-.212h.053s.026 0 .026.026a.884.884 0 0 0 .238.397v.08c0 .106.027.185.053.264l-.317-.317z" stroke-width=".265"/></svg>