<?xml version="1.0" encoding="UTF-8" standalone="no"?>
<!-- Created with Inkscape (http://www.inkscape.org/) -->

<svg
   xmlns:dc="http://purl.org/dc/elements/1.1/"
   xmlns:cc="http://creativecommons.org/ns#"
   xmlns:rdf="http://www.w3.org/1999/02/22-rdf-syntax-ns#"
   xmlns:svg="http://www.w3.org/2000/svg"
   xmlns="http://www.w3.org/2000/svg"
   xmlns:sodipodi="http://sodipodi.sourceforge.net/DTD/sodipodi-0.dtd"
   xmlns:inkscape="http://www.inkscape.org/namespaces/inkscape"
   width="39.800182"
   height="27.800165"
   viewBox="0 0 10.530465 7.3554602"
   version="1.1"
   id="svg89"
   inkscape:version="0.92.1 r15371"
   sodipodi:docname="trucker-hat.svg">
  <defs
     id="defs83" />
  <sodipodi:namedview
     id="base"
     pagecolor="#ffffff"
     bordercolor="#666666"
     borderopacity="1.0"
     inkscape:pageopacity="0.0"
     inkscape:pageshadow="2"
     inkscape:zoom="0.35"
     inkscape:cx="48.471452"
     inkscape:cy="131.04286"
     inkscape:document-units="mm"
     inkscape:current-layer="layer1"
     showgrid="false"
     fit-margin-top="0"
     fit-margin-left="0"
     fit-margin-right="0"
     fit-margin-bottom="0"
     units="px"
     inkscape:window-width="1920"
     inkscape:window-height="1018"
     inkscape:window-x="-8"
     inkscape:window-y="-8"
     inkscape:window-maximized="1" />
  <metadata
     id="metadata86">
    <rdf:RDF>
      <cc:Work
         rdf:about="">
        <dc:format>image/svg+xml</dc:format>
        <dc:type
           rdf:resource="http://purl.org/dc/dcmitype/StillImage" />
        <dc:title></dc:title>
      </cc:Work>
    </rdf:RDF>
  </metadata>
  <g
     inkscape:label="Layer 1"
     inkscape:groupmode="layer"
     id="layer1"
     transform="translate(-93.008595,-176.14963)">
    <path
       id="path91"
       d="m 97.691726,183.50509 c -0.15875,0 -0.343959,0 -0.502709,0 0,0 -0.02646,-0.0265 -0.02646,-0.0265 -0.555625,-0.0529 -1.058333,-0.29104 -1.508125,-0.60854 -0.423333,-0.3175 -0.79375,-0.68792 -1.137708,-1.08479 -0.05292,-0.0529 -0.105834,-0.0794 -0.15875,-0.0794 -0.3175,0 -0.635,0 -0.9525,0 -0.15875,0 -0.185209,-0.0264 -0.211667,-0.15875 -0.05292,-0.23812 -0.105833,-0.47625 -0.132292,-0.71437 -0.02646,-0.15875 -0.05292,-0.34396 -0.05292,-0.50271 0,-0.18521 0,-0.37042 0,-0.55563 0.02646,-0.13229 0.02646,-0.29104 0.05292,-0.44979 0.132291,-0.76729 0.502708,-1.42875 1.084791,-1.93146 0.47625,-0.39687 1.031875,-0.66145 1.5875,-0.87312 0.02646,-0.0265 0.07938,-0.0265 0.105834,-0.0529 0.211666,-0.23812 0.47625,-0.3175 0.79375,-0.21166 0,0 0.02646,0 0.02646,0 0.211666,-0.0529 0.449791,-0.0529 0.661458,-0.10584 0.238125,0 0.449792,0 0.687917,0 0.185208,0.0265 0.370416,0.0529 0.529166,0.0794 0.47625,0.10583 0.899584,0.26458 1.27,0.58208 0.15875,0.13229 0.291039,0.26458 0.343959,0.44979 0.29104,0.87313 0.58208,1.77271 0.82021,2.64584 0.0265,0.0794 0.0529,0.10583 0.13229,0.15875 0.58208,0.29104 1.19063,0.58208 1.77271,0.87312 0.0529,0.0265 0.10583,0.0529 0.0794,0.10583 -0.0265,0.0529 -0.0794,0.0529 -0.13229,0.0529 -0.15875,0 -0.3175,-0.0265 -0.47625,0 -0.39687,0.0529 -0.74083,0.21167 -1.08479,0.39688 -0.71437,0.37041 -1.349375,0.84666 -2.010834,1.29645 -0.3175,0.21167 -0.661458,0.42334 -1.031875,0.55563 -0.15875,0.10583 -0.343958,0.13229 -0.529166,0.15875 z m -3.069167,-4.84188 c 0.02646,0.84667 0.132292,1.64042 0.3175,2.43417 0,0.0529 0.05292,0.0794 0.105833,0.0529 0.132292,-0.0265 0.264584,-0.0794 0.396875,-0.10584 0.79375,-0.21166 1.534584,-0.5027 2.328334,-0.74083 0.873125,-0.26458 1.772708,-0.44979 2.725209,-0.47625 0.15875,0 0.15875,0 0.10583,-0.13229 -0.18521,-0.71438 -0.42333,-1.40229 -0.634998,-2.09021 -0.105833,-0.3175 -0.291041,-0.52917 -0.555625,-0.68792 -0.15875,-0.10583 -0.3175,-0.15875 -0.47625,-0.23812 -0.555625,-0.18521 -1.137708,-0.23813 -1.74625,-0.15875 -0.661458,0.0794 -1.322916,0.26458 -1.931458,0.55562 -0.264583,0.1323 -0.449792,0.34396 -0.529167,0.635 -0.105833,0.34396 -0.105833,0.68792 -0.105833,0.9525 z m 8.916461,3.38667 c -0.0265,-0.10583 -0.0529,-0.18521 -0.13229,-0.29104 -0.15875,-0.21167 -0.37042,-0.3175 -0.635,-0.3175 -0.635,-0.0265 -1.16417,0.23812 -1.69334,0.55562 -0.0529,0.0265 -0.0265,0.0529 0,0.0794 0.0794,0.0529 0.13229,0.10583 0.21167,0.18521 0.39687,0.29104 0.82021,0.55562 1.32292,0.60854 0.37041,0.0529 0.79375,-0.13229 0.89958,-0.58208 0,0 0,0 0,-0.0265 0.0265,-0.0529 0.0265,-0.13229 0.0265,-0.21167 z"
       inkscape:connector-curvature="0"
       style="stroke-width:0.26458332" />
  </g>
</svg>
